<svg width="66" height="74" viewBox="0 0 66 74" fill="none" xmlns="http://www.w3.org/2000/svg">
<path d="M64.7836 13.9651C64.6212 12.1439 63.1199 10.7705 61.2914 10.7705H52.2204V9.43372H52.397C53.6923 9.43372 54.7461 8.37993 54.7461 7.08478V3.82819C54.7461 2.53304 53.6923 1.47925 52.397 1.47925H25.6988C25.1179 1.47925 24.647 1.95005 24.647 2.53107C24.647 3.1121 25.1179 3.5829 25.6988 3.5829H52.397C52.5323 3.5829 52.6424 3.69285 52.6424 3.82819V7.08478C52.6424 7.22012 52.5323 7.33007 52.397 7.33007H13.0718C12.9365 7.33007 12.8264 7.22012 12.8264 7.08478V3.82819C12.8264 3.69285 12.9365 3.5829 13.0718 3.5829H20.7671C21.348 3.5829 21.819 3.1121 21.819 2.53107C21.819 1.95005 21.348 1.47925 20.7671 1.47925H13.0718C11.7766 1.47925 10.7228 2.53304 10.7228 3.82819V7.08478C10.7228 8.37993 11.7766 9.43372 13.0718 9.43372H13.2484V10.7705H4.17745C2.34896 10.7705 0.84765 12.1439 0.685248 13.9651C0.663931 14.2033 0.19131 19.8723 2.51276 26.151C4.63675 31.8957 9.50966 39.2307 20.6744 42.1094C22.4718 43.5295 24.5241 44.6408 26.7508 45.3609L27.2802 46.2348C28.2808 47.8867 28.8097 49.8396 28.8097 51.8822C28.8097 53.13 28.6108 54.349 28.2187 55.505L27.4836 57.6715H25.0376C22.5275 57.6715 20.4853 59.7137 20.4853 62.2239V64.4273H16.6572C15.5769 64.4273 14.698 65.3063 14.698 66.3866V71.3274C14.698 72.4077 15.5769 73.2866 16.6572 73.2866H48.8118C49.8921 73.2866 50.771 72.4077 50.771 71.3274V66.3866C50.771 65.3063 49.8921 64.4273 48.8118 64.4273H44.9837V62.2239C44.9837 59.7137 42.9415 57.6715 40.4314 57.6715H37.9854L37.2503 55.505C36.858 54.3491 36.6591 53.1301 36.6591 51.8822C36.6591 49.8397 37.188 47.8868 38.1886 46.2348L38.718 45.3609C40.9447 44.6408 42.9969 43.5296 44.7944 42.1094C55.9592 39.2307 60.8321 31.8957 62.9561 26.151C65.2775 19.8723 64.8049 14.2034 64.7836 13.9651ZM13.6379 30.6996C11.6767 28.8635 10.1743 26.5858 9.14671 23.8711C8.43272 21.9848 7.96543 19.9368 7.75745 17.7827H13.2484V26.8161C13.2484 28.1456 13.3829 29.4442 13.6379 30.6996ZM4.48599 25.4216C2.32694 19.5822 2.76113 14.371 2.78063 14.1521C2.84556 13.4237 3.44608 12.8743 4.17745 12.8743H13.2484V15.6792H7.67036C7.10209 15.6792 6.55683 15.92 6.17424 16.3399C5.79124 16.7603 5.60191 17.3264 5.65478 17.8929C5.87622 20.2663 6.3891 22.5283 7.17923 24.6159C8.73972 28.7388 11.2656 31.9581 14.7232 34.25C15.4035 35.8919 16.3021 37.4214 17.3828 38.8021C9.76223 35.6434 6.17326 29.9849 4.48599 25.4216ZM48.6674 66.531V71.183H16.8015V66.531H48.6674ZM40.4314 59.7751C41.7815 59.7751 42.8801 60.8737 42.8801 62.2239V64.4273H22.5889V62.2239C22.5889 60.8737 23.6874 59.7751 25.0376 59.7751H40.4314ZM35.2582 56.181L35.764 57.6715H29.7047L30.2106 56.1808C30.6768 54.8066 30.9132 53.3604 30.9132 51.8822C30.9132 49.8132 30.4508 47.8157 29.5715 46.044C30.6013 46.2129 31.6575 46.3021 32.7344 46.3021C33.8112 46.3021 34.8675 46.2129 35.8972 46.044C35.0179 47.8157 34.5555 49.8132 34.5555 51.8822C34.5556 53.3605 34.7919 54.8067 35.2582 56.181ZM32.7344 44.1983C23.1497 44.1983 15.3521 36.4006 15.3521 26.8161V9.43372H50.1168V26.8161C50.1168 36.4007 42.3191 44.1983 32.7344 44.1983ZM60.983 25.4216C59.2957 29.985 55.7066 35.6441 48.0856 38.8028C49.1683 37.4196 50.0682 35.8872 50.7491 34.2418C53.7179 32.2704 56.0043 29.6153 57.5787 26.2907C57.8274 25.7658 57.6032 25.1385 57.0783 24.89C56.5535 24.6415 55.9264 24.8653 55.6776 25.3904C54.7029 27.4487 53.4174 29.2221 51.8301 30.706C52.0859 29.4487 52.2207 28.148 52.2207 26.8162V17.7828H57.7117C57.607 18.8651 57.4331 19.9384 57.1946 20.9745C57.0643 21.5407 57.4176 22.1053 57.9837 22.2354C58.5493 22.3664 59.1144 22.0126 59.2447 21.4464C59.5103 20.2924 59.7019 19.0968 59.8143 17.8929C59.8672 17.3264 59.6779 16.7603 59.2949 16.3399C58.9123 15.92 58.367 15.6792 57.7987 15.6792H52.2207V12.8743H61.2917C62.023 12.8743 62.6236 13.4237 62.6885 14.1522C62.7077 14.371 63.1419 19.5822 60.983 25.4216Z" fill="#CDAC69" stroke="#CDAC69" stroke-width="0.999963"/>
<path d="M39.6508 21.9075L36.6347 21.4692C36.5033 21.45 36.3898 21.3675 36.3311 21.2486L34.9822 18.5156C34.5569 17.6536 33.6955 17.1182 32.7343 17.1182C31.773 17.1182 30.9116 17.6536 30.4863 18.5156L29.1374 21.2486C29.0787 21.3677 28.9652 21.4501 28.8338 21.4692L25.8177 21.9075C24.8664 22.0456 24.091 22.6993 23.794 23.6135C23.497 24.5278 23.74 25.5124 24.4283 26.1835L26.6108 28.3107C26.7059 28.4034 26.7492 28.5368 26.7268 28.6678L26.2115 31.6718C26.049 32.6191 26.4311 33.5585 27.2088 34.1235C27.9863 34.6883 28.998 34.7617 29.849 34.3144L32.5466 32.8961C32.6641 32.8343 32.8044 32.8343 32.9219 32.8961L35.6196 34.3144C35.9897 34.5089 36.3901 34.605 36.7884 34.605C37.3061 34.605 37.8203 34.4427 38.2597 34.1234C39.0374 33.5584 39.4195 32.6189 39.257 31.6717L38.7417 28.6676C38.7193 28.5367 38.7626 28.4033 38.8577 28.3107L41.0403 26.1832C41.7286 25.5123 41.9717 24.5275 41.6746 23.6134C41.3776 22.6993 40.6019 22.0456 39.6508 21.9075ZM39.5718 24.677L37.3892 26.8045C36.7984 27.3805 36.5288 28.2099 36.6682 29.0233L37.1835 32.0273C37.2204 32.2423 37.0988 32.3667 37.023 32.4218C36.9475 32.4769 36.7915 32.5544 36.5984 32.4525L33.9007 31.0343C33.5355 30.8423 33.1348 30.7462 32.7341 30.7462C32.3334 30.7462 31.9328 30.8423 31.5676 31.0343L28.87 32.4525C28.677 32.5542 28.5211 32.4768 28.4452 32.4218C28.3695 32.3667 28.248 32.2425 28.2847 32.0273L28.8 29.0233C28.9395 28.2099 28.67 27.3805 28.079 26.8044L25.8965 24.6772C25.7403 24.5248 25.7654 24.3528 25.7944 24.2637C25.8233 24.1747 25.9041 24.0207 26.1199 23.9893L29.136 23.551C29.9528 23.4322 30.6584 22.9196 31.0236 22.1797L32.3724 19.4466C32.4689 19.251 32.6404 19.2218 32.734 19.2218C32.8275 19.2218 32.999 19.251 33.0955 19.4466L34.4444 22.1797C34.8096 22.9196 35.5151 23.4324 36.3319 23.551L39.3481 23.9893C39.564 24.0207 39.6448 24.1747 39.6736 24.2637C39.7028 24.3528 39.7279 24.5248 39.5718 24.677Z" fill="#CDAC69" stroke="#CDAC69" stroke-width="0.999963"/>
</svg>
