<svg width="72" height="72" viewBox="0 0 72 72" fill="none" xmlns="http://www.w3.org/2000/svg">
<path d="M5.09521 28.8308H30.1229V31.2144H5.09521V28.8308Z" fill="#CDAC69"/>
<path d="M5.09521 35.9817H30.1229V38.3653H5.09521V35.9817Z" fill="#CDAC69"/>
<path d="M5.09521 43.1323H30.1229V45.5159H5.09521V43.1323Z" fill="#CDAC69"/>
<path d="M5.09521 50.2832H30.1229V52.6668H5.09521V50.2832Z" fill="#CDAC69"/>
<path d="M5.09521 57.4338H30.1229V59.8174H5.09521V57.4338Z" fill="#CDAC69"/>
<path d="M5.09521 64.5847H40.8491V66.9683H5.09521V64.5847Z" fill="#CDAC69"/>
<path d="M6.28701 16.9128H9.8624V20.4882C9.8624 20.8043 9.98797 21.1075 10.2115 21.331C10.435 21.5545 10.7381 21.68 11.0542 21.68H15.8214C16.1375 21.68 16.4406 21.5545 16.6641 21.331C16.8876 21.1075 17.0132 20.8043 17.0132 20.4882V16.9128H20.5886C20.9047 16.9128 21.2078 16.7873 21.4313 16.5638C21.6548 16.3403 21.7804 16.0371 21.7804 15.721V10.9539C21.7804 10.6378 21.6548 10.3346 21.4313 10.1111C21.2078 9.88763 20.9047 9.76206 20.5886 9.76206H17.0132V6.18667C17.0132 5.87059 16.8876 5.56745 16.6641 5.34394C16.4406 5.12044 16.1375 4.99487 15.8214 4.99487H11.0542C10.7381 4.99487 10.435 5.12044 10.2115 5.34394C9.98797 5.56745 9.8624 5.87059 9.8624 6.18667V9.76206H6.28701C5.97093 9.76206 5.66779 9.88763 5.44428 10.1111C5.22078 10.3346 5.09521 10.6378 5.09521 10.9539V15.721C5.09521 16.0371 5.22078 16.3403 5.44428 16.5638C5.66779 16.7873 5.97093 16.9128 6.28701 16.9128ZM7.47881 12.1457H11.0542C11.3703 12.1457 11.6734 12.0201 11.8969 11.7966C12.1204 11.5731 12.246 11.2699 12.246 10.9539V7.37847H14.6296V10.9539C14.6296 11.2699 14.7552 11.5731 14.9787 11.7966C15.2022 12.0201 15.5053 12.1457 15.8214 12.1457H19.3968V14.5292H15.8214C15.5053 14.5292 15.2022 14.6548 14.9787 14.8783C14.7552 15.1018 14.6296 15.405 14.6296 15.721V19.2964H12.246V15.721C12.246 15.405 12.1204 15.1018 11.8969 14.8783C11.6734 14.6548 11.3703 14.5292 11.0542 14.5292H7.47881V12.1457Z" fill="#CDAC69"/>
<path d="M71.0613 28.9022L51.9925 21.7514C51.7226 21.6561 51.4282 21.6561 51.1583 21.7514L48 22.9432V3.80293C47.9972 2.85555 47.6196 1.94778 46.9497 1.27787C46.2798 0.607969 45.372 0.230368 44.4246 0.227539H3.90352C2.95613 0.230368 2.04836 0.607969 1.37846 1.27787C0.708555 1.94778 0.330954 2.85555 0.328125 3.80293V68.16C0.330954 69.1073 0.708555 70.0151 1.37846 70.685C2.04836 71.3549 2.95613 71.7325 3.90352 71.7354H44.4246C45.3048 71.7337 46.1532 71.4065 46.8067 70.8169C47.4602 70.2272 47.8725 69.4167 47.9642 68.5413L50.7173 71.3778C50.8296 71.4911 50.9633 71.581 51.1106 71.6424C51.2579 71.7038 51.4158 71.7354 51.5754 71.7354C51.7349 71.7354 51.8929 71.7038 52.0402 71.6424C52.1875 71.581 52.3211 71.4911 52.4335 71.3778L66.604 56.7902C68.267 55.169 69.5872 53.23 70.486 51.0885C71.3848 48.9469 71.8439 46.6465 71.8359 44.324V30.0225C71.8356 29.7792 71.7613 29.5418 71.6229 29.3418C71.4846 29.1417 71.2887 28.9884 71.0613 28.9022ZM33.6984 2.61113H38.4656V13.4922L36.7375 12.3481C36.5444 12.2162 36.3159 12.1456 36.082 12.1456C35.8481 12.1456 35.6197 12.2162 35.4265 12.3481L33.6984 13.4922V2.61113ZM45.6164 68.16C45.6164 68.476 45.4908 68.7792 45.2673 69.0027C45.0438 69.2262 44.7407 69.3518 44.4246 69.3518H3.90352C3.58743 69.3518 3.28429 69.2262 3.06079 69.0027C2.83728 68.7792 2.71172 68.476 2.71172 68.16V3.80293C2.71172 3.48685 2.83728 3.18371 3.06079 2.9602C3.28429 2.7367 3.58743 2.61113 3.90352 2.61113H31.3148V15.7209C31.3133 15.9369 31.3715 16.1492 31.4829 16.3343C31.5944 16.5193 31.7548 16.67 31.9465 16.7697C32.1343 16.8747 32.3479 16.9248 32.5629 16.9143C32.7778 16.9038 32.9855 16.833 33.1621 16.7101L36.082 14.7675L39.0019 16.7101C39.1812 16.8281 39.389 16.8956 39.6034 16.9053C39.8178 16.9151 40.0308 16.8667 40.22 16.7654C40.4092 16.6641 40.5676 16.5136 40.6783 16.3297C40.7891 16.1459 40.8481 15.9355 40.8492 15.7209V2.61113H44.4246C44.7407 2.61113 45.0438 2.7367 45.2673 2.9602C45.4908 3.18371 45.6164 3.48685 45.6164 3.80293V23.837L32.0895 28.9022C31.8621 28.9884 31.6662 29.1417 31.5279 29.3418C31.3895 29.5418 31.3152 29.7792 31.3148 30.0225V44.324C31.3069 46.6465 31.766 48.9469 32.6648 51.0885C33.5636 53.23 34.8837 55.169 36.5468 56.7902L45.6164 66.122V68.16ZM69.4523 44.324C69.4566 46.3372 69.0557 48.3306 68.2736 50.1856C67.4914 52.0406 66.344 53.7193 64.8997 55.1217L51.5754 68.8393L38.2511 55.1217C38.2479 55.1217 38.2449 55.1204 38.2427 55.1182C38.2404 55.116 38.2392 55.1129 38.2392 55.1098C36.7979 53.7082 35.6533 52.031 34.8732 50.1782C34.0931 48.3253 33.6936 46.3344 33.6984 44.324V30.8448L51.5754 24.1469L69.4523 30.8448V44.324Z" fill="#CDAC69"/>
<path d="M50.3838 41.9407H52.7674V44.3243H50.3838V41.9407Z" fill="#CDAC69"/>
<path d="M51.5754 27.6389C48.5111 27.6389 45.5156 28.5476 42.9678 30.25C40.4199 31.9525 38.4341 34.3722 37.2614 37.2032C36.0887 40.0343 35.7819 43.1495 36.3797 46.1549C36.9776 49.1603 38.4532 51.9209 40.6199 54.0877C42.7867 56.2545 45.5474 57.7301 48.5528 58.3279C51.5582 58.9258 54.6734 58.6189 57.5044 57.4463C60.3355 56.2736 62.7552 54.2878 64.4577 51.7399C66.1601 49.1921 67.0688 46.1966 67.0688 43.1323C67.065 39.0243 65.4314 35.0857 62.5267 32.181C59.6219 29.2763 55.6833 27.6427 51.5754 27.6389ZM51.5754 56.242C48.9825 56.242 46.4479 55.4732 44.292 54.0326C42.1361 52.5921 40.4558 50.5447 39.4636 48.1492C38.4713 45.7537 38.2117 43.1177 38.7175 40.5747C39.2234 38.0316 40.472 35.6957 42.3054 33.8623C44.1388 32.0288 46.4748 30.7803 49.0178 30.2744C51.5609 29.7686 54.1968 30.0282 56.5923 31.0204C58.9878 32.0127 61.0352 33.693 62.4758 35.8489C63.9163 38.0048 64.6852 40.5394 64.6852 43.1323C64.683 46.6085 63.301 49.9418 60.843 52.3998C58.3849 54.8579 55.0516 56.2398 51.5754 56.242Z" fill="#CDAC69"/>
<path d="M61.1097 40.7488C60.7936 40.7488 60.4904 40.8744 60.2669 41.0979C60.0434 41.3214 59.9179 41.6245 59.9179 41.9406H57.4151C57.2597 41.1966 56.9645 40.4889 56.5451 39.855L58.3209 38.0792C58.5453 38.302 58.849 38.4266 59.1653 38.4255C59.4816 38.4244 59.7844 38.2977 60.0073 38.0732C60.2301 37.8488 60.3547 37.5451 60.3535 37.2288C60.3524 36.9126 60.2257 36.6097 60.0013 36.3869L58.3209 34.7064C58.0958 34.4831 57.7917 34.3578 57.4747 34.3578C57.1577 34.3578 56.8535 34.4831 56.6285 34.7064C56.4065 34.9297 56.2819 35.2318 56.2819 35.5466C56.2819 35.8615 56.4065 36.1636 56.6285 36.3869L54.8527 38.1626C54.2189 37.7432 53.5111 37.448 52.7671 37.2926V34.7898C53.0832 34.7898 53.3863 34.6643 53.6098 34.4408C53.8333 34.2173 53.9589 33.9141 53.9589 33.598C53.9589 33.282 53.8333 32.9788 53.6098 32.7553C53.3863 32.5318 53.0832 32.4062 52.7671 32.4062H50.3835C50.0674 32.4062 49.7643 32.5318 49.5408 32.7553C49.3173 32.9788 49.1917 33.282 49.1917 33.598C49.1917 33.9141 49.3173 34.2173 49.5408 34.4408C49.7643 34.6643 50.0674 34.7898 50.3835 34.7898V37.2926C49.6395 37.448 48.9317 37.7432 48.2979 38.1626L46.5221 36.3869C46.744 36.1636 46.8686 35.8615 46.8686 35.5466C46.8686 35.2318 46.744 34.9297 46.5221 34.7064C46.2971 34.4831 45.9929 34.3578 45.6759 34.3578C45.3589 34.3578 45.0547 34.4831 44.8297 34.7064L43.1493 36.3869C42.9249 36.6097 42.7982 36.9126 42.797 37.2288C42.7959 37.5451 42.9205 37.8488 43.1433 38.0732C43.3662 38.2977 43.669 38.4244 43.9853 38.4255C44.3016 38.4266 44.6053 38.302 44.8297 38.0792L46.6055 39.855C46.1861 40.4889 45.8909 41.1966 45.7355 41.9406H43.2327C43.2327 41.6245 43.1072 41.3214 42.8836 41.0979C42.6601 40.8744 42.357 40.7488 42.0409 40.7488C41.7248 40.7488 41.4217 40.8744 41.1982 41.0979C40.9747 41.3214 40.8491 41.6245 40.8491 41.9406V44.3242C40.8491 44.6403 40.9747 44.9434 41.1982 45.1669C41.4217 45.3905 41.7248 45.516 42.0409 45.516C42.357 45.516 42.6601 45.3905 42.8836 45.1669C43.1072 44.9434 43.2327 44.6403 43.2327 44.3242H45.7355C45.8909 45.0682 46.1861 45.776 46.6055 46.4099L44.8297 48.1856C44.6064 47.9637 44.3044 47.8391 43.9895 47.8391C43.6746 47.8391 43.3726 47.9637 43.1493 48.1856C42.926 48.4107 42.8007 48.7148 42.8007 49.0318C42.8007 49.3488 42.926 49.653 43.1493 49.878L44.8297 51.5584C45.0556 51.78 45.3595 51.9041 45.6759 51.9041C45.9923 51.9041 46.2962 51.78 46.5221 51.5584C46.744 51.3351 46.8686 51.0331 46.8686 50.7182C46.8686 50.4034 46.744 50.1013 46.5221 49.878L48.2979 48.1022C48.9317 48.5216 49.6395 48.8168 50.3835 48.9722V51.475C50.0674 51.475 49.7643 51.6006 49.5408 51.8241C49.3173 52.0476 49.1917 52.3507 49.1917 52.6668C49.1917 52.9829 49.3173 53.286 49.5408 53.5095C49.7643 53.733 50.0674 53.8586 50.3835 53.8586H52.7671C53.0832 53.8586 53.3863 53.733 53.6098 53.5095C53.8333 53.286 53.9589 52.9829 53.9589 52.6668C53.9589 52.3507 53.8333 52.0476 53.6098 51.8241C53.3863 51.6006 53.0832 51.475 52.7671 51.475V48.9722C53.5111 48.8168 54.2189 48.5216 54.8527 48.1022L56.6285 49.878C56.4065 50.1013 56.2819 50.4034 56.2819 50.7182C56.2819 51.0331 56.4065 51.3351 56.6285 51.5584C56.8544 51.78 57.1582 51.9041 57.4747 51.9041C57.7911 51.9041 58.0949 51.78 58.3209 51.5584L60.0013 49.878C60.2246 49.653 60.3499 49.3488 60.3499 49.0318C60.3499 48.7148 60.2246 48.4107 60.0013 48.1856C59.778 47.9637 59.4759 47.8391 59.1611 47.8391C58.8462 47.8391 58.5442 47.9637 58.3209 48.1856L56.5451 46.4099C56.9645 45.776 57.2597 45.0682 57.4151 44.3242H59.9179C59.9179 44.6403 60.0434 44.9434 60.2669 45.1669C60.4904 45.3905 60.7936 45.516 61.1097 45.516C61.4258 45.516 61.7289 45.3905 61.9524 45.1669C62.1759 44.9434 62.3015 44.6403 62.3015 44.3242V41.9406C62.3015 41.6245 62.1759 41.3214 61.9524 41.0979C61.7289 40.8744 61.4258 40.7488 61.1097 40.7488ZM51.5753 46.7078C50.8681 46.7078 50.1769 46.4981 49.5889 46.1052C49.0009 45.7124 48.5427 45.154 48.2721 44.5007C48.0015 43.8473 47.9306 43.1285 48.0686 42.4349C48.2066 41.7413 48.5471 41.1043 49.0471 40.6042C49.5471 40.1042 50.1842 39.7637 50.8778 39.6257C51.5713 39.4878 52.2902 39.5586 52.9435 39.8292C53.5968 40.0998 54.1553 40.5581 54.5481 41.146C54.941 41.734 55.1507 42.4253 55.1507 43.1324C55.1479 44.0798 54.7703 44.9876 54.1003 45.6575C53.4304 46.3274 52.5227 46.705 51.5753 46.7078Z" fill="#CDAC69"/>
</svg>
