<svg width="75" height="76" viewBox="0 0 75 76" fill="none" xmlns="http://www.w3.org/2000/svg">
<path d="M17.0438 14.1916C17.6473 14.1916 18.1366 13.7023 18.1366 13.0988C18.1366 12.4953 17.6473 12.006 17.0438 12.006C16.4403 12.006 15.951 12.4953 15.951 13.0988C15.951 13.7023 16.4401 14.1916 17.0438 14.1916ZM8.30137 14.1916C8.90489 14.1916 9.39417 13.7023 9.39417 13.0988C9.39417 12.4953 8.90489 12.006 8.30137 12.006C7.69785 12.006 7.20857 12.4953 7.20857 13.0988C7.20857 13.7023 7.6977 14.1916 8.30137 14.1916ZM12.6726 14.1916C13.2761 14.1916 13.7654 13.7023 13.7654 13.0988C13.7654 12.4953 13.2761 12.006 12.6726 12.006C12.0691 12.006 11.5798 12.4953 11.5798 13.0988C11.5798 13.7023 12.0689 14.1916 12.6726 14.1916ZM12.4329 25.7685C12.4396 25.7686 12.4463 25.7686 12.453 25.7686L22.3333 25.7711H22.3338C23.0165 25.7711 23.5959 25.3289 23.7762 24.6706C23.9566 24.012 23.6828 23.3361 23.0953 22.9886L21.5926 22.0994C24.0079 19.7056 25.3663 16.4395 25.3447 13.0174C25.3014 6.17381 19.7002 0.526348 12.8586 0.42785C5.76927 0.326 0 6.06059 0 13.0991C0 19.8487 5.56135 25.6224 12.4329 25.7685ZM5.31102 5.63018C7.32615 3.6439 9.98968 2.57368 12.8273 2.61316C18.4885 2.69461 23.1233 7.36802 23.1591 13.0311C23.1785 16.0864 21.8683 18.992 19.5644 21.0024C19.1791 21.3384 18.9773 21.8427 19.024 22.3514C19.0706 22.8597 19.361 23.3184 19.8003 23.5782L19.8112 23.5846L12.4638 23.5829C6.78383 23.4739 2.18561 18.7947 2.18561 13.0991C2.18561 10.2693 3.2956 7.61689 5.31102 5.63018ZM73.5092 72.843H72.4164V56.5689C72.4164 52.3053 69.897 48.4335 65.9856 46.6998L60.2264 44.2313C61.6278 43.7891 62.8939 43.0005 63.924 41.9067C65.4783 40.2566 66.3696 38.0175 66.3696 35.7636C66.3696 33.6925 65.646 31.7377 64.2768 30.11C62.5641 28.0764 61.621 25.4918 61.621 22.8321V17.5954C61.621 13.0088 59.8348 8.6976 56.5916 5.45606C53.3485 2.21262 49.0368 0.426538 44.4509 0.426538C34.984 0.426538 27.2822 8.12832 27.2822 17.5952V22.6614C27.2828 25.4136 26.2012 28.0405 24.4437 30.1581C22.2317 32.8231 21.7721 36.4262 23.2445 39.5614C24.3373 41.8887 26.3084 43.5606 28.6682 44.2683L22.9492 46.7553C18.9368 48.4437 16.3441 52.3474 16.3441 56.7002V69.5647C16.3441 70.1682 16.8332 70.6575 17.4369 70.6575C18.0406 70.6575 18.5297 70.1682 18.5297 69.5647V56.7002C18.5297 53.2292 20.5972 50.1162 23.8088 48.7647L30.9773 45.6475V52.2254H27.6839C26.7558 52.2254 25.8674 52.6212 25.2465 53.3112C24.6258 54.0013 24.3259 54.9264 24.4239 55.8493L26.2252 72.843H1.0928C0.489139 72.843 0 73.3322 0 73.9358C0 74.5393 0.489139 75.0286 1.0928 75.0286H73.5092C74.1129 75.0286 74.602 74.5393 74.602 73.9358C74.602 73.3322 74.1129 72.843 73.5092 72.843ZM62.6046 31.5172C63.6379 32.7455 64.184 34.2138 64.184 35.7634C64.184 37.4663 63.5093 39.1591 62.333 40.4081C61.0875 41.7304 59.3765 42.4587 57.5151 42.4587H56.091L54.2202 41.6568C52.5861 40.956 51.4683 39.4536 51.2398 37.7242C54.6116 35.9087 56.909 32.3456 56.909 28.2551V20.0397C57.2288 20.0614 57.5483 20.0732 57.867 20.0732C58.3925 20.0732 58.9161 20.0434 59.4355 19.9845V22.8319C59.4354 26.006 60.5611 29.0906 62.6046 31.5172ZM44.7165 48.7691C40.807 48.8383 36.927 48.3429 33.1629 47.2989V44.697L33.479 44.5596C33.4814 44.5586 33.4839 44.5574 33.4865 44.5564L35.4361 43.7087C37.6063 42.7652 39.1398 40.8329 39.6048 38.5747C40.5564 38.8514 41.5608 39.0026 42.6005 39.0026H46.1615C47.2052 39.0026 48.2133 38.8502 49.1681 38.5715C49.6484 40.8193 51.1878 42.7343 53.3589 43.6657L55.4396 44.5574C55.441 44.558 55.4423 44.5586 55.4436 44.559L55.5977 44.625V47.0841C52.061 48.1379 48.4046 48.7047 44.7165 48.7691ZM55.5974 49.3595V52.2256H33.1629V49.562C36.7057 50.4909 40.3431 50.961 44.0051 50.961C44.2549 50.961 44.5048 50.9588 44.7547 50.9544C48.425 50.8903 52.0654 50.3539 55.5974 49.3595ZM59.4354 17.7808C56.4252 18.1875 53.0321 17.3812 50.6944 15.5699C50.2175 15.2004 49.5311 15.2872 49.1613 15.7644C48.7916 16.2414 48.8787 16.9279 49.3558 17.2975C50.8841 18.4815 52.7275 19.3156 54.7234 19.7361V25.6854C54.1982 26.8823 53.6136 27.8776 52.2957 28.9649C51.7409 29.4227 51.1336 29.8028 50.4831 30.1045C49.952 29.068 48.8734 28.3567 47.6311 28.3567H45.0701C43.3037 28.3567 41.8667 29.7938 41.8667 31.5601C41.8667 33.3263 43.3037 34.7634 45.0701 34.7634H47.6311C49.1176 34.7634 50.3706 33.7455 50.7304 32.3703C52.1923 31.8133 54.5759 29.8261 54.5765 29.8254C53.8364 33.7984 50.3459 36.8164 46.1616 36.8164H42.6004C37.8795 36.8164 34.0386 32.9758 34.0386 28.2547V19.8075C37.7502 19.2257 41.2567 17.9697 44.4724 16.0676C49.3688 13.1714 52.5095 9.3868 54.4048 6.39674C57.6478 9.28509 59.4926 13.4259 59.4354 17.7808ZM48.6485 31.5631C48.6469 32.1231 48.1912 32.5781 47.6309 32.5781H45.07C44.5087 32.5781 44.0522 32.1215 44.0522 31.5604C44.0522 30.9992 44.5088 30.5426 45.07 30.5426H47.6309C48.191 30.5426 48.6466 30.9973 48.6485 31.557V31.5631ZM29.4678 17.5952C29.4678 9.33347 36.1891 2.61214 44.4509 2.61214C47.4138 2.61214 50.2452 3.46745 52.6647 5.05973C50.9204 7.85571 47.9845 11.4512 43.3597 14.187C40.1869 16.0637 36.7067 17.2618 33.0153 17.7482H32.9471C32.9467 17.7482 32.9463 17.7482 32.9457 17.7482C32.9451 17.7482 32.9448 17.7482 32.9442 17.7482H29.4677V17.5952H29.4678ZM25.2226 38.6324C24.1145 36.2722 24.4604 33.5599 26.1241 31.5555C28.2117 29.0405 29.4701 25.9329 29.4678 22.6614V19.9338H31.853V28.2551C31.853 32.3479 34.1533 35.9128 37.5282 37.7273C37.317 39.4698 36.2025 40.992 34.5645 41.7042L32.8294 42.4587H31.2454C28.6387 42.4587 26.331 40.9926 25.2226 38.6324ZM63.2648 55.6191L61.439 72.843H28.4231L26.5972 55.6191C26.5641 55.3068 26.6615 55.0064 26.8714 54.7731C27.0814 54.5397 27.3701 54.4112 27.6839 54.4112H62.1782C62.492 54.4112 62.7807 54.5397 62.9906 54.7731C63.2006 55.0064 63.2979 55.3068 63.2648 55.6191ZM70.2308 72.843H63.6368L65.4382 55.8496C65.5361 54.9265 65.2361 54.0014 64.6155 53.3114C63.9947 52.6213 63.1065 52.2256 62.1782 52.2256H57.7831V45.5619L65.1123 48.7032C68.2217 50.0816 70.2308 53.169 70.2308 56.5689V72.843ZM44.931 59.4743C42.6412 59.4743 40.7783 61.3372 40.7783 63.627C40.7783 65.9168 42.6412 67.7796 44.931 67.7796C47.2207 67.7796 49.0836 65.9168 49.0836 63.627C49.0836 61.3372 47.2207 59.4743 44.931 59.4743ZM44.931 65.594C43.8463 65.594 42.9639 64.7116 42.9639 63.627C42.9639 62.5423 43.8463 61.6599 44.931 61.6599C46.0156 61.6599 46.898 62.5423 46.898 63.627C46.898 64.7116 46.0157 65.594 44.931 65.594Z" fill="#CDAC69"/>
</svg>
