<svg width="88" height="80" viewBox="0 0 88 80" fill="none" xmlns="http://www.w3.org/2000/svg">
<path d="M81.7884 0.675049H14.6051C11.3786 0.675049 8.76305 3.29064 8.76305 6.51708V53.2533H1.46051C0.653942 53.2533 0 53.9073 0 54.7138C0 57.9403 2.61559 60.5559 5.84203 60.5559H48.1968V78.0819C48.1969 78.8885 48.8509 79.5423 49.6576 79.5421C50.0448 79.5421 50.416 79.3882 50.6898 79.1145L58.4203 71.3841L66.1508 79.1145C66.4246 79.3884 66.796 79.5425 67.1833 79.5425C67.3754 79.543 67.5655 79.5054 67.7427 79.4315C68.2884 79.2053 68.644 78.6725 68.6439 78.0819V60.5559H73.0254C76.2518 60.5559 78.8674 57.9403 78.8674 54.7138V7.97759H86.17C86.9765 7.97759 87.6305 7.32364 87.6305 6.51708C87.6305 3.29064 85.0149 0.675049 81.7884 0.675049ZM75.9464 6.51708V53.2533H70.1044V56.1743H75.5535C75.0319 57.0777 74.0684 57.6343 73.0254 57.6348H68.6439V56.1743H65.7228V74.5563L59.4529 68.2863C58.8826 67.7162 57.9581 67.7162 57.3877 68.2863L51.1178 74.5563V56.1743H48.1968V57.6348H5.84203C4.79905 57.6343 3.83548 57.0777 3.31389 56.1743H10.2236H46.7362V53.2533H11.6841V6.51708C11.6841 4.90377 12.9918 3.59606 14.6051 3.59606H76.7584C76.2328 4.48022 75.9524 5.48852 75.9464 6.51708ZM79.2603 5.05657C80.0683 3.66033 81.8552 3.18347 83.2517 3.99168C83.6937 4.24745 84.0608 4.61477 84.3166 5.05657H79.2603Z" fill="#CDAC69"/>
<path d="M72.1886 46.3819L70.3177 43.03L72.1959 39.6811C72.5917 38.9782 72.3429 38.0877 71.6402 37.6919C71.6048 37.672 71.5685 37.6534 71.5314 37.6364L68.0452 36.0401L67.5953 32.2281C67.5002 31.4272 66.7736 30.8551 65.9727 30.9502C65.9355 30.9546 65.8984 30.9604 65.8617 30.9677L62.0965 31.714L59.4924 28.8938C58.9095 28.3017 57.9571 28.2943 57.365 28.8772C57.3594 28.8827 57.3539 28.8883 57.3484 28.8938L54.7443 31.714L50.9791 30.9677C50.1879 30.8113 49.4195 31.3259 49.263 32.1171C49.2557 32.1538 49.2499 32.1909 49.2455 32.2281L48.7957 36.0401L45.3095 37.6393C44.5761 37.975 44.2537 38.8419 44.5894 39.5752C44.6064 39.6123 44.6248 39.6486 44.6449 39.684L46.5231 43.03L44.6449 46.379C44.2491 47.0819 44.498 47.9724 45.2006 48.3682C45.2361 48.3881 45.2724 48.4067 45.3095 48.4237L48.7957 50.023L49.2455 53.8378C49.3406 54.6387 50.0672 55.2109 50.8681 55.1157C50.9054 55.1114 50.9424 55.1055 50.9791 55.0982L54.7443 54.3519L57.3484 57.1721C57.8963 57.7642 58.8202 57.8 59.4123 57.2523C59.44 57.2265 59.4667 57.1999 59.4924 57.1721L62.0965 54.3519L65.8617 55.0982C66.2608 55.1798 66.6758 55.0885 67.0038 54.847C67.3302 54.6064 67.5418 54.2407 67.588 53.8378L68.0379 50.0259L71.5241 48.4266C72.2575 48.0909 72.5799 47.2241 72.2441 46.4907C72.2272 46.4537 72.2085 46.4173 72.1886 46.3819ZM67.3704 43.7428L68.8733 46.4243L66.0808 47.7051C65.6178 47.9176 65.299 48.356 65.2395 48.8619L64.8803 51.9187L61.8614 51.3213C61.3639 51.218 60.8489 51.3845 60.506 51.7595L58.4204 54.0204L56.3348 51.7624C56.0584 51.4636 55.6699 51.2936 55.2628 51.2936C55.1675 51.2931 55.0726 51.3029 54.9795 51.3228L51.9606 51.9202L51.6013 48.8633C51.5418 48.3574 51.223 47.9191 50.7601 47.7066L47.9676 46.4257L49.4704 43.7442C49.7216 43.2988 49.7277 42.7578 49.4704 42.3159V42.3217L47.9676 39.6402L50.7601 38.3593C51.223 38.1468 51.5418 37.7085 51.6013 37.2026L51.9606 34.1458L54.9795 34.7431C55.4768 34.8452 55.9912 34.6789 56.3348 34.305L58.4204 32.0397L60.506 34.2977C60.8487 34.6728 61.3639 34.8393 61.8614 34.7358L64.8803 34.1385L65.2395 37.1953C65.299 37.7012 65.6178 38.1395 66.0808 38.352L68.8733 39.6329L67.3704 42.3144C67.1218 42.758 67.1218 43.2991 67.3704 43.7428Z" fill="#CDAC69"/>
<path d="M58.4202 35.7275C54.3872 35.7275 51.1177 38.9971 51.1177 43.0301C51.1224 47.0611 54.3892 50.3277 58.4202 50.3326C62.4532 50.3326 65.7228 47.0631 65.7228 43.0301C65.7228 38.9971 62.4532 35.7275 58.4202 35.7275ZM58.4202 47.4116C56.0003 47.4116 54.0387 45.45 54.0387 43.0301C54.0387 40.6102 56.0003 38.6486 58.4202 38.6486C60.8401 38.6486 62.8017 40.6102 62.8017 43.0301C62.8017 45.45 60.8401 47.4116 58.4202 47.4116Z" fill="#CDAC69"/>
<path d="M55.4995 9.43848H32.1313V12.3595H55.4995V9.43848Z" fill="#CDAC69"/>
<path d="M70.1041 18.2014H17.5259V21.1224H70.1041V18.2014Z" fill="#CDAC69"/>
<path d="M70.1041 24.0435H17.5259V26.9645H70.1041V24.0435Z" fill="#CDAC69"/>
<path d="M37.9729 43.03H18.9863V45.951H37.9729V43.03Z" fill="#CDAC69"/>
</svg>
