<svg width="88" height="80" viewBox="0 0 88 80" fill="none" xmlns="http://www.w3.org/2000/svg">
<path d="M81.7884 0.675049H14.6051C11.3786 0.675049 8.76305 3.29064 8.76305 6.51708V53.2533H1.46051C0.653942 53.2533 0 53.9073 0 54.7138C0 57.9403 2.61559 60.5559 5.84203 60.5559H48.1968V78.0819C48.1969 78.8885 48.8509 79.5423 49.6576 79.5421C50.0448 79.5421 50.416 79.3882 50.6898 79.1145L58.4203 71.3841L66.1508 79.1145C66.4246 79.3884 66.796 79.5425 67.1833 79.5425C67.3754 79.543 67.5655 79.5054 67.7427 79.4315C68.2884 79.2053 68.644 78.6725 68.6439 78.0819V60.5559H73.0254C76.2518 60.5559 78.8674 57.9403 78.8674 54.7138V7.97759H86.17C86.9765 7.97759 87.6305 7.32364 87.6305 6.51708C87.6305 3.29064 85.0149 0.675049 81.7884 0.675049ZM75.9464 6.51708V53.2533H70.1044V56.1743H75.5535C75.0319 57.0777 74.0684 57.6343 73.0254 57.6348H68.6439V56.1743H65.7228V74.5563L59.4529 68.2863C58.8826 67.7162 57.9581 67.7162 57.3877 68.2863L51.1178 74.5563V56.1743H48.1968V57.6348H5.84203C4.79905 57.6343 3.83548 57.0777 3.31389 56.1743H10.2236H46.7362V53.2533H11.6841V6.51708C11.6841 4.90377 12.9918 3.59606 14.6051 3.59606H76.7584C76.2328 4.48022 75.9524 5.48852 75.9464 6.51708ZM79.2603 5.05657C80.0683 3.66033 81.8552 3.18347 83.2517 3.99168C83.6937 4.24745 84.0608 4.61477 84.3166 5.05657H79.2603Z" fill="#CDAC69"/>
</svg>
