<svg width="91" height="91" viewBox="0 0 91 91" fill="none" xmlns="http://www.w3.org/2000/svg">
<path d="M88.0307 22.5091L90.5348 15.8307C90.651 15.5207 90.6617 15.1809 90.5651 14.8642C90.4686 14.5475 90.2702 14.2715 90.0008 14.0791C89.7314 13.8866 89.406 13.7884 89.075 13.7997C88.7441 13.8111 88.4262 13.9313 88.1706 14.1418L64.0703 33.9908C63.4122 34.535 62.9218 35.2547 62.6561 36.0663C62.3904 36.8779 62.3603 37.7483 62.5692 38.5763C62.7044 39.1059 62.8553 39.6913 63.0016 40.251C63.1109 40.673 63.0859 41.1186 62.93 41.5257C62.7742 41.9329 62.4952 42.2812 62.1319 42.5223L62.0727 42.5618C61.6875 42.8187 61.2268 42.9381 60.7652 42.9006C60.3037 42.8631 59.8684 42.6708 59.5297 42.355L55.9486 37.2585L55.0884 32.9568C54.9406 32.2286 54.9388 31.4783 55.083 30.7493C55.2272 30.0204 55.5145 29.3272 55.9283 28.7101C56.6276 27.665 57.6537 26.8812 58.846 26.4816C59.3499 26.3121 59.8824 26.2442 60.4127 26.2818C60.943 26.3195 61.4606 26.4621 61.9355 26.7012L65.895 28.6808C66.1522 28.8093 66.4409 28.8614 66.7269 28.8309C67.0128 28.8004 67.2841 28.6886 67.5084 28.5086C67.7327 28.3287 67.9007 28.0882 67.9926 27.8156C68.0844 27.5431 68.0961 27.25 68.0264 26.971L67.0616 23.1111C66.7478 21.8558 66.0566 20.7269 65.0813 19.8765L66.2826 13.8994C66.4252 13.1791 66.3004 12.4315 65.9316 11.7965C65.5628 11.1615 64.9753 10.6826 64.279 10.4494L62.2637 9.77263L62.2449 9.76642C62.1827 9.7465 62.1191 9.73165 62.0569 9.71397V7.7846C62.0569 7.38573 61.8985 7.0032 61.6164 6.72116C61.3344 6.43911 60.9518 6.28066 60.553 6.28066C60.1541 6.28066 59.7716 6.43911 59.4895 6.72116C59.2075 7.0032 59.049 7.38573 59.049 7.7846V9.71322C58.9862 9.73089 58.9225 9.74574 58.861 9.76567L58.8422 9.77188L56.8307 10.4477C56.1335 10.6806 55.5452 11.1597 55.1758 11.7952C54.8065 12.4308 54.6815 13.1791 54.8243 13.9002L55.7919 18.7149C55.0397 18.8968 54.3037 19.14 53.5912 19.442L51.6867 16.5845L53.5649 10.9493C53.9277 9.85756 53.8603 8.66854 53.3762 7.62488C52.8922 6.58123 52.0282 5.76163 50.9604 5.33337L47.0194 3.75705V1.76883C47.0194 1.36996 46.8609 0.987431 46.5789 0.705387C46.2968 0.423343 45.9143 0.264893 45.5154 0.264893C45.1166 0.264893 44.734 0.423343 44.452 0.705387C44.1699 0.987431 44.0115 1.36996 44.0115 1.76883V3.75761L40.0672 5.33393C38.9995 5.76231 38.1356 6.58191 37.6515 7.62552C37.1675 8.66913 37.0999 9.8581 37.4626 10.9498L39.3412 16.5851L37.4364 19.4426C36.724 19.1405 35.988 18.8973 35.2358 18.7154L36.2038 13.8994C36.3465 13.179 36.2217 12.4312 35.8529 11.796C35.4841 11.1608 34.8964 10.6818 34.2 10.4486L32.1847 9.77188L32.1659 9.76567C32.1036 9.74556 32.0399 9.73089 31.9779 9.71322V7.7846C31.9779 7.38573 31.8194 7.0032 31.5374 6.72116C31.2553 6.43911 30.8728 6.28066 30.4739 6.28066C30.0751 6.28066 29.6925 6.43911 29.4105 6.72116C29.1284 7.0032 28.97 7.38573 28.97 7.7846V9.71322C28.907 9.73089 28.8435 9.74574 28.782 9.76567L28.7632 9.77188L26.7517 10.4477C26.0545 10.6806 25.4661 11.1596 25.0967 11.7952C24.7274 12.4307 24.6024 13.1791 24.7452 13.9002L25.9459 19.8757C24.9708 20.7261 24.2798 21.8551 23.966 23.1103L23.0008 26.9702C22.9311 27.2492 22.9429 27.5424 23.0347 27.815C23.1265 28.0875 23.2946 28.3281 23.5189 28.508C23.7433 28.688 24.0145 28.7998 24.3005 28.8303C24.5865 28.8608 24.8752 28.8086 25.1325 28.68L29.092 26.7004C29.5669 26.4614 30.0844 26.3189 30.6147 26.2812C31.1451 26.2435 31.6776 26.3114 32.1815 26.4809C33.3738 26.8805 34.3998 27.6643 35.0989 28.7095C35.5128 29.3266 35.8002 30.0197 35.9444 30.7486C36.0886 31.4776 36.0868 32.2279 35.9391 32.9561L35.079 37.257L31.4977 42.3535C31.1591 42.6696 30.7235 42.862 30.2618 42.8995C29.8 42.9371 29.3391 42.8175 28.9538 42.5603L28.8955 42.5215C28.5323 42.2805 28.2534 41.9321 28.0975 41.5251C27.9415 41.118 27.9165 40.6724 28.0257 40.2504C28.1723 39.6907 28.3229 39.1053 28.4581 38.5758C28.667 37.7477 28.6369 36.8773 28.3712 36.0656C28.1055 35.254 27.6151 34.5343 26.957 33.99L2.85385 14.1425C2.59831 13.932 2.28042 13.8116 1.94951 13.8002C1.6186 13.7887 1.29316 13.8868 1.02367 14.0792C0.754185 14.2716 0.555719 14.5475 0.459062 14.8642C0.362404 15.1809 0.372959 15.5206 0.489088 15.8307L2.99315 22.5084C4.40227 26.2606 6.76108 29.5828 9.83891 32.1502L10.5292 32.7252L3.58777 31.8576C3.30189 31.8219 3.01174 31.869 2.75186 31.9934C2.49198 32.1178 2.2733 32.3142 2.12182 32.5593C1.97035 32.8044 1.89246 33.0878 1.89742 33.3759C1.90239 33.6639 1.98999 33.9445 2.14982 34.1842C4.27492 37.3852 7.35814 39.8318 10.9582 41.174L12.0238 41.5735L4.73904 42.3828C4.42629 42.4176 4.13233 42.5496 3.89855 42.7602C3.66476 42.9708 3.50293 43.2495 3.43584 43.5569C3.36876 43.8643 3.39979 44.1851 3.52458 44.4739C3.64936 44.7628 3.86162 45.0053 4.13145 45.1672L6.76805 46.7499C9.92403 48.6471 13.3896 49.9734 17.0058 50.6682C14.7034 52.2498 12.724 54.2561 11.1737 56.5796C11.0224 56.8062 10.9355 57.0695 10.9223 57.3416C10.9091 57.6137 10.97 57.8842 11.0985 58.1244C11.227 58.3645 11.4184 58.5653 11.6521 58.7051C11.8858 58.845 12.1531 58.9188 12.4255 58.9186H13.0186C15.938 58.9213 18.8201 58.2634 21.4492 56.9942V60.4226C21.4492 60.72 21.5375 61.0107 21.7027 61.258C21.868 61.5052 22.1028 61.6979 22.3776 61.8117C22.6524 61.9255 22.9547 61.9553 23.2464 61.8973C23.5381 61.8393 23.8061 61.6961 24.0164 61.4859L27.4649 58.0375L29.4093 59.9819C29.5667 60.1393 29.757 60.2597 29.9665 60.3346C30.176 60.4095 30.3995 60.437 30.6209 60.4151C30.8424 60.3932 31.0562 60.3224 31.2469 60.2079C31.4377 60.0933 31.6007 59.9379 31.7241 59.7528L33.0635 57.7437C33.5301 57.0427 34.2007 56.5019 34.9846 56.1946V56.4219C34.9823 57.6183 34.5083 58.7656 33.6655 59.6148L32.5977 60.6826C31.4434 61.8308 30.5283 63.1966 29.9054 64.7009C29.2825 66.2052 28.9642 67.8181 28.9689 69.4462C28.9691 69.8151 29.1049 70.1711 29.3504 70.4464C29.5959 70.7218 29.9341 70.8972 30.3006 70.9395L29.437 72.6667L27.5597 73.1367L23.7222 68.845C24.2415 68.0203 24.4794 67.0494 24.4005 66.078C24.3215 65.1066 23.9298 64.187 23.2841 63.457C22.6384 62.7269 21.7735 62.2258 20.8191 62.0287C19.8646 61.8317 18.8719 61.9493 17.9899 62.3639C17.1079 62.7785 16.384 63.4678 15.9268 64.3285C15.4695 65.1892 15.3036 66.1749 15.4537 67.1379C15.6039 68.1009 16.0621 68.9892 16.7598 69.6698C17.4574 70.3504 18.3568 70.7866 19.3231 70.913C19.5186 70.9386 19.7154 70.9515 19.9125 70.9515C20.4028 70.9502 20.8895 70.8682 21.3531 70.7088L24.2613 73.9611L24.0921 74.0034C23.9005 74.0513 23.7202 74.1365 23.5615 74.254C23.4028 74.3716 23.2689 74.5193 23.1672 74.6887C22.962 75.0307 22.9011 75.4403 22.9978 75.8273C23.0946 76.2143 23.3411 76.547 23.6832 76.7522C24.0252 76.9574 24.4348 77.0183 24.8217 76.9216L26.5325 76.4941L27.8524 77.9584C27.9846 78.1051 28.1445 78.2243 28.3228 78.3092C28.5011 78.3942 28.6944 78.4431 28.8916 78.4534C29.0889 78.4636 29.2862 78.4349 29.4723 78.3688C29.6585 78.3028 29.8298 78.2008 29.9765 78.0685C30.1232 77.9363 30.2424 77.7765 30.3274 77.5981C30.4123 77.4198 30.4613 77.2265 30.4715 77.0293C30.4817 76.832 30.453 76.6347 30.387 76.4486C30.321 76.2624 30.2189 76.0911 30.0867 75.9444L29.8374 75.6679L30.8383 75.4176C31.0487 75.365 31.2453 75.2675 31.4146 75.1317C31.5838 74.9959 31.7216 74.8251 31.8186 74.6311L33.6582 70.9502H34.9846C35.2639 70.9501 35.5377 70.8724 35.7753 70.7255C36.0129 70.5786 36.2048 70.3685 36.3297 70.1187C36.9567 68.857 37.8868 67.7706 39.0368 66.9566L39.4645 67.5983L35.9171 73.8062C34.3216 76.6011 33.4819 79.7635 33.4807 82.9817C33.4807 83.3806 33.6391 83.7631 33.9212 84.0452C34.2032 84.3272 34.5858 84.4857 34.9846 84.4857C35.3835 84.4857 35.766 84.3272 36.0481 84.0452C36.3301 83.7631 36.4886 83.3806 36.4886 82.9817C36.4897 80.2869 37.1929 77.639 38.5289 75.2986L40.5831 71.7038L40.403 72.1539C38.78 76.1884 38.4783 80.6336 39.5414 84.8504C39.5886 85.0427 39.6733 85.2239 39.7906 85.3835C39.908 85.543 40.0558 85.6778 40.2254 85.7801C40.395 85.8824 40.5832 85.9502 40.7791 85.9796C40.9749 86.0089 41.1747 85.9993 41.3669 85.9513C41.559 85.9032 41.7398 85.8177 41.8988 85.6996C42.0578 85.5815 42.192 85.4331 42.2935 85.263C42.395 85.0929 42.4619 84.9045 42.4904 84.7085C42.5189 84.5124 42.5083 84.3127 42.4594 84.1208C41.5511 80.5173 41.8089 76.7186 43.1958 73.271L43.2146 73.2232L44.0079 74.4132V88.9975C44.0079 89.3964 44.1664 89.7789 44.4484 90.0609C44.7304 90.343 45.113 90.5014 45.5119 90.5014C45.9107 90.5014 46.2933 90.343 46.5753 90.0609C46.8573 89.7789 47.0158 89.3964 47.0158 88.9975V74.4124L47.8091 73.2225L47.8279 73.2702C49.2148 76.7179 49.4726 80.5166 48.5643 84.12C48.5154 84.312 48.5048 84.5117 48.5333 84.7077C48.5618 84.9037 48.6287 85.0922 48.7302 85.2623C48.8317 85.4324 48.9659 85.5807 49.1249 85.6988C49.2839 85.8169 49.4647 85.9025 49.6568 85.9505C49.849 85.9986 50.0488 86.0082 50.2446 85.9788C50.4405 85.9494 50.6287 85.8816 50.7983 85.7794C50.9679 85.6771 51.1157 85.5423 51.2331 85.3827C51.3504 85.2232 51.4351 85.042 51.4823 84.8496C52.5452 80.6328 52.2435 76.1876 50.6206 72.1531L50.4405 71.702L52.4948 75.2973C53.8312 77.638 54.5347 80.2864 54.5359 82.9817C54.5359 83.3806 54.6943 83.7631 54.9764 84.0452C55.2584 84.3272 55.6409 84.4857 56.0398 84.4857C56.4387 84.4857 56.8212 84.3272 57.1033 84.0452C57.3853 83.7631 57.5438 83.3806 57.5438 82.9817C57.5423 79.7635 56.7026 76.6011 55.1072 73.8062L51.5596 67.5983L51.9873 66.9566C53.1372 67.7706 54.0673 68.857 54.6944 70.1187C54.8193 70.3686 55.0113 70.5787 55.249 70.7256C55.4866 70.8725 55.7605 70.9502 56.0398 70.9502H57.3663L59.2066 74.6305C59.3035 74.8244 59.4412 74.995 59.6102 75.1307C59.7792 75.2664 59.9756 75.364 60.1858 75.4167L64.0761 76.3926C64.4885 77.3243 65.1308 78.136 65.9428 78.7516C66.7547 79.3672 67.7097 79.7664 68.7182 79.9119C69.7267 80.0574 70.7556 79.9443 71.7084 79.5833C72.6613 79.2224 73.5068 78.6253 74.1657 77.8481C74.8246 77.0709 75.2754 76.1391 75.4756 75.14C75.6758 74.141 75.6191 73.1075 75.3106 72.1364C75.0021 71.1653 74.452 70.2884 73.7119 69.5881C72.9717 68.8878 72.0659 68.387 71.0792 68.1325V66.4384C71.0792 66.0395 70.9208 65.6569 70.6387 65.3749C70.3567 65.0929 69.9742 64.9344 69.5753 64.9344C69.1764 64.9344 68.7939 65.0929 68.5119 65.3749C68.2298 65.6569 68.0714 66.0395 68.0714 66.4384V68.1325C66.911 68.4346 65.8671 69.0757 65.0728 69.9738C64.2786 70.872 63.77 71.9865 63.6122 73.1751L61.5879 72.6675L60.7231 70.9397C61.0898 70.8976 61.4281 70.7222 61.6738 70.4468C61.9195 70.1714 62.0554 69.8153 62.0556 69.4462C62.0603 67.8181 61.7421 66.2053 61.1193 64.701C60.4965 63.1967 59.5815 61.8309 58.4273 60.6826L57.3595 59.6148C56.5168 58.7656 56.0428 57.6183 56.0404 56.4219V56.1946C56.8243 56.502 57.4949 57.0427 57.9615 57.7437L59.3009 59.7528C59.4244 59.9379 59.5873 60.0933 59.7781 60.2079C59.9689 60.3224 60.1827 60.3932 60.4041 60.4151C60.6255 60.437 60.849 60.4095 61.0585 60.3346C61.2681 60.2597 61.4584 60.1393 61.6157 59.9819L63.5601 58.0375L67.0084 61.4859C67.2188 61.696 67.4867 61.8391 67.7783 61.897C68.07 61.9549 68.3722 61.9251 68.6469 61.8113C68.9216 61.6975 69.1564 61.5049 69.3217 61.2577C69.4869 61.0105 69.5752 60.7199 69.5753 60.4226V56.9934C72.2043 58.2629 75.0864 58.9211 78.0058 58.9186H78.599C78.8712 58.9186 79.1383 58.8447 79.3718 58.7049C79.6053 58.565 79.7965 58.3643 79.9249 58.1243C80.0534 57.8843 80.1143 57.6139 80.1011 57.342C80.088 57.0701 80.0012 56.8069 79.8502 56.5804C78.2999 54.2569 76.3206 52.2506 74.0183 50.669C77.6345 49.9742 81.0999 48.6478 84.2558 46.7506L86.8924 45.1687C87.1623 45.0068 87.3745 44.7643 87.4993 44.4754C87.6241 44.1866 87.6551 43.8658 87.5881 43.5584C87.521 43.251 87.3591 42.9723 87.1253 42.7617C86.8916 42.5511 86.5976 42.4191 86.2849 42.3843L79.0001 41.575L80.0655 41.1755C83.6656 39.8333 86.7489 37.3867 88.8741 34.1857C89.0342 33.946 89.122 33.6653 89.127 33.377C89.1321 33.0888 89.0542 32.8052 88.9027 32.5599C88.7511 32.3147 88.5323 32.1182 88.2722 31.9938C88.0121 31.8694 87.7218 31.8224 87.4357 31.8584L80.4943 32.726L81.1846 32.1509C84.2626 29.5836 86.6215 26.2614 88.0307 22.5091ZM19.7145 67.9291C19.3366 67.8788 18.9919 67.6868 18.7501 67.392C18.5083 67.0972 18.3876 66.7215 18.4122 66.341C18.4369 65.9605 18.6052 65.6036 18.883 65.3425C19.1608 65.0814 19.5275 64.9355 19.9087 64.9344C20.2195 64.9339 20.5227 65.0297 20.7767 65.2088C21.0307 65.3878 21.2229 65.6413 21.3267 65.9342C21.4306 66.227 21.441 66.5449 21.3566 66.844C21.2722 67.143 21.0971 67.4086 20.8555 67.6039C20.8261 67.624 20.7976 67.6458 20.7694 67.6682C20.4627 67.8839 20.0864 67.977 19.7145 67.9291ZM69.5753 76.966C69.048 76.9652 68.5301 76.8259 68.0736 76.562C67.6171 76.298 67.2381 75.9187 66.9744 75.462H72.1762C71.9125 75.9187 71.5335 76.298 71.077 76.562C70.6205 76.8259 70.1026 76.9652 69.5753 76.966ZM72.1762 72.4541H71.0792V71.3572C71.5341 71.6212 71.9122 71.9993 72.1762 72.4541ZM68.0714 71.3572V72.4541H66.9744C67.2385 71.9991 67.6165 71.6208 68.0714 71.3564V71.3572ZM37.9925 39.3674H53.0319V56.7507C53.0322 57.0664 52.9331 57.3742 52.7485 57.6304C52.5639 57.8865 52.3032 58.078 52.0036 58.1776L45.5122 60.3414L39.0208 58.1776C38.7212 58.078 38.4606 57.8865 38.276 57.6304C38.0914 57.3742 37.9922 57.0664 37.9925 56.7507V39.3674ZM63.2807 24.0103C62.4529 23.5935 61.5507 23.345 60.6262 23.2793C59.7017 23.2135 58.7734 23.3318 57.8949 23.6273C56.0686 24.2394 54.4968 25.4399 53.4258 27.0409C52.7919 27.9862 52.3517 29.0478 52.1308 30.1643C51.9099 31.2808 51.9126 32.43 52.1388 33.5454L52.7014 36.3595H47.2463L48.0118 31.0017C48.3956 28.3147 49.7358 25.8563 51.7863 24.0778C53.8367 22.2994 56.4599 21.3202 59.1742 21.3201H60.915C61.657 21.3199 62.3777 21.5678 62.9626 22.0242C63.5476 22.4806 63.9632 23.1195 64.1434 23.8392L64.3155 24.5267L63.2807 24.0103ZM57.7819 13.3001L59.7865 12.6269C60.2844 12.4709 60.818 12.4709 61.3158 12.6269L63.3334 13.308L62.2966 18.4667C61.8432 18.3646 61.3799 18.3126 60.915 18.3116H59.1742C59.0423 18.3116 58.9107 18.3135 58.7794 18.3173L57.7819 13.3001ZM41.1844 8.12675L45.5122 6.39552L49.8402 8.12675C50.1961 8.26952 50.4841 8.5427 50.6454 8.89055C50.8067 9.2384 50.8292 9.63471 50.7083 9.9986L48.9401 15.3043H42.0844L40.3161 9.99953C40.195 9.6355 40.2174 9.23895 40.3787 8.89088C40.5401 8.54281 40.8283 8.26949 41.1844 8.12675ZM41.8048 18.3113H49.2189L50.9507 20.9089C48.3526 22.7439 46.4391 25.3915 45.5119 28.4341C44.5844 25.3916 42.671 22.7441 40.073 20.9089L41.8048 18.3113ZM29.7077 12.6269C30.2055 12.4706 30.7392 12.4706 31.237 12.6269L33.2545 13.3078L32.2478 18.3171C32.1157 18.3135 31.9832 18.3116 31.8502 18.3114H30.1094C29.6453 18.3123 29.1827 18.3642 28.7299 18.4662L27.7029 13.3001L29.7077 12.6269ZM33.1291 23.6273C32.2507 23.3318 31.3224 23.2135 30.3979 23.2792C29.4734 23.3449 28.5711 23.5934 27.7433 24.0103L26.7094 24.5274L26.8812 23.8398C27.0613 23.12 27.4769 22.481 28.0618 22.0245C28.6467 21.568 29.3674 21.32 30.1094 21.3201H31.8502C34.5646 21.3201 37.1878 22.2992 39.2383 24.0777C41.2888 25.8562 42.629 28.3146 43.0127 31.0017L43.7782 36.3595H38.3232L38.8857 33.5469C39.1119 32.4315 39.1146 31.2823 38.8937 30.1658C38.6728 29.0493 38.2326 27.9877 37.5987 27.0424C36.5279 25.4409 34.9561 24.2398 33.1295 23.6273H33.1291ZM30.5604 56.0749L30.2386 56.5575L28.5278 54.8467C28.2458 54.5647 27.8633 54.4063 27.4645 54.4063C27.0656 54.4063 26.6831 54.5647 26.4011 54.8467L24.4567 56.7911V54.4068C24.4567 54.1346 24.3828 53.8674 24.2429 53.6339C24.1031 53.4003 23.9024 53.2091 23.6624 53.0807C23.4224 52.9522 23.152 52.8913 22.8801 52.9045C22.6082 52.9176 22.3449 53.0043 22.1184 53.1553C20.1913 54.4426 18.0125 55.3055 15.7267 55.687C17.2336 54.1073 19.0023 52.7999 20.9547 51.8229L22.1203 51.2401C22.4043 51.0981 22.6362 50.8698 22.7825 50.588C22.9289 50.3062 22.9823 49.9853 22.9351 49.6713C22.8879 49.3572 22.7425 49.0662 22.5197 48.8399C22.297 48.6136 22.0083 48.4635 21.695 48.4113L18.2886 47.8436C15.2359 47.3374 12.2867 46.3348 9.55805 44.8756L18.6073 43.8702C18.9433 43.8329 19.2569 43.6835 19.4976 43.4461C19.7383 43.2086 19.8919 42.897 19.9337 42.5616C19.9756 42.2261 19.9032 41.8863 19.7282 41.597C19.5532 41.3078 19.2859 41.0859 18.9693 40.9672L12.0149 38.3582C10.182 37.6742 8.49799 36.6437 7.05474 35.3229L15.2465 36.3469C15.5691 36.3872 15.896 36.322 16.1783 36.1609C16.4607 35.9999 16.6832 35.7516 16.8127 35.4535C16.9421 35.1553 16.9715 34.8232 16.8963 34.507C16.8212 34.1907 16.6456 33.9073 16.3959 33.6992L11.7651 29.8401C9.08772 27.6069 7.03587 24.7169 5.81022 21.453L5.27877 20.0359L25.0421 36.3116C25.2604 36.4918 25.4231 36.7302 25.5114 36.9991C25.5998 37.2681 25.61 37.5566 25.541 37.8311C25.407 38.3552 25.2579 38.9344 25.1129 39.4883C24.8453 40.5161 24.9049 41.6019 25.2835 42.5943C25.6621 43.5867 26.3408 44.4363 27.225 45.0247L27.2833 45.0634C28.2684 45.7204 29.4526 46.0113 30.63 45.8856C31.8074 45.7599 32.9034 45.2254 33.7275 44.3751C33.7825 44.3186 33.8327 44.2576 33.8779 44.193L34.9843 42.6185V46.1351L33.9082 46.9422C32.888 47.7056 31.6565 48.1344 30.3828 48.1697C29.1091 48.205 27.8557 47.8452 26.7947 47.1396C26.6304 47.03 26.4461 46.9539 26.2523 46.9156C26.0586 46.8773 25.8592 46.8775 25.6655 46.9162C25.4719 46.9549 25.2877 47.0315 25.1236 47.1414C24.9595 47.2513 24.8187 47.3924 24.7091 47.5567C24.5996 47.7211 24.5235 47.9054 24.4852 48.0991C24.4468 48.2929 24.447 48.4923 24.4858 48.6859C24.5245 48.8796 24.601 49.0637 24.7109 49.2278C24.8208 49.3919 24.962 49.5328 25.1263 49.6423C26.5804 50.6097 28.2803 51.1421 30.0265 51.1771C31.7726 51.2122 33.4925 50.7483 34.9843 49.8401V53.0657C33.1741 53.4541 31.587 54.5336 30.5608 56.0745L30.5604 56.0749ZM56.2994 62.809C57.697 64.1987 58.6176 65.9961 58.9287 67.9423H56.9268C55.7973 66.0714 54.1578 64.5614 52.2006 63.5891C51.8728 63.4252 51.4963 63.3867 51.142 63.4808C50.7878 63.5749 50.48 63.7951 50.2767 64.1001L45.5122 71.2466L40.7477 64.0993C40.5444 63.7944 40.2367 63.5742 39.8825 63.4801C39.5283 63.386 39.1519 63.4245 38.824 63.5884C36.8666 64.5608 35.227 66.0712 34.0975 67.9423H32.0956C32.407 65.9965 33.3275 64.1997 34.7246 62.8101L35.7924 61.7423C36.1949 61.3383 36.5496 60.8893 36.8493 60.4042C37.2217 60.6743 37.6332 60.8859 38.0696 61.0315L45.0366 63.354C45.3453 63.457 45.6791 63.457 45.9878 63.354L52.9547 61.0315C53.3911 60.8859 53.8027 60.6744 54.1751 60.4042C54.4749 60.8893 54.8295 61.3383 55.232 61.7423L56.2994 62.809ZM79.2592 29.8401L74.6284 33.6992C74.3787 33.9073 74.2031 34.1907 74.128 34.5069C74.0528 34.8231 74.0822 35.1552 74.2116 35.4534C74.341 35.7515 74.5635 35.9997 74.8458 36.1608C75.1281 36.3219 75.455 36.3872 75.7776 36.3469L83.9697 35.3229C82.5264 36.6437 80.8423 37.6743 79.0093 38.3582L72.0551 40.9663C71.7386 41.085 71.4712 41.3068 71.2962 41.5961C71.1213 41.8854 71.0489 42.2252 71.0907 42.5606C71.1326 42.8961 71.2862 43.2077 71.5269 43.4451C71.7675 43.6825 72.0812 43.832 72.4172 43.8693L81.4664 44.8746C78.7374 46.334 75.7878 47.3367 72.7347 47.8429L69.3283 48.4106C69.015 48.4628 68.7264 48.6128 68.5036 48.8391C68.2809 49.0655 68.1355 49.3565 68.0882 49.6705C68.041 49.9845 68.0944 50.3055 68.2408 50.5873C68.3872 50.8691 68.619 51.0973 68.903 51.2393L70.0686 51.8221C72.0209 52.7993 73.7896 54.1066 75.2965 55.6863C73.0106 55.3048 70.8319 54.4418 68.9047 53.1546C68.6782 53.0038 68.415 52.9173 68.1431 52.9043C67.8713 52.8913 67.601 52.9523 67.3611 53.0809C67.1212 53.2094 66.9207 53.4006 66.7809 53.6341C66.6412 53.8676 66.5674 54.1347 66.5674 54.4068V56.7917L64.623 54.8473C64.4834 54.7076 64.3176 54.5968 64.1351 54.5212C63.9526 54.4457 63.757 54.4068 63.5595 54.4068C63.362 54.4068 63.1665 54.4457 62.984 54.5212C62.8015 54.5968 62.6357 54.7076 62.4961 54.8473L60.7853 56.558L60.4635 56.0754C59.4373 54.5342 57.8501 53.4544 56.0398 53.0659V49.8386C57.5316 50.7468 59.2515 51.2107 60.9976 51.1756C62.7438 51.1406 64.4437 50.6082 65.8978 49.6408C66.2297 49.4196 66.4601 49.0755 66.5383 48.6844C66.6165 48.2933 66.5362 47.8871 66.3149 47.5552C66.0937 47.2233 65.7497 46.9929 65.3585 46.9147C64.9674 46.8365 64.5612 46.9168 64.2294 47.1381C63.1684 47.8437 61.9151 48.2035 60.6414 48.1682C59.3677 48.1328 58.1362 47.704 57.1161 46.9407L56.0398 46.1351V42.6197L57.1462 44.1941C57.1914 44.2587 57.2417 44.3196 57.2966 44.3763C58.1208 45.2264 59.217 45.7608 60.3945 45.8863C61.5719 46.0119 62.7561 45.7208 63.7411 45.0636L63.8004 45.0243C64.6844 44.4359 65.3629 43.5864 65.7413 42.5941C66.1197 41.6019 66.1792 40.5163 65.9115 39.4886C65.7666 38.9348 65.6173 38.3554 65.4835 37.8313C65.4145 37.5568 65.4247 37.2683 65.513 36.9993C65.6013 36.7304 65.7641 36.492 65.9824 36.3118L85.7457 20.0359L85.2144 21.453C83.9886 24.717 81.9367 27.6069 79.2592 29.8401Z" fill="#CDAC69"/>
<path d="M41.441 53.9653C41.5806 54.105 41.7464 54.2158 41.9289 54.2914C42.1113 54.3669 42.3069 54.4058 42.5044 54.4058C42.7019 54.4058 42.8975 54.3669 43.08 54.2914C43.2625 54.2158 43.4283 54.105 43.5679 53.9653C44.0928 53.4414 44.4783 52.7945 44.6896 52.0836C44.9008 51.3727 44.9309 50.6202 44.7773 49.8947H46.3291C46.7778 50.5129 47.0184 51.2576 47.0163 52.0215V52.9026C47.0163 53.3015 47.1747 53.684 47.4568 53.966C47.7388 54.2481 48.1213 54.4065 48.5202 54.4065C48.9191 54.4065 49.3016 54.2481 49.5836 53.966C49.8657 53.684 50.0241 53.3015 50.0241 52.9026V52.0215C50.0279 50.5303 49.5255 49.082 48.5992 47.9135C48.6994 47.6148 48.8908 47.355 49.1465 47.1708C49.4021 46.9867 49.7091 46.8873 50.0241 46.8868C50.423 46.8868 50.8055 46.7284 51.0876 46.4463C51.3696 46.1643 51.5281 45.7818 51.5281 45.3829C51.5281 44.984 51.3696 44.6015 51.0876 44.3194C50.8055 44.0374 50.423 43.8789 50.0241 43.8789C49.0915 43.8801 48.182 44.1698 47.4205 44.7084C46.6591 45.2469 46.0829 46.0078 45.771 46.8868H44.0084V43.8789C44.0084 43.4801 43.8499 43.0975 43.5679 42.8155C43.2858 42.5334 42.9033 42.375 42.5044 42.375C42.1056 42.375 41.723 42.5334 41.441 42.8155C41.1589 43.0975 41.0005 43.4801 41.0005 43.8789V48.3908C41.0007 48.6219 41.0544 48.8498 41.1575 49.0566C41.1575 49.0587 41.1575 49.0613 41.1593 49.0634L41.712 50.1688C41.8481 50.4404 41.8952 50.7479 41.8465 51.0478C41.7979 51.3476 41.656 51.6245 41.441 51.8391C41.1591 52.1211 41.0008 52.5035 41.0008 52.9022C41.0008 53.3009 41.1591 53.6833 41.441 53.9653Z" fill="#CDAC69"/>
</svg>
