<svg width="60" height="70" viewBox="0 0 60 70" fill="none" xmlns="http://www.w3.org/2000/svg">
<path d="M17.3714 56.4441H15.0195V69.3792H17.3714V56.4441Z" fill="#CDAC69"/>
<path d="M45.5931 56.4441H43.2412V69.3792H45.5931V56.4441Z" fill="#CDAC69"/>
<path d="M38.5379 21.1665H32.6583C32.0348 21.1672 31.437 21.4153 30.9961 21.8562C30.5552 22.2971 30.3072 22.8948 30.3064 23.5183V28.222H29.1305C28.8186 28.222 28.5195 28.3459 28.299 28.5664C28.0785 28.787 27.9546 29.0861 27.9546 29.3979C27.9546 29.7098 28.0785 30.0089 28.299 30.2294C28.5195 30.45 28.8186 30.5739 29.1305 30.5739H30.3064C30.93 30.5731 31.5277 30.3251 31.9686 29.8842C32.4095 29.4433 32.6575 28.8455 32.6583 28.222V23.5183H38.5379C38.8497 23.5183 39.1488 23.3945 39.3694 23.1739C39.5899 22.9534 39.7138 22.6543 39.7138 22.3424C39.7138 22.0306 39.5899 21.7314 39.3694 21.5109C39.1488 21.2904 38.8497 21.1665 38.5379 21.1665Z" fill="#CDAC69"/>
<path d="M26.7785 21.1665H22.0748C21.763 21.1665 21.4639 21.2904 21.2433 21.5109C21.0228 21.7314 20.8989 22.0306 20.8989 22.3424C20.8989 22.6543 21.0228 22.9534 21.2433 23.1739C21.4639 23.3945 21.763 23.5183 22.0748 23.5183H26.7785C27.0904 23.5183 27.3895 23.3945 27.61 23.1739C27.8306 22.9534 27.9544 22.6543 27.9544 22.3424C27.9544 22.0306 27.8306 21.7314 27.61 21.5109C27.3895 21.2904 27.0904 21.1665 26.7785 21.1665Z" fill="#CDAC69"/>
<path d="M31.4824 37.6294H29.1305C28.8186 37.6294 28.5195 37.7533 28.299 37.9738C28.0785 38.1943 27.9546 38.4934 27.9546 38.8053C27.9546 39.1172 28.0785 39.4163 28.299 39.6368C28.5195 39.8573 28.8186 39.9812 29.1305 39.9812H31.4824C31.7942 39.9812 32.0933 39.8573 32.3139 39.6368C32.5344 39.4163 32.6583 39.1172 32.6583 38.8053C32.6583 38.4934 32.5344 38.1943 32.3139 37.9738C32.0933 37.7533 31.7942 37.6294 31.4824 37.6294Z" fill="#CDAC69"/>
<path d="M24.4269 27.0462C25.0763 27.0462 25.6028 26.5197 25.6028 25.8703C25.6028 25.2208 25.0763 24.6943 24.4269 24.6943C23.7775 24.6943 23.251 25.2208 23.251 25.8703C23.251 26.5197 23.7775 27.0462 24.4269 27.0462Z" fill="#CDAC69"/>
<path d="M36.1862 27.0462C36.8356 27.0462 37.3621 26.5197 37.3621 25.8703C37.3621 25.2208 36.8356 24.6943 36.1862 24.6943C35.5367 24.6943 35.0103 25.2208 35.0103 25.8703C35.0103 26.5197 35.5367 27.0462 36.1862 27.0462Z" fill="#CDAC69"/>
<path d="M55.4814 51.6455C54.7813 48.726 53.309 46.0484 51.2188 43.8932C49.1286 41.738 46.4974 40.1844 43.6007 39.3952C44.5361 38.2381 45.2843 36.9415 45.8182 35.5526C46.5964 36.4709 47.6379 37.128 48.8018 37.4351C49.9657 37.7422 51.1958 37.6844 52.3258 37.2696C53.4557 36.8547 54.431 36.1029 55.1198 35.1157C55.8085 34.1285 56.1775 32.9536 56.1767 31.7498V30.5739C56.1763 29.9783 56.0251 29.3926 55.7373 28.8712C55.4494 28.3498 55.0342 27.9097 54.5304 27.5921C55.5869 26.4992 56.1773 25.0385 56.1767 23.5184V22.3425C56.1758 21.6132 55.9492 20.9022 55.5281 20.3068C55.1071 19.7114 54.5121 19.2609 53.8248 19.017V9.99532C53.8219 7.34532 52.7678 4.80471 50.894 2.93087C49.0201 1.05703 46.4795 0.00299566 43.8295 0H16.7834C14.1334 0.00299566 11.5927 1.05703 9.71891 2.93087C7.84507 4.80471 6.79103 7.34532 6.78803 9.99532V19.017C6.10078 19.2609 5.50581 19.7114 5.08474 20.3068C4.66368 20.9022 4.43713 21.6132 4.43619 22.3425V23.5184C4.43561 25.0385 5.02595 26.4992 6.08248 27.5921C5.57867 27.9097 5.16349 28.3498 4.87562 28.8712C4.58776 29.3926 4.43658 29.9783 4.43619 30.5739V31.7498C4.43543 32.9536 4.80436 34.1285 5.4931 35.1157C6.18184 36.1029 7.15715 36.8547 8.28712 37.2696C9.41709 37.6844 10.6472 37.7422 11.8111 37.4351C12.975 37.128 14.0165 36.4709 14.7947 35.5526C15.3286 36.9415 16.0768 38.2381 17.0122 39.3952C14.1155 40.1845 11.4843 41.738 9.3941 43.8932C7.30391 46.0484 5.83163 48.7259 5.13146 51.6454L0.940918 69.1049L3.22779 69.6537L7.41848 52.1941C8.07405 49.4612 9.51522 46.98 11.5642 45.0565C13.6132 43.133 16.1805 41.8514 18.9493 41.3696C19.3489 41.7038 19.7665 42.0158 20.2003 42.3043L24.3917 49.6391L23.2581 59.8417C23.2398 60.0061 23.2564 60.1725 23.3068 60.3301C23.3571 60.4876 23.4402 60.6328 23.5505 60.7561C23.6608 60.8793 23.7959 60.9779 23.9469 61.0455C24.0979 61.113 24.2614 61.1479 24.4268 61.1479H26.7787V69.3793H29.1305V61.1479H31.4824V69.3793H33.8342V61.1479H36.186C36.3514 61.1479 36.515 61.113 36.6659 61.0455C36.8169 60.978 36.952 60.8794 37.0623 60.7562C37.1726 60.6329 37.2556 60.4878 37.306 60.3303C37.3564 60.1728 37.373 60.0064 37.3548 59.842L36.2212 49.6394L40.4126 42.3046C40.8464 42.0161 41.264 41.7041 41.6636 41.3699C44.4324 41.8517 46.9997 43.1334 49.0487 45.0569C51.0977 46.9804 52.5389 49.4617 53.1944 52.1945L57.3851 69.654L59.672 69.1052L55.4814 51.6455ZM53.8248 31.7498C53.8248 32.6855 53.4532 33.5828 52.7916 34.2444C52.13 34.9059 51.2327 35.2776 50.2971 35.2776C49.3615 35.2776 48.4642 34.9059 47.8026 34.2444C47.141 33.5828 46.7693 32.6855 46.7693 31.7498V28.2189C47.5279 28.7905 48.4142 29.1689 49.3518 29.3213C49.1992 29.7213 49.121 30.1458 49.1212 30.5739V32.9258H51.473V30.5739C51.473 30.2621 51.5969 29.963 51.8174 29.7424C52.038 29.5219 52.3371 29.398 52.6489 29.398C52.9608 29.398 53.2599 29.5219 53.4804 29.7424C53.701 29.963 53.8248 30.2621 53.8248 30.5739V31.7498ZM51.473 9.99532V19.017C50.7858 19.2609 50.1908 19.7114 49.7697 20.3068C49.3486 20.9022 49.1221 21.6132 49.1212 22.3425V24.6943H51.473V22.3425C51.473 22.0306 51.5969 21.7315 51.8174 21.511C52.038 21.2905 52.3371 21.1666 52.6489 21.1666C52.9608 21.1666 53.2599 21.2905 53.4804 21.511C53.701 21.7315 53.8248 22.0306 53.8248 22.3425V23.5184C53.8248 24.454 53.4532 25.3513 52.7916 26.0129C52.13 26.6745 51.2327 27.0462 50.2971 27.0462C49.3615 27.0462 48.4642 26.6745 47.8026 26.0129C47.141 25.3513 46.7693 24.454 46.7693 23.5184V18.6125C47.4566 18.3686 48.0515 17.9181 48.4726 17.3227C48.8937 16.7273 49.1202 16.0162 49.1212 15.287V12.9351C49.1212 11.9995 48.7495 11.1022 48.0879 10.4406C47.4263 9.77904 46.529 9.40736 45.5934 9.40736C44.6578 9.40736 43.7605 9.77904 43.0989 10.4406C42.4373 11.1022 42.0656 11.9995 42.0656 12.9351V14.111H44.4175V12.9351C44.4175 12.6233 44.5414 12.3242 44.7619 12.1036C44.9824 11.8831 45.2815 11.7592 45.5934 11.7592C45.9053 11.7592 46.2044 11.8831 46.4249 12.1036C46.6454 12.3242 46.7693 12.6233 46.7693 12.9351V15.287C46.769 15.5987 46.645 15.8976 46.4245 16.1181C46.2041 16.3385 45.9052 16.4625 45.5934 16.4629H39.7531C37.5603 16.4604 35.458 15.5883 33.9075 14.0377C32.357 12.4872 31.4848 10.385 31.4824 8.1922V2.35184H43.8295C45.856 2.35414 47.7988 3.16017 49.2318 4.5931C50.6647 6.02603 51.4707 7.96885 51.473 9.99532ZM6.78803 22.3425C6.78803 22.0306 6.91193 21.7315 7.13245 21.511C7.35298 21.2905 7.65208 21.1666 7.96396 21.1666C8.27583 21.1666 8.57493 21.2905 8.79546 21.511C9.01598 21.7315 9.13988 22.0306 9.13988 22.3425V24.6943H11.4917V22.3425C11.4908 21.6132 11.2642 20.9022 10.8432 20.3068C10.4221 19.7114 9.82713 19.2609 9.13988 19.017V9.99532C9.14217 7.96885 9.9482 6.02603 11.3811 4.5931C12.8141 3.16017 14.7569 2.35414 16.7834 2.35184H29.1305V8.1922C29.1281 10.385 28.2559 12.4872 26.7054 14.0377C25.1549 15.5883 23.0526 16.4604 20.8598 16.4629H15.0195C14.7077 16.4625 14.4088 16.3385 14.1884 16.1181C13.9679 15.8976 13.8439 15.5987 13.8436 15.287V12.9351C13.8436 12.6233 13.9674 12.3242 14.188 12.1036C14.4085 11.8831 14.7076 11.7592 15.0195 11.7592C15.3314 11.7592 15.6305 11.8831 15.851 12.1036C16.0715 12.3242 16.1954 12.6233 16.1954 12.9351V14.111H18.5472V12.9351C18.5472 11.9995 18.1756 11.1022 17.514 10.4406C16.8524 9.77904 15.9551 9.40736 15.0195 9.40736C14.0839 9.40736 13.1866 9.77904 12.525 10.4406C11.8634 11.1022 11.4917 11.9995 11.4917 12.9351V15.287C11.4927 16.0162 11.7192 16.7273 12.1403 17.3227C12.5613 17.9181 13.1563 18.3686 13.8436 18.6125V23.5184C13.8436 24.454 13.4719 25.3513 12.8103 26.0129C12.1487 26.6745 11.2514 27.0462 10.3158 27.0462C9.38018 27.0462 8.48288 26.6745 7.82129 26.0129C7.15971 25.3513 6.78803 24.454 6.78803 23.5184V22.3425ZM13.8436 31.7498C13.8436 32.6855 13.4719 33.5828 12.8103 34.2444C12.1487 34.9059 11.2514 35.2776 10.3158 35.2776C9.38018 35.2776 8.48288 34.9059 7.82129 34.2444C7.15971 33.5828 6.78803 32.6855 6.78803 31.7498V30.5739C6.78803 30.2621 6.91193 29.963 7.13245 29.7424C7.35298 29.5219 7.65208 29.398 7.96396 29.398C8.27583 29.398 8.57493 29.5219 8.79546 29.7424C9.01598 29.963 9.13988 30.2621 9.13988 30.5739V32.9258H11.4917V30.5739C11.4919 30.1457 11.4137 29.7211 11.2611 29.321C12.1986 29.1686 13.085 28.7902 13.8436 28.2186V31.7498ZM25.7653 47.3032L23.9133 44.062C25.1939 44.4533 26.5233 44.662 27.8623 44.682L25.7653 47.3032ZM26.7338 49.8571L29.1305 46.8613V58.796H25.7406L26.7338 49.8571ZM31.4824 58.796V46.8613L33.879 49.8571L34.8722 58.796H31.4824ZM34.8476 47.3032L32.7506 44.682C34.0895 44.662 35.419 44.4533 36.6996 44.062L34.8476 47.3032ZM32.5292 42.3331H28.0837C24.9307 42.3331 21.9069 41.0806 19.6774 38.8511C17.4479 36.6217 16.1954 33.5978 16.1954 30.4449V18.8147H20.8598C22.8129 18.8129 24.7277 18.273 26.3941 17.2545C28.0605 16.2359 29.4142 14.778 30.3064 13.0407C31.1987 14.778 32.5524 16.2359 34.2188 17.2545C35.8852 18.273 37.8 18.8129 39.7531 18.8147H44.4175V30.4449C44.4175 33.5978 43.165 36.6217 40.9355 38.8511C38.706 41.0806 35.6822 42.3331 32.5292 42.3331Z" fill="#CDAC69"/>
</svg>
