<svg width="78" height="77" viewBox="0 0 78 77" fill="none" xmlns="http://www.w3.org/2000/svg">
<path d="M51.0566 59.3857H27.6782C27.494 59.3857 27.312 59.4249 27.1441 59.5006C26.9762 59.5764 26.8264 59.6869 26.7045 59.825C26.5826 59.963 26.4915 60.1254 26.4372 60.3014C26.3829 60.4774 26.3666 60.6629 26.3894 60.8456L27.6882 71.236C27.7275 71.5501 27.8801 71.8391 28.1174 72.0486C28.3547 72.2581 28.6604 72.3738 28.977 72.3738H30.2758V76.2702H32.8734V72.3738H45.8614V76.2702H48.459V72.3738H49.7578C50.0744 72.3738 50.38 72.2581 50.6173 72.0486C50.8547 71.8391 51.0073 71.5501 51.0465 71.236L52.3453 60.8456C52.3682 60.6629 52.3519 60.4774 52.2976 60.3014C52.2432 60.1254 52.1521 59.963 52.0302 59.825C51.9084 59.6869 51.7585 59.5764 51.5907 59.5006C51.4228 59.4249 51.2408 59.3857 51.0566 59.3857ZM48.6113 69.7762H30.1235L29.1494 61.9833H49.5854L48.6113 69.7762Z" fill="#CDAC69"/>
<path d="M73.1362 46.3978H71.8374V43.3807L74.3728 42.3665C75.5333 41.9007 76.4839 41.0275 77.0463 39.9107C77.6087 38.7939 77.7442 37.5102 77.4274 36.3006L71.8374 15.0583V12.6289H69.2398V46.3978H65.3434V41.2026C65.3421 40.1259 65.0069 39.0761 64.3839 38.198C63.761 37.3199 62.8809 36.6566 61.8652 36.2996C62.3896 35.5176 62.6917 34.6078 62.7392 33.6675C62.7866 32.7271 62.5776 31.7915 62.1345 30.9607C61.6913 30.13 61.0308 29.4353 60.2234 28.9508C59.416 28.4664 58.4921 28.2105 57.5505 28.2105C56.609 28.2105 55.6851 28.4664 54.8777 28.9508C54.0703 29.4353 53.4098 30.13 52.9666 30.9607C52.5235 31.7915 52.3145 32.7271 52.3619 33.6675C52.4094 34.6078 52.7115 35.5176 53.2359 36.2996C52.2202 36.6566 51.3401 37.3199 50.7172 38.198C50.0942 39.0761 49.759 40.1259 49.7577 41.2026V46.3978H47.1601V41.2026C47.1589 40.1259 46.8236 39.0761 46.2007 38.198C45.5777 37.3199 44.6977 36.6566 43.6819 36.2996C44.2064 35.5176 44.5085 34.6078 44.5559 33.6675C44.6034 32.7271 44.3943 31.7915 43.9512 30.9607C43.5081 30.13 42.8475 29.4353 42.0401 28.9508C41.2327 28.4664 40.3089 28.2105 39.3673 28.2105C38.4257 28.2105 37.5019 28.4664 36.6945 28.9508C35.8871 29.4353 35.2265 30.13 34.7834 30.9607C34.3403 31.7915 34.1313 32.7271 34.1787 33.6675C34.2261 34.6078 34.5282 35.5176 35.0527 36.2996C34.0369 36.6566 33.1569 37.3199 32.5339 38.198C31.911 39.0761 31.5758 40.1259 31.5745 41.2026V46.3978H28.9769V41.2026C28.9756 40.1259 28.6404 39.0761 28.0174 38.198C27.3945 37.3199 26.5145 36.6566 25.4987 36.2996C26.0232 35.5176 26.3253 34.6078 26.3727 33.6675C26.4201 32.7271 26.2111 31.7915 25.768 30.9607C25.3248 30.13 24.6643 29.4353 23.8569 28.9508C23.0495 28.4664 22.1256 28.2105 21.1841 28.2105C20.2425 28.2105 19.3186 28.4664 18.5112 28.9508C17.7039 29.4353 17.0433 30.13 16.6002 30.9607C16.157 31.7915 15.948 32.7271 15.9954 33.6675C16.0429 34.6078 16.345 35.5176 16.8694 36.2996C15.8537 36.6566 14.9737 37.3199 14.3507 38.198C13.7277 39.0761 13.3925 40.1259 13.3912 41.2026V46.3978H5.59843V43.3807L8.13385 42.3665C9.29432 41.9007 10.245 41.0275 10.8074 39.9107C11.3698 38.7939 11.5053 37.5102 11.1885 36.3006L5.59843 15.0583V12.6289H3.00082V46.6212C2.24153 46.89 1.58421 47.3875 1.11931 48.0453C0.65441 48.703 0.404785 49.4887 0.404785 50.2942C0.404785 51.0997 0.65441 51.8853 1.11931 52.5431C1.58421 53.2009 2.24153 53.6984 3.00082 53.9672V76.2702H5.59843V54.1906H71.8374V76.2702H74.435V53.9672C75.3012 53.6605 76.0311 53.0576 76.4959 52.265C76.9606 51.4723 77.1303 50.5409 76.9749 49.6353C76.8195 48.7296 76.3491 47.908 75.6466 47.3156C74.9442 46.7232 74.0551 46.3982 73.1362 46.3978ZM74.9152 36.9617C75.0717 37.5585 75.0049 38.1919 74.7274 38.743C74.4499 39.2941 73.9808 39.7249 73.4081 39.9546L71.8374 40.583V25.2656L74.9152 36.9617ZM57.5505 30.8121C58.0643 30.8121 58.5665 30.9645 58.9937 31.2499C59.4209 31.5354 59.7538 31.941 59.9504 32.4157C60.147 32.8903 60.1985 33.4126 60.0982 33.9165C59.998 34.4204 59.7506 34.8833 59.3873 35.2465C59.0241 35.6098 58.5612 35.8572 58.0573 35.9574C57.5534 36.0577 57.0311 36.0062 56.5565 35.8096C56.0818 35.613 55.6761 35.2801 55.3907 34.8529C55.1053 34.4257 54.9529 33.9235 54.9529 33.4098C54.9538 32.7211 55.2277 32.0608 55.7147 31.5739C56.2016 31.0869 56.8619 30.813 57.5505 30.8121ZM52.3553 41.2026C52.3562 40.5139 52.6301 39.8537 53.1171 39.3667C53.604 38.8797 54.2643 38.6058 54.9529 38.605H56.2517V42.5014H58.8494V38.605H60.1482C60.8368 38.6058 61.4971 38.8797 61.984 39.3667C62.471 39.8537 62.7449 40.5139 62.7458 41.2026V46.3978H52.3553V41.2026ZM39.3673 30.8121C39.8811 30.8121 40.3833 30.9645 40.8105 31.2499C41.2376 31.5354 41.5706 31.941 41.7672 32.4157C41.9638 32.8903 42.0152 33.4126 41.915 33.9165C41.8148 34.4204 41.5674 34.8833 41.2041 35.2465C40.8408 35.6098 40.378 35.8572 39.8741 35.9574C39.3702 36.0577 38.8479 36.0062 38.3732 35.8096C37.8986 35.613 37.4929 35.2801 37.2075 34.8529C36.922 34.4257 36.7697 33.9235 36.7697 33.4098C36.7705 32.7211 37.0445 32.0608 37.5314 31.5739C38.0184 31.0869 38.6786 30.813 39.3673 30.8121ZM34.1721 41.2026C34.1729 40.5139 34.4468 39.8537 34.9338 39.3667C35.4208 38.8797 36.081 38.6058 36.7697 38.605H38.0685V42.5014H40.6661V38.605H41.9649C42.6536 38.6058 43.3138 38.8797 43.8008 39.3667C44.2878 39.8537 44.5617 40.5139 44.5625 41.2026V46.3978H34.1721V41.2026ZM21.1841 30.8121C21.6978 30.8121 22.2 30.9645 22.6272 31.2499C23.0544 31.5354 23.3873 31.941 23.5839 32.4157C23.7805 32.8903 23.832 33.4126 23.7318 33.9165C23.6315 34.4204 23.3841 34.8833 23.0208 35.2465C22.6576 35.6098 22.1947 35.8572 21.6908 35.9574C21.1869 36.0577 20.6647 36.0062 20.19 35.8096C19.7154 35.613 19.3097 35.2801 19.0242 34.8529C18.7388 34.4257 18.5865 33.9235 18.5865 33.4098C18.5873 32.7211 18.8612 32.0608 19.3482 31.5739C19.8352 31.0869 20.4954 30.813 21.1841 30.8121ZM15.9889 41.2026C15.9897 40.5139 16.2636 39.8537 16.7506 39.3667C17.2375 38.8797 17.8978 38.6058 18.5865 38.605H19.8853V42.5014H22.4829V38.605H23.7817C24.4703 38.6058 25.1306 38.8797 25.6176 39.3667C26.1045 39.8537 26.3785 40.5139 26.3793 41.2026V46.3978H15.9889V41.2026ZM8.67627 36.9617C8.83274 37.5585 8.76595 38.1919 8.48846 38.743C8.21096 39.2941 7.74183 39.7249 7.16917 39.9546L5.59843 40.583V25.2656L8.67627 36.9617ZM73.1362 51.593H4.29963C3.95516 51.593 3.62481 51.4562 3.38123 51.2126C3.13766 50.969 3.00082 50.6387 3.00082 50.2942C3.00082 49.9497 3.13766 49.6194 3.38123 49.3758C3.62481 49.1322 3.95516 48.9954 4.29963 48.9954H73.1362C73.4807 48.9954 73.811 49.1322 74.0546 49.3758C74.2981 49.6194 74.435 49.9497 74.435 50.2942C74.435 50.6387 74.2981 50.969 74.0546 51.2126C73.811 51.4562 73.4807 51.593 73.1362 51.593Z" fill="#CDAC69"/>
<path d="M30.2758 8.56367V11.3301H27.6782V13.9277H35.471V11.3301H32.8734V8.57991C33.9826 8.32956 35.0299 7.8076 36.0519 7.29653C36.7043 6.95148 37.3778 6.64825 38.0686 6.38866V16.5253H31.5746V19.1229H47.1603V16.5253H40.6662V6.38866C41.357 6.64825 42.0306 6.95148 42.683 7.29653C43.705 7.80712 44.7523 8.32956 45.8615 8.57991V11.3301H43.2639V13.9277H51.0567V11.3301H48.4591V8.56367C50.943 7.90664 52.1607 5.53356 52.2183 5.417L49.8951 4.25522C49.8856 4.27405 48.9063 6.13491 47.1603 6.13491C46.1681 6.13491 45.0395 5.57058 43.8447 4.97329C42.8227 4.4627 41.7754 3.94026 40.6662 3.68991V0.939697H38.0686V3.68991C36.9595 3.94026 35.9121 4.46221 34.8901 4.97329C33.6954 5.57058 32.5668 6.13491 31.5746 6.13491C29.8313 6.13491 28.8458 4.26674 28.8398 4.25522L26.5166 5.417C26.5742 5.53421 27.7919 7.90664 30.2758 8.56367Z" fill="#CDAC69"/>
<path d="M66.642 21.7205H10.7935V24.3181H66.642V21.7205Z" fill="#CDAC69"/>
</svg>
