<svg width="77" height="76" viewBox="0 0 77 76" fill="none" xmlns="http://www.w3.org/2000/svg">
<path d="M29.9881 27.9445C29.5248 28.8711 28.5934 29.4475 27.5562 29.4475C26.519 29.4475 25.5876 28.8711 25.1243 27.9445L24.9966 27.688L22.8213 28.7763L22.949 29.0316C23.8269 30.7887 25.5924 31.8794 27.5562 31.8794C29.52 31.8794 31.2855 30.7887 32.1635 29.0316L32.2911 28.775L30.1158 27.6868L29.9881 27.9445Z" fill="#CDAC69"/>
<path d="M73.0766 60.3257L68.8986 56.8457V46.4712C68.8986 45.13 67.8079 44.0392 66.4667 44.0392H64.0348C62.6936 44.0392 61.6029 45.13 61.6029 46.4712V56.8457L57.4249 60.3257C56.7087 60.9228 56.1116 61.6341 55.6265 62.416L54.3072 60.6577V48.5942C60.4927 43.4896 64.0348 36.0115 64.0348 27.9704V25.5774C65.4465 25.074 66.4667 23.7365 66.4667 22.1533V17.2895C66.4667 15.2783 64.83 13.6416 62.8188 13.6416C62.3908 13.6416 61.9847 13.7292 61.6029 13.8653V8.77657C61.6029 6.76538 59.9662 5.12871 57.955 5.12871C55.9438 5.12871 54.3072 6.76538 54.3072 8.77657V13.8641C53.9254 13.7279 53.5192 13.6404 53.0912 13.6404C51.08 13.6404 49.4433 15.2771 49.4433 17.2883C49.4433 19.2994 51.08 20.9361 53.0912 20.9361C53.5192 20.9361 53.9254 20.8486 54.3072 20.7124V20.9361C54.3072 30.9933 46.125 39.1754 36.0678 39.1754H29.7789L29.2913 36.6C33.0839 35.9617 36.1213 33.0957 37.0102 29.3931C41.2612 28.9213 44.5795 25.3111 44.5795 20.9361C44.5795 19.1888 44.0409 17.495 43.0438 16.0723C44.0409 14.6496 44.5795 12.9558 44.5795 11.2085C44.5795 6.10634 40.0452 2.00249 34.8251 2.79286C33.2298 1.17807 31.063 0.264893 28.7721 0.264893C27.0248 0.264893 25.3322 0.804776 23.9083 1.80064C22.4844 0.804776 20.7918 0.264893 19.0445 0.264893C14.7376 0.264893 11.1675 3.48109 10.6082 7.63722C6.45328 8.19535 3.23708 11.7654 3.23708 16.0723C3.23708 18.7048 4.45547 21.1635 6.48976 22.7625C5.95474 23.6805 5.66899 24.7238 5.66899 25.7999C5.66899 28.7717 7.81272 31.2523 10.6349 31.7776C11.1602 34.5998 13.6408 36.7435 16.6126 36.7435C17.0236 36.7435 17.4297 36.6888 17.8285 36.6073V39.314C8.19818 40.5726 0.805176 48.852 0.805176 58.6745V62.2786C0.805176 69.6533 6.80591 75.6541 14.1807 75.6541H29.9881C30.6897 75.6541 31.3536 75.4984 31.9567 75.2297C32.4723 75.4984 33.0438 75.6541 33.6359 75.6541H40.9317C41.4059 75.6541 41.8558 75.5568 42.2716 75.3914C42.7167 75.5592 43.1873 75.6541 43.6676 75.6541H57.651C58.4305 75.6541 59.154 75.4194 59.7668 75.0278C60.7833 75.4327 61.8765 75.6541 62.9757 75.6541H67.5258C72.3057 75.6541 76.1943 71.7654 76.1943 66.9855C76.1943 64.4053 75.0574 61.977 73.0766 60.3257ZM66.4667 46.4712V51.335H64.0348V46.4712H66.4667ZM58.9837 62.1934L64.0348 57.9838V53.7669H66.4667V57.9838L71.5178 62.1934C72.6024 63.0969 73.332 64.3238 73.6214 65.6747C73.2092 65.5008 72.8638 65.2516 72.465 64.9537C71.598 64.3031 70.5183 63.4945 68.4913 63.4945C66.4643 63.4945 65.3857 64.3043 64.5187 64.9537C63.7649 65.5179 63.2213 65.9264 62.0054 65.9264C60.7906 65.9264 60.2471 65.5191 59.4944 64.9537C58.991 64.5755 58.4074 64.1402 57.606 63.8435C57.9672 63.2234 58.4232 62.6604 58.9837 62.1934ZM55.3395 66.0857C54.9164 65.9884 54.4446 65.9264 53.8998 65.9264C51.8728 65.9264 50.7943 66.7362 49.9273 67.3856C49.1734 67.9498 48.6299 68.3583 47.4139 68.3583C46.2357 68.3583 45.686 67.9717 44.9686 67.4342L49.4433 61.4675V58.6307H51.8753V61.4675L55.3395 66.0857ZM39.7157 54.764L42.5294 54.201C44.0627 53.8946 45.562 53.4483 47.0114 52.8841V60.6577L44.5795 63.9006V61.0626C44.5795 59.7214 43.4888 58.6307 42.1476 58.6307H39.7157V54.764ZM51.8753 56.1988H49.4433V53.7669H51.8753V56.1988ZM51.8753 51.335H49.4433V46.4712H51.8753V51.335ZM62.8188 16.0723C63.49 16.0723 64.0348 16.6183 64.0348 17.2883V22.1521C64.0348 22.8221 63.49 23.368 62.8188 23.368C62.1476 23.368 61.6029 22.8221 61.6029 22.1521V17.2883C61.6029 16.6183 62.1476 16.0723 62.8188 16.0723ZM57.955 7.56062C58.6262 7.56062 59.171 8.10658 59.171 8.77657V13.6404H56.7391V8.77657C56.7391 8.10658 57.2838 7.56062 57.955 7.56062ZM53.0912 18.5042C52.42 18.5042 51.8753 17.9582 51.8753 17.2883C51.8753 16.6183 52.42 16.0723 53.0912 16.0723C53.7624 16.0723 54.3072 16.6183 54.3072 17.2883C54.3072 17.9582 53.7624 18.5042 53.0912 18.5042ZM56.7391 16.0723H59.171V24.584C59.171 25.254 58.6262 25.7999 57.955 25.7999C57.2838 25.7999 56.7391 25.254 56.7391 24.584V16.0723ZM55.6836 27.4159C56.3086 27.9181 57.0917 28.2318 57.955 28.2318C59.6367 28.2318 61.0423 27.0828 61.4618 25.5324C61.5068 25.5507 61.5567 25.5592 61.6029 25.5762V27.9704C61.6029 34.6727 58.895 40.9446 54.1114 45.5191C53.7405 44.6497 52.8784 44.0392 51.8753 44.0392H49.4433C48.1021 44.0392 47.0114 45.13 47.0114 46.4712V50.2479C45.4234 50.941 43.7624 51.4736 42.0528 51.8165L39.7157 52.2834V48.9031H37.2838V58.6307H32.42V41.6073H36.0678C45.2021 41.6073 52.9575 35.6467 55.6836 27.4159ZM29.9881 65.9264H29.8288C29.5783 65.1263 29.0384 64.46 28.3392 64.0247L26.3937 50.406L27.668 48.4945L29.9881 49.6545V65.9264ZM23.4134 65.4133L23.1568 65.9264H21.6624L23.7466 51.335H24.0688L25.8198 63.5918C24.7899 63.8021 23.8986 64.4442 23.4134 65.4133ZM18.6019 41.6681L21.8558 44.922L17.8285 46.9356V41.7618C18.0839 41.7229 18.3429 41.6949 18.6019 41.6681ZM29.2755 41.6073H29.9881V46.9356L25.9608 44.922L29.2755 41.6073ZM24.4737 48.9031H23.3429L22.3397 47.3989L23.9083 46.6146L25.4769 47.3989L24.4737 48.9031ZM17.8285 49.6545L20.1486 48.4945L21.4229 50.406L19.205 65.9264H17.8285V49.6545ZM34.8519 27.1582C34.8519 31.1027 31.643 34.3116 27.6984 34.3116C26.9275 34.3116 26.1663 34.1876 25.4368 33.9444L23.0778 33.1577L22.3081 35.4643L24.6671 36.2511C25.3699 36.4845 26.097 36.6061 26.8302 36.673L27.4577 39.9853L23.9083 43.5358L20.2604 39.888V25.0485L16.3852 23.1115C15.776 22.8063 15.3966 22.1922 15.3966 21.51C15.3966 20.5239 16.1992 19.7202 17.1865 19.7202H17.8285C17.8285 22.4026 20.01 24.584 22.6924 24.584C25.3747 24.584 27.5562 22.4026 27.5562 19.7202H29.9881C29.9881 22.4026 32.1695 24.584 34.8519 24.584V27.1582ZM33.6359 12.4244C34.3071 12.4244 34.8519 12.9704 34.8519 13.6404V14.8563C33.0596 14.8563 31.508 15.8413 30.6641 17.2883H26.8789C26.035 15.8413 24.4835 14.8563 22.6911 14.8563C21.8242 14.8563 21.0216 15.1032 20.3164 15.502C20.5948 13.762 22.0917 12.4244 23.9083 12.4244H33.6359ZM34.8519 22.1521C33.5107 22.1521 32.42 21.0614 32.42 19.7202C32.42 18.379 33.5107 17.2883 34.8519 17.2883C36.1931 17.2883 37.2838 18.379 37.2838 19.7202C37.2838 21.0614 36.1931 22.1521 34.8519 22.1521ZM22.6924 17.2883C24.0335 17.2883 25.1243 18.379 25.1243 19.7202C25.1243 21.0614 24.0335 22.1521 22.6924 22.1521C21.3512 22.1521 20.2604 21.0614 20.2604 19.7202C20.2604 18.379 21.3512 17.2883 22.6924 17.2883ZM16.6126 34.3116C14.6014 34.3116 12.9647 32.6749 12.9647 30.6637V29.4478H11.7488C9.73758 29.4478 8.1009 27.8111 8.1009 25.7999C8.1009 24.8722 8.45961 23.9833 9.10893 23.2975L10.1911 22.1569L8.81467 21.397C6.874 20.3245 5.66899 18.2841 5.66899 16.0723C5.66899 12.7199 8.39638 9.99253 11.7488 9.99253H12.9647V8.77657C12.9647 5.42419 15.6921 2.6968 19.0445 2.6968C20.5365 2.6968 21.9749 3.25006 23.0973 4.25444L23.9083 4.98158L24.7193 4.25444C25.8417 3.25006 27.2801 2.6968 28.7721 2.6968C30.5839 2.6968 32.2887 3.4969 33.4499 4.89281L33.9314 5.47282L34.6659 5.29894C38.6724 4.35658 42.1476 7.40376 42.1476 11.2085C42.1476 12.7017 41.5944 14.1414 40.59 15.26L39.8604 16.0723L40.59 16.8846C41.5944 18.0032 42.1476 19.4429 42.1476 20.9361C42.1476 23.8714 40.055 26.3277 37.2838 26.8931V23.9079C38.7308 23.064 39.7157 21.5125 39.7157 19.7202C39.7157 17.9278 38.7308 16.3763 37.2838 15.5324V13.6404C37.2838 11.6292 35.6471 9.99253 33.6359 9.99253H28.7721C28.1009 9.99253 27.5562 9.44656 27.5562 8.77657C27.5562 8.10658 28.1009 7.56062 28.7721 7.56062H29.9881V5.12871H28.7721C26.7609 5.12871 25.1243 6.76538 25.1243 8.77657C25.1243 9.20459 25.2118 9.61072 25.348 9.99253H23.9083C20.5559 9.99253 17.8285 12.7199 17.8285 16.0723V17.2883H17.1865C14.8592 17.2883 12.9647 19.1827 12.9647 21.51C12.9647 23.12 13.8584 24.567 15.2981 25.2856L17.8285 26.5514V34.0757C17.4382 34.2143 17.0333 34.3116 16.6126 34.3116ZM3.23708 62.2786V58.6745C3.23708 51.0358 8.34652 44.4624 15.3966 42.3138V65.9264H14.1807C12.1695 65.9264 10.5328 64.2897 10.5328 62.2786V53.7669H8.1009V62.2786C8.1009 65.6309 10.8283 68.3583 14.1807 68.3583H22.6924V73.2221H14.1807C8.14589 73.2221 3.23708 68.3121 3.23708 62.2786ZM25.1243 73.2221V67.4293L25.5888 66.5004C25.7651 66.1465 26.1213 65.9264 26.5177 65.9264C27.0892 65.9264 27.5562 66.3921 27.5562 66.9648V68.3583H29.9881C31.3293 68.3583 32.42 69.449 32.42 70.7902C32.42 72.1314 31.3293 73.2221 29.9881 73.2221H25.1243ZM34.1758 73.2221C34.5941 72.5035 34.8519 71.6803 34.8519 70.7902C34.8519 68.9979 33.867 67.4464 32.42 66.6025V61.0626H42.1476V63.4945H37.2838V65.9264H42.1476V68.3583H39.7157V70.7902H42.1476V72.0062C42.1476 72.6762 41.6029 73.2221 40.9317 73.2221H34.1758ZM57.651 73.2221H44.3558C44.492 72.8403 44.5795 72.4342 44.5795 72.0062V70.0947C45.2799 70.4826 46.1663 70.7902 47.4139 70.7902C49.4409 70.7902 50.5195 69.9804 51.3864 69.3311C52.1403 68.7669 52.6839 68.3583 53.8998 68.3583C55.117 68.3583 55.6605 68.7669 56.4144 69.3311C56.981 69.7567 57.6875 70.2576 58.6846 70.547L58.867 70.7902C59.0628 71.0529 59.171 71.3763 59.171 71.7022C59.171 72.54 58.4888 73.2221 57.651 73.2221ZM67.5258 73.2221H62.9757C62.4224 73.2221 61.8862 73.1443 61.3646 73.0057C61.5093 72.5959 61.6029 72.1618 61.6029 71.7022C61.6029 70.8535 61.3232 70.0108 60.8125 69.3311L59.7741 67.9461C60.3711 68.1881 61.0873 68.3583 62.0054 68.3583C64.0324 68.3583 65.1109 67.5485 65.9779 66.8992C66.7318 66.335 67.2753 65.9264 68.4913 65.9264C69.7084 65.9264 70.252 66.3338 71.0059 66.8992C71.6576 67.388 72.431 67.9668 73.6372 68.2234C73.0608 71.0711 70.5401 73.2221 67.5258 73.2221Z" fill="#CDAC69"/>
</svg>
