<svg width="125" height="126" viewBox="0 0 125 126" fill="none" xmlns="http://www.w3.org/2000/svg">
<rect x="1.99609" y="2.11318" width="121.01" height="121.01" stroke="#FDE2B2" stroke-width="2"/>
<circle cx="62.0856" cy="63.0339" r="60.0895" stroke="#FDE2B2" stroke-width="2"/>
<circle r="9.96084" transform="matrix(-1 0 0 1 112.992 12.074)" stroke="#FDE2B2" stroke-width="2"/>
<circle r="9.96084" transform="matrix(-1 0 0 1 11.9571 12.074)" stroke="#FDE2B2" stroke-width="2"/>
<circle r="9.96084" transform="matrix(-1 0 0 1 112.992 113.163)" stroke="#FDE2B2" stroke-width="2"/>
<circle r="9.96084" transform="matrix(-1 0 0 1 11.9571 113.163)" stroke="#FDE2B2" stroke-width="2"/>
<path d="M1.6709 1.78869L123.175 123.396" stroke="#FDE2B2" stroke-width="2"/>
<path d="M123.175 1.78869L1.67103 123.396" stroke="#FDE2B2" stroke-width="2"/>
<path d="M80.2115 32.2535C71.0489 32.2535 65.1675 38.5995 62.0853 44.3148C59.0031 38.5993 53.1217 32.2535 43.9591 32.2535C32.3337 32.2535 23.416 41.6861 23.416 54.1965C23.416 57.4607 24.0696 60.4743 25.273 63.3702H42.5585L46.4638 55.5594C47.2339 54.0238 49.7474 54.0238 50.5174 55.5594L57.5537 69.6322L60.0585 64.6227C60.8285 63.0871 63.342 63.0871 64.1121 64.6227L66.6168 69.6322L73.6531 55.5596C74.4232 54.024 76.9367 54.024 77.7068 55.5596L81.6121 63.3702H98.8975C100.101 60.4743 100.755 57.4607 100.755 54.1965C100.755 41.6861 91.8369 32.2535 80.2115 32.2535Z" fill="#FDE2B2"/>
<path d="M80.2108 67.9014C79.3523 67.9014 78.5691 67.4169 78.184 66.6491L75.6793 61.6396L68.643 75.7122C68.258 76.48 67.4748 76.9646 66.6162 76.9646C65.7576 76.9646 64.9744 76.48 64.5894 75.7122L62.0846 70.7027L59.5799 75.7122C58.8098 77.2478 56.2963 77.2478 55.5263 75.7122L48.49 61.6396L45.9852 66.6491C45.6002 67.4169 44.817 67.9014 43.9584 67.9014H27.6504C32.3138 75.2386 40.7124 82.208 51.2181 91.0748C54.1675 93.5639 57.3052 96.2126 60.5998 99.0692C61.0268 99.4387 61.5556 99.6223 62.0845 99.6223C62.6133 99.6223 63.1421 99.4387 63.5692 99.0692C66.8639 96.2126 70.0014 93.5641 72.9508 91.0748C83.4566 82.208 91.8551 75.2386 96.5186 67.9014H80.2108Z" fill="#FDE2B2"/>
</svg>
