<svg width="124" height="126" viewBox="0 0 124 126" fill="none" xmlns="http://www.w3.org/2000/svg">
<rect x="1.58105" y="2.11316" width="121.01" height="121.01" stroke="#FDE2B2" stroke-width="2"/>
<circle cx="61.6706" cy="63.0339" r="60.0895" stroke="#FDE2B2" stroke-width="2"/>
<circle r="9.96084" transform="matrix(-1 0 0 1 112.577 12.074)" stroke="#FDE2B2" stroke-width="2"/>
<circle r="9.96084" transform="matrix(-1 0 0 1 11.5421 12.074)" stroke="#FDE2B2" stroke-width="2"/>
<circle r="9.96084" transform="matrix(-1 0 0 1 112.577 113.163)" stroke="#FDE2B2" stroke-width="2"/>
<circle r="9.96084" transform="matrix(-1 0 0 1 11.5421 113.163)" stroke="#FDE2B2" stroke-width="2"/>
<path d="M1.25586 1.7887L122.76 123.396" stroke="#FDE2B2" stroke-width="2"/>
<path d="M122.76 1.7887L1.25599 123.396" stroke="#FDE2B2" stroke-width="2"/>
<path d="M101.367 68.4205H92.582C91.2764 68.4205 89.9939 68.9507 89.0693 69.8753L83.8965 75.0481H101.191C101.337 73.4905 101.437 71.8138 101.437 70.0773C101.437 69.4975 101.397 68.9673 101.367 68.4205Z" fill="#FDE2B2"/>
<path d="M46.9805 68.4205L52.5047 75.0483H70.8368L76.3611 68.4205H46.9805Z" fill="#FDE2B2"/>
<path d="M34.2715 69.8753C33.347 68.9507 32.0645 68.4205 30.7589 68.4205H21.9739C21.9441 68.9673 21.9043 69.4975 21.9043 70.0775C21.9043 71.814 22.0037 73.4907 22.1496 75.0483H39.4445L34.2715 69.8753Z" fill="#FDE2B2"/>
<path d="M78.3655 77.338C78.1103 76.7183 78.2529 76.0058 78.7234 75.5319L86.723 67.5322C88.2905 65.9681 90.3683 65.1065 92.5819 65.1065H101.006C100.124 60.5003 97.8442 57.4051 93.9173 55.3539C89.3509 52.9646 79.1012 51.8512 61.6703 51.8512C44.2394 51.8512 33.9898 52.9646 29.4233 55.3539C25.4964 57.4051 23.2165 60.5003 22.335 65.1065H30.7587C32.9724 65.1065 35.0502 65.9681 36.6175 67.5322L44.6172 75.5319C45.0911 76.0058 45.2335 76.7182 44.9751 77.338C44.7166 77.9578 44.1137 78.362 43.4444 78.362H22.5605C23.0278 81.4736 23.5778 83.6111 23.6176 83.7602C23.8097 84.4859 24.4659 84.9897 25.2182 84.9897H39.7394L46.0192 88.1279C46.2479 88.244 46.5031 88.3036 46.7582 88.3036H76.5827C76.8379 88.3036 77.093 88.244 77.3251 88.1279L83.6048 84.9897H98.1227C98.875 84.9897 99.5311 84.4859 99.7233 83.7602C99.7631 83.6111 100.313 81.4736 100.78 78.362H79.8965C79.2271 78.362 78.6207 77.9576 78.3655 77.338ZM72.8845 77.7655C72.5696 78.1432 72.1023 78.362 71.6119 78.362H51.7289C51.2385 78.362 50.7713 78.1432 50.4564 77.7655L42.1719 67.8239C41.7576 67.3301 41.6715 66.6409 41.9432 66.061C42.2183 65.4778 42.8014 65.1067 43.4444 65.1067H79.8966C80.5396 65.1067 81.1227 65.4778 81.3978 66.061C81.6695 66.6409 81.5834 67.3303 81.1692 67.8239L72.8845 77.7655Z" fill="#FDE2B2"/>
<path d="M94.6729 56.1624C92.7873 51.8279 86.4778 37.5419 84.284 35.6762C81.5501 33.3532 73.7194 31.968 63.3273 31.968H60.0135C49.6214 31.968 41.7907 33.3531 39.0568 35.6729C36.863 37.5387 30.5501 51.8246 28.6679 56.1591C28.3068 57.0009 28.6911 57.9752 29.5296 58.3396C30.3647 58.7042 31.3456 58.323 31.71 57.4814C35.4513 48.8687 40.0278 39.2983 41.2042 38.2015C42.4799 37.1179 47.8782 35.282 60.0135 35.282H63.3273C75.4626 35.282 80.8609 37.1179 82.13 38.1948C83.313 39.2983 87.8894 48.8653 91.6308 57.4814C91.9025 58.1077 92.5156 58.4788 93.1518 58.4788C93.3706 58.4788 93.5992 58.4357 93.8112 58.3429C94.6496 57.9784 95.034 57.0008 94.6729 56.1624Z" fill="#FDE2B2"/>
<path d="M43.444 83.3326C42.5858 83.3326 41.9063 83.992 41.8203 84.8271L28.5317 83.4982V83.3326C28.5317 82.418 27.7894 81.6757 26.8747 81.6757C25.9601 81.6757 25.2178 82.418 25.2178 83.3326V89.9604C25.2178 92.701 27.4479 94.9311 30.1885 94.9311H40.13C42.8706 94.9311 45.1008 92.701 45.1008 89.9604V84.9896C45.1008 84.075 44.3586 83.3326 43.444 83.3326Z" fill="#FDE2B2"/>
<path d="M96.4655 81.6757C95.5509 81.6757 94.8085 82.418 94.8085 83.3326V83.4984L81.52 84.8273C81.4337 83.9922 80.7545 83.3328 79.8962 83.3328C78.9816 83.3328 78.2393 84.0751 78.2393 84.9898V89.9605C78.2393 92.7011 80.4694 94.9313 83.21 94.9313H93.1515C95.8921 94.9313 98.1223 92.7011 98.1223 89.9605V83.3326C98.1224 82.418 97.3801 81.6757 96.4655 81.6757Z" fill="#FDE2B2"/>
</svg>
