<svg width="125" height="126" viewBox="0 0 125 126" fill="none" xmlns="http://www.w3.org/2000/svg">
<rect x="1.99609" y="2.11316" width="121.01" height="121.01" stroke="#FDE2B2" stroke-width="2"/>
<circle cx="62.0856" cy="63.0339" r="60.0895" stroke="#FDE2B2" stroke-width="2"/>
<circle r="9.96084" transform="matrix(-1 0 0 1 112.992 12.074)" stroke="#FDE2B2" stroke-width="2"/>
<circle r="9.96084" transform="matrix(-1 0 0 1 11.9571 12.074)" stroke="#FDE2B2" stroke-width="2"/>
<circle r="9.96084" transform="matrix(-1 0 0 1 112.992 113.163)" stroke="#FDE2B2" stroke-width="2"/>
<circle r="9.96084" transform="matrix(-1 0 0 1 11.9571 113.163)" stroke="#FDE2B2" stroke-width="2"/>
<path d="M1.6709 1.7887L123.175 123.396" stroke="#FDE2B2" stroke-width="2"/>
<path d="M123.175 1.7887L1.67103 123.396" stroke="#FDE2B2" stroke-width="2"/>
<path d="M97.6589 63.3655L69.6887 26.4904C68.0384 24.3207 64.9422 23.9187 62.7968 25.542C60.6379 27.1842 60.2139 30.2735 61.8508 32.4342L89.8261 69.3077C91.4649 71.468 94.5531 71.8918 96.7135 70.253C98.8797 68.6097 99.3022 65.5314 97.6589 63.3655Z" fill="#FDE2B2"/>
<path d="M58.8305 36.5866L58.4186 37.7763C55.5196 46.1385 50.2211 53.7334 43.6623 59.5784L58.8808 79.6389C66.2757 74.8984 74.9202 71.7145 83.7548 71.1737L85.0138 71.0978L58.8305 36.5866Z" fill="#FDE2B2"/>
<path d="M39.9268 62.7882L26.217 73.1866C22.9775 75.6441 22.3309 80.2671 24.7988 83.52L30.7409 91.3528C33.1985 94.5923 37.8214 95.2388 41.0744 92.7711L54.7832 82.3713L39.9268 62.7882ZM39.0488 81.9674C37.967 82.7881 36.4257 82.5766 35.605 81.4948C34.7844 80.413 34.9959 78.8717 36.0777 78.051L39.9941 75.08C41.0759 74.2593 42.6171 74.4708 43.4378 75.5526C44.2585 76.6344 44.047 78.1757 42.9652 78.9964L39.0488 81.9674Z" fill="#FDE2B2"/>
<path d="M63.1196 97.1171L66.8871 94.2589C70.1402 91.7915 70.7655 87.1656 68.3052 83.9281L66.1825 81.1279C64.6971 81.8548 63.262 82.6692 61.8538 83.555L64.3885 86.9014C65.2079 87.9758 65.0037 89.5132 63.9162 90.3427L60.0864 93.2481L55.7955 87.774L47.9624 93.7164L57.5423 105.94C59.1685 108.089 62.263 108.525 64.4277 106.882C66.5887 105.243 67.0127 102.154 65.3734 99.9925L63.1196 97.1171Z" fill="#FDE2B2"/>
<path d="M82.8797 26.1737C81.5336 25.989 80.2948 26.9287 80.1101 28.2748L79.4416 33.1455C79.2568 34.4916 80.1966 35.7304 81.5427 35.9151C82.8888 36.0999 84.1275 35.1601 84.3123 33.814L84.9808 28.9433C85.1655 27.5972 84.2258 26.3585 82.8797 26.1737Z" fill="#FDE2B2"/>
<path d="M99.6888 48.3304L94.8182 47.6619C93.4721 47.4771 92.2333 48.4169 92.0486 49.763C91.8638 51.1091 92.8036 52.3478 94.1496 52.5326L99.0203 53.2011C100.366 53.3858 101.605 52.4461 101.79 51.1C101.975 49.7539 101.035 48.5152 99.6888 48.3304Z" fill="#FDE2B2"/>
<path d="M98.4475 33.9995C97.6268 32.9177 96.0856 32.7062 95.0038 33.5269L89.4646 37.729C88.3828 38.5497 88.1712 40.091 88.9919 41.1728C89.8126 42.2546 91.3538 42.4663 92.4357 41.6454L97.9749 37.4433C99.0567 36.6226 99.2682 35.0813 98.4475 33.9995Z" fill="#FDE2B2"/>
</svg>
