<svg width="124" height="126" viewBox="0 0 124 126" fill="none" xmlns="http://www.w3.org/2000/svg">
<rect x="1.38672" y="2.11316" width="121.01" height="121.01" stroke="#FDE2B2" stroke-width="2"/>
<circle cx="61.4763" cy="63.0339" r="60.0895" stroke="#FDE2B2" stroke-width="2"/>
<circle r="9.96084" transform="matrix(-1 0 0 1 112.383 12.074)" stroke="#FDE2B2" stroke-width="2"/>
<circle r="9.96084" transform="matrix(-1 0 0 1 11.3478 12.074)" stroke="#FDE2B2" stroke-width="2"/>
<circle r="9.96084" transform="matrix(-1 0 0 1 112.383 113.163)" stroke="#FDE2B2" stroke-width="2"/>
<circle r="9.96084" transform="matrix(-1 0 0 1 11.3478 113.163)" stroke="#FDE2B2" stroke-width="2"/>
<path d="M1.06152 1.7887L122.565 123.396" stroke="#FDE2B2" stroke-width="2"/>
<path d="M122.565 1.7887L1.06165 123.396" stroke="#FDE2B2" stroke-width="2"/>
<path d="M89.668 94.3703H41.6083L80.176 79.9358C80.7408 79.7245 81.1776 79.2661 81.3615 78.6918L87.6296 59.1222L67.9427 39.4354L48.3733 45.7036C47.799 45.8876 47.3406 46.3244 47.1291 46.8891L29.0298 95.2496L29.3306 94.9487C28.9749 95.3051 28.7549 95.7969 28.7549 96.3402C28.7549 97.4282 29.6369 98.3102 30.7248 98.3102H89.668C90.7559 98.3102 91.6379 97.4282 91.6379 96.3402C91.6379 95.2523 90.7559 94.3703 89.668 94.3703ZM30.7248 94.3703C30.1815 94.3703 29.6897 94.5903 29.3332 94.9461L53.6586 70.6208C51.6477 67.3683 52.0209 63.007 54.889 60.1388C58.2077 56.8202 63.6076 56.8202 66.9262 60.1388C70.2527 63.4654 70.253 68.8494 66.9262 72.1761C64.1053 74.997 59.752 75.4393 56.4464 73.4045L35.4806 94.3703H30.7248Z" fill="#FDE2B2"/>
<path d="M95.4176 46.767L80.2979 31.6474C79.9285 31.2779 79.4275 31.0703 78.9049 31.0703C78.3824 31.0703 77.8814 31.2779 77.5121 31.6474L71.6191 37.5403L89.5248 55.4459L95.4177 49.5531C95.7871 49.1837 95.9947 48.6827 95.9947 48.1602C95.9946 47.6376 95.7871 47.1364 95.4176 46.767Z" fill="#FDE2B2"/>
</svg>
