<svg width="124" height="126" viewBox="0 0 124 126" fill="none" xmlns="http://www.w3.org/2000/svg">
<rect x="1.58105" y="2.11316" width="121.01" height="121.01" stroke="#FDE2B2" stroke-width="2"/>
<circle cx="61.6706" cy="63.0339" r="60.0895" stroke="#FDE2B2" stroke-width="2"/>
<circle r="9.96084" transform="matrix(-1 0 0 1 112.577 12.074)" stroke="#FDE2B2" stroke-width="2"/>
<circle r="9.96084" transform="matrix(-1 0 0 1 11.5421 12.074)" stroke="#FDE2B2" stroke-width="2"/>
<circle r="9.96084" transform="matrix(-1 0 0 1 112.577 113.163)" stroke="#FDE2B2" stroke-width="2"/>
<circle r="9.96084" transform="matrix(-1 0 0 1 11.5421 113.163)" stroke="#FDE2B2" stroke-width="2"/>
<path d="M1.25586 1.7887L122.76 123.396" stroke="#FDE2B2" stroke-width="2"/>
<path d="M122.76 1.7887L1.25599 123.396" stroke="#FDE2B2" stroke-width="2"/>
<path d="M81.3458 64.5169C76.704 53.7625 63.7194 35.1563 69.8836 22.621C70.1966 21.9844 69.5905 21.2872 68.9217 21.5236C63.5643 23.4176 49.2705 30.1561 53.7047 47.0859C53.7047 47.0859 49.5975 42.2207 45.9449 40.689C45.4038 40.4621 44.8173 40.8929 44.8615 41.478C45.6368 51.7138 38.3578 57.1959 34.1474 65.8406C30.373 73.5901 31.9891 81.154 35.8642 87.8986C38.7415 92.9067 43.0578 96.7264 48.0583 99.0112C47.7459 98.7163 47.4437 98.4068 47.1537 98.0815C44.3192 94.9019 42.9777 90.6057 43.4733 86.2946C43.9683 81.989 47.0273 77.9753 49.9854 74.0936C53.5375 69.4329 56.8926 65.0304 55.2278 61.193C54.8342 60.2857 55.0527 59.229 55.7738 58.5523C56.4947 57.8756 57.5631 57.7248 58.4434 58.1752C58.5959 58.2534 62.2133 60.1387 64.9312 64.4676C66.7492 67.3635 68.433 71.8111 67.818 77.9615C67.8639 77.9526 67.9104 77.945 67.9573 77.9389C68.9659 77.806 69.9439 78.3372 70.3803 79.2556C73.119 85.0188 72.8891 91.907 69.7949 96.8044C68.8926 98.2324 67.7854 99.4295 66.51 100.38C81.6731 95.7013 87.2227 78.1332 81.3458 64.5169Z" fill="#FDE2B2"/>
<path d="M60.1014 65.7122C59.2273 69.696 56.3534 73.4669 53.7112 76.9339C51.1369 80.3118 48.4749 83.8047 48.1272 86.83C47.784 89.8155 48.7036 92.7802 50.6503 94.9638C52.5742 97.1218 55.257 98.3103 58.2047 98.3103C62.4178 98.3103 64.6795 96.1304 65.8349 94.3016C67.3541 91.8972 67.8938 88.6884 67.4331 85.5308C66.2824 86.3052 65.0705 86.6742 64.2369 86.7708C63.4379 86.8634 62.6475 86.5396 62.1431 85.913C61.6387 85.2866 61.4909 84.445 61.7518 83.6841C64.8623 74.6107 62.5949 68.9161 60.1014 65.7122Z" fill="#FDE2B2"/>
</svg>
