<svg width="125" height="126" viewBox="0 0 125 126" fill="none" xmlns="http://www.w3.org/2000/svg">
<rect x="2.01758" y="2.11318" width="121.01" height="121.01" stroke="#FDE2B2" stroke-width="2"/>
<circle cx="62.1071" cy="63.0339" r="60.0895" stroke="#FDE2B2" stroke-width="2"/>
<circle r="9.96084" transform="matrix(-1 0 0 1 113.014 12.074)" stroke="#FDE2B2" stroke-width="2"/>
<circle r="9.96084" transform="matrix(-1 0 0 1 11.9786 12.074)" stroke="#FDE2B2" stroke-width="2"/>
<circle r="9.96084" transform="matrix(-1 0 0 1 113.014 113.163)" stroke="#FDE2B2" stroke-width="2"/>
<circle r="9.96084" transform="matrix(-1 0 0 1 11.9786 113.163)" stroke="#FDE2B2" stroke-width="2"/>
<path d="M1.69238 1.78869L123.196 123.396" stroke="#FDE2B2" stroke-width="2"/>
<path d="M123.196 1.78869L1.69251 123.396" stroke="#FDE2B2" stroke-width="2"/>
<path d="M75.5883 51.9509C74.7977 52.0005 74.0473 52.3165 73.4593 52.8473C72.8353 53.3961 71.9473 53.5278 71.1909 53.1836C70.4365 52.8465 69.9532 52.0947 69.9597 51.2684V46.3223H65.0135C64.1872 46.3287 63.4354 45.8454 63.0983 45.091C62.7571 44.3342 62.8885 43.4479 63.4346 42.8226C63.9654 42.2346 64.2814 41.4842 64.331 40.6936C64.331 39.1682 62.3976 37.8793 60.1095 37.8793C57.8215 37.8793 55.888 39.1682 55.888 40.6936C55.9363 41.4827 56.2514 42.232 56.7816 42.8184C57.329 43.4439 57.462 44.331 57.1221 45.0896C56.7855 45.8453 56.0328 46.3294 55.2056 46.3223H50.2594V51.2684C50.2659 52.0947 49.7825 52.8465 49.0281 53.1836C48.2717 53.5278 47.3838 53.3961 46.7598 52.8473C46.1718 52.3165 45.4213 52.0005 44.6307 51.9509C43.1054 51.9509 41.8164 53.8843 41.8164 56.1724C41.8164 58.4604 43.1054 60.3939 44.6307 60.3939C45.4213 60.3442 46.1718 60.0283 46.7598 59.4975C47.3838 58.9486 48.2717 58.817 49.0281 59.1612C49.7825 59.4983 50.2659 60.2501 50.2594 61.0764V67.4297H53.8491C53.36 66.5709 53.0935 65.6034 53.0737 64.6154C53.0737 61.4591 56.1695 58.9867 60.1095 58.9867C64.0496 58.9867 67.1453 61.4591 67.1453 64.6154C67.1256 65.6034 66.859 66.5709 66.37 67.4297H69.9597V61.0764C69.9532 60.2501 70.4365 59.4983 71.1909 59.1612C71.9473 58.817 72.8353 58.9486 73.4593 59.4975C74.0473 60.0283 74.7977 60.3442 75.5883 60.3939C77.1137 60.3939 78.4026 58.4604 78.4026 56.1724C78.4026 53.8843 77.1137 51.9509 75.5883 51.9509Z" fill="#FDE2B2"/>
<path d="M98.4362 59.3034C97.7442 60.0065 96.9346 60.5832 96.044 61.0074C95.3399 61.3366 94.5023 61.0326 94.1732 60.3285C93.844 59.6244 94.148 58.7868 94.8521 58.4577C95.9162 57.9616 96.8009 57.1486 97.385 56.1302C98.7092 53.8082 98.2176 50.8751 96.2086 49.1117C94.1997 47.3483 91.2276 47.2411 89.0968 48.8552C88.4751 49.3215 87.5931 49.1955 87.1268 48.5738C86.6605 47.952 86.7865 47.07 87.4082 46.6037C88.422 45.8467 89.5938 45.3286 90.8361 45.0882C89.5173 37.6901 83.1027 32.2896 75.5881 32.2507C75.5473 32.2507 75.5036 32.2507 75.4628 32.2507C75.5436 32.7154 75.5855 33.1861 75.5881 33.6578C75.5881 34.435 74.9581 35.065 74.1809 35.065C73.4038 35.065 72.7737 34.435 72.7737 33.6578C72.7726 32.9134 72.6264 32.1764 72.3432 31.488C71.5304 29.5457 69.7016 28.2195 67.603 28.0503C65.5043 27.8812 63.4867 28.8975 62.3734 30.6845C62.0104 31.2478 61.7574 31.8747 61.6276 32.5321C61.5375 33.0349 61.182 33.4494 60.6988 33.615C60.2156 33.7806 59.6805 33.6714 59.3009 33.3296C58.9213 32.9878 58.7568 32.4671 58.871 31.9692C58.9916 31.4029 59.1708 30.8507 59.4057 30.3214C57.3631 28.8301 54.899 28.0272 52.3699 28.0292C48.1472 28.0438 44.2397 30.2657 42.068 33.8872C41.506 34.8407 41.0798 35.868 40.8016 36.9393C40.5847 37.6639 39.8338 38.0874 39.1015 37.8982C38.3692 37.709 37.9175 36.9747 38.0787 36.2358C38.2909 35.448 38.5687 34.6793 38.909 33.9379C38.2518 33.755 37.5732 33.6608 36.8911 33.6578C32.8921 33.6634 29.5544 36.7116 29.1869 40.6936C31.838 40.6958 34.3311 41.9551 35.9061 44.0877C36.3724 44.7094 36.2464 45.5915 35.6247 46.0577C35.0029 46.524 34.1209 46.398 33.6546 45.7763C32.6022 44.3443 30.9289 43.5014 29.1517 43.508C26.0431 43.508 23.5231 46.028 23.5231 49.1366C23.5234 49.7625 23.6294 50.3838 23.8368 50.9744C24.2685 52.2231 25.1252 53.2805 26.2572 53.9618C26.9236 54.3616 27.1397 55.226 26.7398 55.8924C26.34 56.5588 25.4756 56.7749 24.8092 56.3751C23.8825 55.8106 23.0732 55.073 22.4255 54.2024C21.0154 56.8533 20.4512 59.8724 20.8086 62.8536C21.32 67.1183 23.6606 70.9499 27.2217 73.3515C30.7828 75.7531 35.2123 76.4874 39.3579 75.3633C39.1236 74.3776 39.0041 73.368 39.0018 72.3548C39.0018 72.117 39.0215 71.8834 39.0328 71.6512H39.0018C35.118 71.6466 31.9707 68.4993 31.966 64.6154C31.9636 63.8326 32.5905 63.1932 33.3732 63.1801C33.7434 63.1737 34.1008 63.316 34.3653 63.5752C34.6298 63.8344 34.7793 64.1888 34.7804 64.5591V64.6154C34.7622 65.8241 35.2708 66.9809 36.1737 67.7847C37.0767 68.5885 38.2846 68.9597 39.4831 68.8017C39.5921 68.4038 39.7213 68.0116 39.8701 67.6267C40.0407 67.1435 40.4605 66.7912 40.966 66.7071C41.4716 66.623 41.9829 66.8204 42.3007 67.2224C42.6186 67.6243 42.6928 68.1674 42.4944 68.6399C41.62 70.9442 41.5901 73.4837 42.41 75.808C43.6417 79.3755 46.6861 82.0128 50.3927 82.7233C54.0994 83.4338 57.9032 82.1091 60.3668 79.2499C60.7682 78.8188 61.3861 78.6648 61.9428 78.8573C64.4509 79.853 67.1539 80.2602 69.844 80.0478C71.2319 79.9551 72.6045 79.703 73.9347 79.2963C74.4178 79.1405 74.9474 79.2569 75.3206 79.6011C75.6938 79.9452 75.8527 80.4637 75.7364 80.9578C75.6202 81.452 75.2467 81.8452 74.7592 81.9868C73.234 82.4534 71.6604 82.7442 70.0692 82.8536C70.0453 82.8536 70.0171 82.8536 69.9932 82.8536C70.1986 86.8092 71.5903 89.0058 78.8471 91.4247C83.1629 92.6117 86.5669 95.9317 87.8613 100.217C88.0407 100.807 88.5882 101.208 89.2052 101.202H90.8938C91.2927 101.204 91.6737 101.036 91.942 100.741C92.2104 100.446 92.3408 100.051 92.3009 99.6538C91.9252 95.9445 90.7826 89.6981 87.328 86.0662C86.3191 86.4241 85.2803 86.6911 84.2238 86.8641C84.1499 86.8763 84.075 86.8824 84.0001 86.8824C83.2642 86.885 82.6506 86.3202 82.5923 85.5867C82.534 84.8531 83.0507 84.1985 83.7778 84.0849C88.6549 83.2902 92.8517 80.1973 95.0548 75.7742C91.2494 77.761 86.7156 77.773 82.8997 75.8066C81.8346 75.2729 80.8499 74.5922 79.9742 73.7845C79.044 74.2297 78.0265 74.4624 76.9952 74.4655C76.4522 74.4634 75.9111 74.3992 75.3826 74.2742C74.8909 74.1622 74.4967 73.7957 74.3493 73.3135C74.2018 72.8312 74.3238 72.3069 74.6688 71.9392C75.0139 71.5715 75.5294 71.4165 76.0201 71.533C77.2337 71.8332 78.518 71.5672 79.5126 70.8097C80.5072 70.0709 81.125 68.9309 81.2012 67.6943C81.2352 67.2048 81.1755 66.7134 81.0253 66.2463C80.8414 65.761 80.9395 65.214 81.2806 64.8228C81.6217 64.4317 82.1503 64.26 82.6561 64.3762C83.1619 64.4923 83.5627 64.8774 83.699 65.3781C83.9171 66.0402 84.0292 66.7326 84.031 67.4297C84.0306 69.1298 83.4131 70.7718 82.2932 72.0509C82.8688 72.5386 83.4981 72.9593 84.1689 73.3046C85.647 74.0738 87.2899 74.4722 88.9561 74.4655C91.9309 74.4567 94.7652 73.1986 96.7673 70.9983L96.7996 70.9645C97.5249 70.2236 98.1137 69.3604 98.5389 68.4147C99.8689 65.5151 99.8312 62.1723 98.4362 59.3034ZM75.5881 63.2082C74.6 63.1883 73.6326 62.9218 72.7737 62.4329V67.4297C72.7737 68.984 71.5137 70.2441 69.9594 70.2441H65.0132C64.1869 70.2505 63.4352 69.7672 63.0981 69.0128C62.7568 68.256 62.8882 67.3697 63.4344 66.7444C63.9652 66.1564 64.2811 65.406 64.3308 64.6154C64.3308 63.09 62.3973 61.8011 60.1093 61.8011C57.8212 61.8011 55.8878 63.09 55.8878 64.6154C55.9374 65.406 56.2534 66.1564 56.7842 66.7444C57.3303 67.3697 57.4617 68.256 57.1205 69.0128C56.7834 69.7672 56.0316 70.2505 55.2053 70.2441H50.2591C48.7048 70.2441 47.4448 68.984 47.4448 67.4297V62.4329C46.586 62.9218 45.6185 63.1883 44.6305 63.2082C41.4742 63.2082 39.0018 60.1125 39.0018 56.1724C39.0018 52.2324 41.4742 49.1366 44.6305 49.1366C45.6185 49.1566 46.586 49.4231 47.4448 49.912V46.3223C47.4448 44.768 48.7048 43.508 50.2591 43.508H53.8474C53.3591 42.649 53.093 41.6816 53.0735 40.6936C53.0735 37.5374 56.1692 35.065 60.1093 35.065C64.0493 35.065 67.1451 37.5374 67.1451 40.6936C67.1253 41.6817 66.8588 42.6492 66.3697 43.508H69.9594C71.5137 43.508 72.7737 44.768 72.7737 46.3223V49.912C73.6326 49.4231 74.6 49.1566 75.5881 49.1366C78.7443 49.1366 81.2167 52.2324 81.2167 56.1724C81.2167 60.1125 78.7443 63.2082 75.5881 63.2082Z" fill="#FDE2B2"/>
</svg>
