<svg width="124" height="126" viewBox="0 0 124 126" fill="none" xmlns="http://www.w3.org/2000/svg">
<rect x="1.64941" y="2.11316" width="121.01" height="121.01" stroke="#FDE2B2" stroke-width="2"/>
<circle cx="61.7389" cy="63.0339" r="60.0895" stroke="#FDE2B2" stroke-width="2"/>
<circle r="9.96084" transform="matrix(-1 0 0 1 112.646 12.074)" stroke="#FDE2B2" stroke-width="2"/>
<circle r="9.96084" transform="matrix(-1 0 0 1 11.6104 12.074)" stroke="#FDE2B2" stroke-width="2"/>
<circle r="9.96084" transform="matrix(-1 0 0 1 112.646 113.163)" stroke="#FDE2B2" stroke-width="2"/>
<circle r="9.96084" transform="matrix(-1 0 0 1 11.6104 113.163)" stroke="#FDE2B2" stroke-width="2"/>
<path d="M1.32422 1.7887L122.828 123.396" stroke="#FDE2B2" stroke-width="2"/>
<path d="M122.828 1.7887L1.32435 123.396" stroke="#FDE2B2" stroke-width="2"/>
<path d="M102.247 28.7273H89.737C89.2711 28.7273 88.8933 29.105 88.8933 29.5709V76.9339C88.4097 76.3674 87.6705 76.0352 87.0414 75.8758L86.2842 74.4518C86.1157 74.1356 85.7661 73.9599 85.4124 74.0137L84.431 74.163L84.183 72.7896C84.1174 72.4269 83.8241 72.1485 83.4583 72.1025L82.0581 71.926C81.7663 71.8897 81.479 72.0059 81.2955 72.2337L79.7709 74.1263L76.9161 70.6728C76.7438 70.464 76.4837 70.3512 76.211 70.3684L72.3464 70.6201L61.0881 52.7816C60.9336 52.5367 60.6642 52.3882 60.3747 52.3882H33.4751C33.129 52.3882 32.8181 52.5993 32.6907 52.9212L26.0504 69.6864H19.5626C16.7337 69.6864 15.1758 71.2443 15.1758 74.0732V80.7831C13.7912 80.8824 12.6953 82.0407 12.6953 83.4502V85.8836C12.6953 87.3583 13.8949 88.5579 15.3696 88.5579H23.9468C24.4113 92.9909 28.1702 96.4577 32.7236 96.4577C37.2775 96.4577 41.0362 92.9907 41.5006 88.5579H63.9847C64.4491 92.9909 68.2074 96.4577 72.7608 96.4577C77.3151 96.4577 81.0743 92.9907 81.5387 88.5579H88.8931V94.5596C88.8931 95.0255 89.2709 95.4032 89.7367 95.4032H102.247C102.713 95.4032 103.091 95.0255 103.091 94.5596V29.5709C103.091 29.105 102.713 28.7273 102.247 28.7273ZM32.7236 92.6614C29.9504 92.6614 27.6942 90.4052 27.6942 87.6316C27.6942 84.8582 29.9502 82.6019 32.7236 82.6019C35.497 82.6019 37.7533 84.8582 37.7533 87.6316C37.7533 90.4052 35.4968 92.6614 32.7236 92.6614ZM72.7611 92.6614C69.9881 92.6614 67.7323 90.4052 67.7323 87.6316C67.7323 84.8582 69.9881 82.6019 72.7611 82.6019C75.5347 82.6019 77.7916 84.8582 77.7916 87.6316C77.7913 90.4052 75.5347 92.6614 72.7611 92.6614Z" fill="#FDE2B2"/>
<path d="M70.3319 57.4451C69.7654 57.0353 68.9745 57.1629 68.5651 57.7292C68.1558 58.2957 68.283 59.0866 68.8494 59.4961L82.3347 69.2446C82.5589 69.4067 82.8181 69.4846 83.0749 69.4846C83.4672 69.4846 83.854 69.3028 84.1014 68.9605C84.5108 68.394 84.3836 67.6029 83.8171 67.1935L70.3319 57.4451Z" fill="#FDE2B2"/>
<path d="M83.979 60.7974C84.0539 61.4421 84.6008 61.9168 85.2343 61.9168C85.283 61.9168 85.3326 61.9141 85.3822 61.9082C86.0762 61.8274 86.5738 61.1993 86.493 60.5051L84.0558 39.5462C83.975 38.8519 83.345 38.3544 82.6526 38.4354C81.9585 38.5162 81.461 39.1442 81.5418 39.8385L83.979 60.7974Z" fill="#FDE2B2"/>
<path d="M79.099 60.4279C79.3458 60.6717 79.6672 60.7934 79.9889 60.7934C80.3151 60.7934 80.6412 60.6679 80.8888 60.4178C81.3802 59.9207 81.3758 59.1196 80.8787 58.6282L66.4188 44.3306C65.9217 43.8392 65.1207 43.8436 64.6293 44.3407C64.1379 44.8376 64.1423 45.6389 64.6394 46.1303L79.099 60.4279Z" fill="#FDE2B2"/>
<path d="M77.8675 50.9937C78.0491 51.5161 78.539 51.8437 79.0627 51.8437C79.2004 51.8437 79.3407 51.8211 79.4786 51.7732C80.1385 51.5435 80.4876 50.8225 80.2579 50.1623L77.6583 42.6887C77.4288 42.0288 76.709 41.6795 76.0472 41.9092C75.3873 42.1389 75.0382 42.86 75.2679 43.5201L77.8675 50.9937Z" fill="#FDE2B2"/>
</svg>
