<svg width="124" height="126" viewBox="0 0 124 126" fill="none" xmlns="http://www.w3.org/2000/svg">
<rect x="1.83398" y="2.11318" width="121.01" height="121.01" stroke="#FDE2B2" stroke-width="2"/>
<circle cx="61.9235" cy="63.0339" r="60.0895" stroke="#FDE2B2" stroke-width="2"/>
<circle r="9.96084" transform="matrix(-1 0 0 1 112.83 12.074)" stroke="#FDE2B2" stroke-width="2"/>
<circle r="9.96084" transform="matrix(-1 0 0 1 11.795 12.074)" stroke="#FDE2B2" stroke-width="2"/>
<circle r="9.96084" transform="matrix(-1 0 0 1 112.83 113.163)" stroke="#FDE2B2" stroke-width="2"/>
<circle r="9.96084" transform="matrix(-1 0 0 1 11.795 113.163)" stroke="#FDE2B2" stroke-width="2"/>
<path d="M1.50879 1.78869L123.013 123.396" stroke="#FDE2B2" stroke-width="2"/>
<path d="M123.013 1.78869L1.50892 123.396" stroke="#FDE2B2" stroke-width="2"/>
<path d="M97.7771 35.2674H95.4286V84.5863C95.4286 88.4714 92.1115 91.6318 88.2265 91.6318H66.6885C65.7184 94.3657 63.1061 96.3289 60.0443 96.3289C56.9824 96.3289 54.3702 94.3657 53.4 91.6318H31.862C27.977 91.6318 24.6599 88.4714 24.6599 84.5863V35.2674H22.3114C21.0133 35.2674 19.9629 36.3178 19.9629 37.6159V93.9803C19.9629 95.2785 21.0133 96.3289 22.3114 96.3289H48.7029C49.673 99.0627 52.2854 101.026 55.3472 101.026H64.7413C67.8031 101.026 70.4153 99.0627 71.3856 96.3289H97.7771C99.0752 96.3289 100.126 95.2785 100.126 93.9803V37.6159C100.126 36.3178 99.0752 35.2674 97.7771 35.2674Z" fill="#FDE2B2"/>
<path d="M57.6954 85.2142V31.3445C54.4447 28.6279 49.225 25.8734 41.2557 25.8734C39.9576 25.8734 38.9072 26.9238 38.9072 28.2219V75.1923C38.9072 76.4904 39.9576 77.5408 41.2557 77.5408C52.119 77.5408 56.6492 83.5494 57.6954 85.2142Z" fill="#FDE2B2"/>
<path d="M88.2263 86.935C89.5244 86.935 90.5748 85.8846 90.5748 84.5865V32.9191C90.5748 31.621 89.5244 30.5706 88.2263 30.5706H69.4381C66.7846 30.5706 64.3613 31.4889 62.3926 32.9791V89.2835C62.3926 87.9878 63.4453 86.935 64.7411 86.935H88.2263Z" fill="#FDE2B2"/>
<path d="M31.8622 30.5706C30.5641 30.5706 29.5137 31.621 29.5137 32.9191V84.5865C29.5137 85.8846 30.5641 86.935 31.8622 86.935H53.1316C51.8163 85.3407 48.3669 82.238 41.2563 82.238C37.3712 82.238 34.2107 79.0775 34.2107 75.1924V30.5706H31.8622Z" fill="#FDE2B2"/>
</svg>
