<svg width="124" height="126" viewBox="0 0 124 126" fill="none" xmlns="http://www.w3.org/2000/svg">
<rect x="1.20117" y="2.11318" width="121.01" height="121.01" stroke="#FDE2B2" stroke-width="2"/>
<circle cx="61.2907" cy="63.0339" r="60.0895" stroke="#FDE2B2" stroke-width="2"/>
<circle r="9.96084" transform="matrix(-1 0 0 1 112.197 12.074)" stroke="#FDE2B2" stroke-width="2"/>
<circle r="9.96084" transform="matrix(-1 0 0 1 11.1622 12.074)" stroke="#FDE2B2" stroke-width="2"/>
<circle r="9.96084" transform="matrix(-1 0 0 1 112.197 113.163)" stroke="#FDE2B2" stroke-width="2"/>
<circle r="9.96084" transform="matrix(-1 0 0 1 11.1622 113.163)" stroke="#FDE2B2" stroke-width="2"/>
<path d="M0.875977 1.78869L122.38 123.396" stroke="#FDE2B2" stroke-width="2"/>
<path d="M122.38 1.78869L0.876104 123.396" stroke="#FDE2B2" stroke-width="2"/>
<g clip-path="url(#clip0)">
<path d="M45.651 32.9519L57.1579 26.0378L56.0055 24.1199C55.3695 23.0615 53.9944 22.7179 52.9354 23.3544L45.2639 27.9637C44.2053 28.5998 43.8621 29.9749 44.4984 31.0339L45.651 32.9519Z" fill="#FDE2B2"/>
<path d="M91.9412 75.2514C91.2998 74.1953 89.9231 73.8582 88.867 74.4996L76.3809 82.0844C76.9745 83.5089 77.3608 85.0378 77.5055 86.6368L91.1894 78.3241C92.2468 77.6827 92.5824 76.3074 91.9412 75.2514Z" fill="#FDE2B2"/>
<path d="M79.8092 94.9299H73.097V88.0686C73.097 81.9001 68.0785 76.8816 61.91 76.8816C55.7415 76.8816 50.723 81.9001 50.723 88.0686V94.9299H44.0108C42.7752 94.9299 41.7734 95.9317 41.7734 97.1673C41.7734 98.403 42.7752 99.4047 44.0108 99.4047H79.8092C81.0448 99.4047 82.0466 98.403 82.0466 97.1673C82.0466 95.9317 81.0448 94.9299 79.8092 94.9299ZM61.91 90.306C60.6744 90.306 59.6726 89.3042 59.6726 88.0686C59.6726 86.8329 60.6744 85.8312 61.91 85.8312C63.1456 85.8312 64.1474 86.8329 64.1474 88.0686C64.1474 89.3042 63.1456 90.306 61.91 90.306Z" fill="#FDE2B2"/>
<path d="M45.2721 41.01L47.6324 44.9381L52.4046 42.0524C58.0615 38.6321 65.3545 40.5382 68.7112 46.0249C72.1659 51.6725 70.3551 59.0401 64.6746 62.4418L59.8763 65.3155L61.405 67.8596C62.044 68.923 63.4251 69.261 64.4818 68.6211C64.5523 68.5787 65.3012 68.1287 66.432 67.4491L69.8646 73.1619C70.502 74.2229 71.8787 74.5623 72.9348 73.9274L80.6061 69.3181C81.6652 68.6816 82.0079 67.3073 81.3716 66.2479L77.9389 60.5351C79.0842 59.847 79.8178 59.4063 79.8178 59.4063C80.8769 58.7698 81.2196 57.3953 80.5832 56.3361C80.5298 56.2471 64.4357 29.4575 64.3769 29.3721C63.7072 28.3972 62.3943 28.112 61.3804 28.7213L46.0376 37.9398C44.9784 38.5763 44.6356 39.9508 45.2721 41.01Z" fill="#FDE2B2"/>
<path d="M46.2478 88.0687C46.2478 83.6903 48.0546 79.7267 50.9607 76.8817H48.4852C44.7841 76.8817 41.773 73.8707 41.773 70.1696C41.773 66.4685 44.7841 63.4574 48.4843 63.4574C48.4853 63.4574 53.6476 63.4596 53.6473 63.4596C54.0523 63.4595 54.4495 63.3497 54.7969 63.1416L62.3753 58.603C65.919 56.4807 67.0493 51.8839 64.8938 48.3603C62.7684 44.8862 58.2043 43.7749 54.7198 45.8817L47.8429 50.0402C37.0355 50.3795 28.3486 59.2788 28.3486 70.1696C28.3486 80.5166 36.1935 89.0645 46.2478 90.1811V88.0687Z" fill="#FDE2B2"/>
</g>
<defs>
<clipPath id="clip0">
<rect width="76.3698" height="76.3698" fill="white" transform="translate(22.123 23.0348)"/>
</clipPath>
</defs>
</svg>
