<svg width="124" height="126" viewBox="0 0 124 126" fill="none" xmlns="http://www.w3.org/2000/svg">
<rect x="1.45508" y="2.11316" width="121.01" height="121.01" stroke="#FDE2B2" stroke-width="2"/>
<circle cx="61.5446" cy="63.0339" r="60.0895" stroke="#FDE2B2" stroke-width="2"/>
<circle r="9.96084" transform="matrix(-1 0 0 1 112.451 12.074)" stroke="#FDE2B2" stroke-width="2"/>
<circle r="9.96084" transform="matrix(-1 0 0 1 11.4161 12.074)" stroke="#FDE2B2" stroke-width="2"/>
<circle r="9.96084" transform="matrix(-1 0 0 1 112.451 113.163)" stroke="#FDE2B2" stroke-width="2"/>
<circle r="9.96084" transform="matrix(-1 0 0 1 11.4161 113.163)" stroke="#FDE2B2" stroke-width="2"/>
<path d="M1.12988 1.7887L122.634 123.396" stroke="#FDE2B2" stroke-width="2"/>
<path d="M122.634 1.7887L1.13001 123.396" stroke="#FDE2B2" stroke-width="2"/>
<path d="M83.3121 57.2363H81.2454L71.9616 52.3696C69.6606 55.8798 65.694 58.2045 61.1926 58.2045C56.6792 58.2045 52.7037 55.8672 50.4055 52.3414L40.9157 57.2365H39.073C37.2043 57.2365 35.6895 58.7513 35.6895 60.62V65.1898C35.6895 67.0585 37.2043 68.5733 39.073 68.5733H41.8119V72.0411C41.8119 75.0868 42.5186 77.9672 43.7753 80.5288L48.9294 73.8701C50.2819 72.1225 52.4088 71.0793 54.6187 71.0793H67.8555C70.1264 71.0793 72.2887 72.1692 73.6393 73.995L78.4542 80.503C79.7031 77.9479 80.4048 75.0766 80.4048 72.0409V68.5731H83.3121C85.1807 68.5731 86.6956 67.0583 86.6956 65.1896V60.6229C86.6956 58.7537 85.1812 57.238 83.3121 57.2363ZM53.6332 66.5628H48.9108V61.9014H53.6332V66.5628ZM73.4742 66.5628H68.7518V61.9014H73.4742V66.5628Z" fill="#FDE2B2"/>
<path d="M62.6636 24.9083H59.5542C53.1624 24.9083 46.9407 26.9688 41.8125 30.7842V51.4604L48.5936 47.9625C48.4169 47.1137 48.323 46.2349 48.323 45.3345C48.323 38.2379 54.0965 32.4643 61.1931 32.4643C68.2897 32.4643 74.0633 38.2377 74.0633 45.3345C74.0633 46.2459 73.9666 47.1351 73.7856 47.9934L80.4054 51.4637V30.7842C75.277 26.9688 69.0553 24.9083 62.6636 24.9083Z" fill="#FDE2B2"/>
<path d="M61.1089 91.3372C66.9261 91.3372 72.1416 88.7629 75.6796 84.6918L69.8435 76.8034C69.3795 76.1761 68.6364 75.8015 67.8561 75.8015H54.6193C53.86 75.8015 53.1292 76.1601 52.6644 76.7605L46.5312 84.6841C50.0695 88.7596 55.2882 91.3372 61.1089 91.3372Z" fill="#FDE2B2"/>
<path d="M85.5919 87.1628H79.77C79.2454 87.8087 78.6867 88.4305 78.0923 89.0247C75.8879 91.2291 73.3197 92.9602 70.4589 94.1703C67.4947 95.4241 64.3486 96.0597 61.1082 96.0597C57.8679 96.0597 54.7218 95.4241 51.7576 94.1703C48.8968 92.9604 46.3286 91.2291 44.1244 89.0247C43.53 88.4303 42.9712 87.8087 42.4466 87.1628H36.7933C28.0268 87.1628 20.8945 94.2951 20.8945 103.062V105.423H101.491V103.062C101.491 94.2951 94.3586 87.1628 85.5919 87.1628Z" fill="#FDE2B2"/>
<path d="M53.0449 45.3343C53.0449 49.827 56.7 53.482 61.1926 53.482C65.6852 53.482 69.3403 49.827 69.3403 45.3343C69.3403 40.8417 65.6852 37.1866 61.1926 37.1866C56.7 37.1866 53.0449 40.8416 53.0449 45.3343ZM63.5538 47.6521H58.8314V43.0164H63.5538V47.6521Z" fill="#FDE2B2"/>
</svg>
