<svg width="124" height="126" viewBox="0 0 124 126" fill="none" xmlns="http://www.w3.org/2000/svg">
<rect x="1.38574" y="2.11318" width="121.01" height="121.01" stroke="#FDE2B2" stroke-width="2"/>
<circle cx="61.4753" cy="63.0339" r="60.0895" stroke="#FDE2B2" stroke-width="2"/>
<circle r="9.96084" transform="matrix(-1 0 0 1 112.382 12.074)" stroke="#FDE2B2" stroke-width="2"/>
<circle r="9.96084" transform="matrix(-1 0 0 1 11.3468 12.074)" stroke="#FDE2B2" stroke-width="2"/>
<circle r="9.96084" transform="matrix(-1 0 0 1 112.382 113.163)" stroke="#FDE2B2" stroke-width="2"/>
<circle r="9.96084" transform="matrix(-1 0 0 1 11.3468 113.163)" stroke="#FDE2B2" stroke-width="2"/>
<path d="M1.06055 1.78869L122.564 123.396" stroke="#FDE2B2" stroke-width="2"/>
<path d="M122.564 1.78869L1.06067 123.396" stroke="#FDE2B2" stroke-width="2"/>
<path d="M61.6307 47.6784C61.1352 48.1897 47.9187 58.8083 47.4365 59.1114L52.4166 65.2835L66.6408 53.8521L61.6307 47.6784Z" fill="#FDE2B2"/>
<path d="M94.7069 88.4449L69.6269 57.5332L55.3916 68.9725L80.4226 99.9995C83.6051 103.948 89.3873 104.58 93.3496 101.377C97.3114 98.1725 97.9043 92.3859 94.7069 88.4449Z" fill="#FDE2B2"/>
<path d="M58.379 41.2263L55.4299 37.5888C60.8244 33.5688 64.5232 32.5063 72.6266 32.2157C73.6797 32.1779 74.5812 31.4497 74.8394 30.4282C75.0976 29.4069 74.6504 28.3376 73.7418 27.8042C61.3905 20.5514 49.8185 20.7767 40.2767 28.4561L30.208 36.5599C29.1853 37.383 29.0268 38.8824 29.8554 39.901C30.6656 40.8974 30.5359 42.3733 29.495 43.211C28.4754 44.0317 26.9769 43.8729 26.1548 42.8568C25.3332 41.8414 23.8452 41.6822 22.8275 42.5002L18.5153 45.9661C15.4545 48.4293 14.974 52.8971 17.4509 55.9524L23.4138 63.3072C25.8794 66.3484 30.3654 66.8206 33.412 64.3688L37.7229 60.9038C38.7452 60.082 38.9055 58.5842 38.079 57.5646C37.2571 56.5509 37.4173 55.0728 38.4334 54.255C39.4543 53.4335 40.9546 53.5918 41.7788 54.6081C42.601 55.6223 44.0884 55.7801 45.1058 54.9619L58.024 44.5651C59.0456 43.7427 59.205 42.2453 58.379 41.2263Z" fill="#FDE2B2"/>
</svg>
