<svg width="124" height="126" viewBox="0 0 124 126" fill="none" xmlns="http://www.w3.org/2000/svg">
<rect x="1.64941" y="2.11318" width="121.01" height="121.01" stroke="#FDE2B2" stroke-width="2"/>
<circle cx="61.7389" cy="63.0339" r="60.0895" stroke="#FDE2B2" stroke-width="2"/>
<circle r="9.96084" transform="matrix(-1 0 0 1 112.646 12.074)" stroke="#FDE2B2" stroke-width="2"/>
<circle r="9.96084" transform="matrix(-1 0 0 1 11.6104 12.074)" stroke="#FDE2B2" stroke-width="2"/>
<circle r="9.96084" transform="matrix(-1 0 0 1 112.646 113.163)" stroke="#FDE2B2" stroke-width="2"/>
<circle r="9.96084" transform="matrix(-1 0 0 1 11.6104 113.163)" stroke="#FDE2B2" stroke-width="2"/>
<path d="M1.32422 1.78869L122.828 123.396" stroke="#FDE2B2" stroke-width="2"/>
<path d="M122.828 1.78869L1.32435 123.396" stroke="#FDE2B2" stroke-width="2"/>
<path d="M61.0802 75.2546C60.0937 75.2108 59.173 74.6931 58.7314 73.7803L58.0481 72.3651L54.5028 79.2568H40.6041C39.1639 79.2568 37.9962 80.4245 37.9962 81.8647C37.9962 83.3049 39.1639 84.4726 40.6041 84.4726H41.5518C36.1933 88.7945 32.7588 95.4105 32.7588 102.815C32.7588 104.255 33.9264 105.422 35.3667 105.422H77.2663C78.7066 105.422 79.8742 104.255 79.8742 102.815C79.8742 95.4105 76.4396 88.7945 71.0812 84.4726H72.0289C73.4691 84.4726 74.6367 83.3049 74.6367 81.8647C74.6367 80.4245 73.4691 79.2568 72.0289 79.2568H60.3688L62.5354 75.046C62.5354 75.046 61.4853 75.2725 61.0802 75.2546Z" fill="#FDE2B2"/>
<path d="M84.2293 27.1778C85.5089 27.8368 86.0131 29.4084 85.3542 30.6898L62.5354 75.046L74.4985 73.031C75.3157 72.8937 76.0198 72.3756 76.3936 71.6367L94.6834 35.4535C96.2759 32.3414 96.5611 28.7982 95.4884 25.4723C94.4139 22.1464 92.1086 19.4377 88.9983 17.8469C85.8879 16.2544 82.343 15.9692 79.0171 17.0419C75.6929 18.1164 72.9842 20.4217 71.3865 23.5425L53.0897 59.7379C52.7229 60.4629 52.7142 61.3165 53.0688 62.0485L58.0481 72.3652L80.7174 28.3027C81.3763 27.0231 82.948 26.5189 84.2293 27.1778Z" fill="#FDE2B2"/>
</svg>
