<svg width="81" height="82" viewBox="0 0 81 82" fill="none" xmlns="http://www.w3.org/2000/svg">
<rect x="1.64648" y="2.16147" width="77.7221" height="77.7221" stroke="#E1CFAA" stroke-width="2"/>
<circle cx="40.2382" cy="41.2917" r="38.5917" stroke="#E1CFAA" stroke-width="2"/>
<circle r="6.10365" transform="matrix(-1 0 0 1 73.2303 8.26511)" stroke="#E1CFAA" stroke-width="2"/>
<circle r="6.10365" transform="matrix(-1 0 0 1 7.74987 8.26511)" stroke="#E1CFAA" stroke-width="2"/>
<circle r="6.10365" transform="matrix(-1 0 0 1 73.2303 73.7798)" stroke="#E1CFAA" stroke-width="2"/>
<circle r="6.10365" transform="matrix(-1 0 0 1 7.74987 73.7798)" stroke="#E1CFAA" stroke-width="2"/>
<path d="M1.08398 1.59897L79.8297 80.412" stroke="#E1CFAA" stroke-width="2"/>
<path d="M79.832 1.59897L1.08628 80.412" stroke="#E1CFAA" stroke-width="2"/>
<path d="M31.9668 38.8828C38.6854 38.8828 44.1348 33.4333 44.1348 26.7148C44.1348 19.9962 38.6854 14.5367 31.9668 14.5367C25.2482 14.5367 19.7988 19.9861 19.7988 26.7047C19.7988 33.4233 25.2482 38.8828 31.9668 38.8828ZM27.7161 31.5195C27.8269 31.1166 27.9377 30.7238 28.0586 30.3208C28.1996 29.8575 28.3305 29.8071 28.7536 30.0287C29.4788 30.4014 30.2444 30.613 31.0502 30.7137C31.5639 30.7741 32.0776 30.7238 32.551 30.5122C33.4475 30.1194 33.5885 29.0819 32.8331 28.4574C32.5712 28.2458 32.2791 28.0847 31.9769 27.9537C31.1912 27.6113 30.3753 27.3494 29.6299 26.9062C28.4312 26.191 27.6657 25.1938 27.7564 23.7332C27.8571 22.0813 28.7939 21.0438 30.3048 20.4998C30.9293 20.2682 30.9293 20.2782 30.9394 19.6235C30.9394 19.4019 30.9394 19.1803 30.9394 18.9587C30.9495 18.4651 31.0401 18.3845 31.5236 18.3644C31.6747 18.3644 31.8258 18.3644 31.9769 18.3644C33.0245 18.3644 33.0245 18.3644 33.0245 19.412C33.0245 20.1473 33.0245 20.1574 33.7598 20.2682C34.3239 20.3588 34.8577 20.52 35.3815 20.7517C35.6736 20.8826 35.7743 21.0841 35.6938 21.3862C35.5628 21.8395 35.4419 22.2928 35.2908 22.736C35.1498 23.1591 35.0189 23.2195 34.616 23.0281C33.8001 22.6353 32.9439 22.464 32.0373 22.5144C31.7956 22.5245 31.574 22.5547 31.3524 22.6554C30.5768 22.9979 30.4458 23.8541 31.1106 24.3879C31.443 24.6599 31.8258 24.8513 32.2287 25.0125C32.9137 25.2945 33.6087 25.5765 34.2735 25.9392C36.3586 27.0975 36.9226 29.7165 35.452 31.4994C34.9181 32.144 34.2332 32.5772 33.4173 32.7988C33.0648 32.8995 32.9036 33.0808 32.9237 33.4434C32.9439 33.806 32.9237 34.1586 32.9237 34.5212C32.9237 34.8435 32.7626 35.0148 32.4402 35.0249C32.0575 35.0349 31.6646 35.0349 31.2819 35.0249C30.9394 35.0148 30.7782 34.8234 30.7782 34.491C30.7782 34.2291 30.7782 33.9672 30.7681 33.7053C30.7581 33.1312 30.748 33.1009 30.1839 33.0103C29.4687 32.8995 28.7737 32.7383 28.119 32.416C27.6254 32.1843 27.5751 32.0534 27.7161 31.5195Z" fill="#E1CFAA"/>
<path d="M59.2635 39.9001H57.8432C56.9064 37.0294 55.0732 34.4809 52.6255 32.5067C52.6255 32.416 52.6053 32.3153 52.5852 32.2246C52.0715 30.4216 52.7061 28.7797 53.4414 27.6012C53.9551 26.7752 53.2903 25.7176 52.3233 25.8384C50.1576 26.1104 48.6669 26.9062 47.6394 27.8026C46.9343 28.4171 46.4307 29.2431 46.2091 30.1597C44.6579 36.5862 38.866 41.3708 31.9661 41.3708C28.6119 41.3708 25.5296 40.2426 23.0617 38.3489C22.2055 40.2023 21.7422 42.2269 21.7422 44.3523C21.7422 45.5006 21.8832 46.6187 22.1451 47.6965C22.1451 47.6965 22.1451 47.7166 22.1552 47.7469C22.4271 48.8649 22.8401 49.9427 23.3639 50.9601C24.0589 52.4609 25.0662 54.2136 26.4563 55.6339C28.4608 57.6988 28.8032 60.2573 28.8536 61.3653V61.8388C28.8536 61.8589 28.8536 61.879 28.8536 61.8992C28.8536 61.9093 28.8536 61.9093 28.8536 61.9093C28.8939 62.4532 29.3472 62.8863 29.9012 62.8863H36.2672C36.8414 62.8863 37.3148 62.423 37.3148 61.8388V60.2674C38.2415 60.3883 39.1883 60.4588 40.1453 60.4588C40.9007 60.4588 41.636 60.4185 42.3713 60.3379V61.8388C42.3713 62.4129 42.8347 62.8863 43.4189 62.8863H49.8051C50.3792 62.8863 50.8527 62.423 50.8527 61.8388V60.2674C50.8627 59.7436 51.0441 57.6585 53.0183 55.8756C53.0888 55.8152 53.1593 55.7548 53.2299 55.6943C53.25 55.6742 53.2702 55.6641 53.2903 55.644C55.4862 53.6898 57.1079 51.2522 57.9439 48.5325H59.2836C60.3514 48.5325 61.2176 47.6663 61.2176 46.5986V41.8341C61.1975 40.7664 60.3312 39.9001 59.2635 39.9001ZM51.2959 40.2426C50.4195 40.2426 49.7144 39.5375 49.7144 38.6612C49.7144 37.7848 50.4195 37.0797 51.2959 37.0797C52.1722 37.0797 52.8773 37.7848 52.8773 38.6612C52.8773 39.5375 52.1722 40.2426 51.2959 40.2426Z" fill="#E1CFAA"/>
</svg>
