<svg width="81" height="82" viewBox="0 0 81 82" fill="none" xmlns="http://www.w3.org/2000/svg">
<rect x="1.64648" y="2.27332" width="77.7221" height="77.7221" stroke="#E1CFAA" stroke-width="2"/>
<circle cx="40.2382" cy="41.4036" r="38.5917" stroke="#E1CFAA" stroke-width="2"/>
<circle r="6.10365" transform="matrix(-1 0 0 1 73.2303 8.37696)" stroke="#E1CFAA" stroke-width="2"/>
<circle r="6.10365" transform="matrix(-1 0 0 1 7.74987 8.37696)" stroke="#E1CFAA" stroke-width="2"/>
<circle r="6.10365" transform="matrix(-1 0 0 1 73.2303 73.8916)" stroke="#E1CFAA" stroke-width="2"/>
<circle r="6.10365" transform="matrix(-1 0 0 1 7.74987 73.8916)" stroke="#E1CFAA" stroke-width="2"/>
<path d="M1.08398 1.71082L79.8297 80.5238" stroke="#E1CFAA" stroke-width="2"/>
<path d="M79.832 1.71082L1.08628 80.5238" stroke="#E1CFAA" stroke-width="2"/>
<path d="M39.5543 32.0625C39.2838 32.3758 31.968 38.98 31.6983 39.172L34.7947 42.5878L42.6683 35.4782L39.5543 32.0625Z" fill="#E1CFAA"/>
<path d="M60.1118 54.6174L44.5235 37.5149L36.6438 44.6294L52.2075 61.8006C54.1864 63.9858 57.5634 64.1595 59.756 62.1683C61.9483 60.1761 62.0991 56.7979 60.1118 54.6174Z" fill="#E1CFAA"/>
<path d="M37.4503 28.4265L35.6172 26.4139C38.6137 23.9005 40.7249 23.1603 45.4182 22.721C46.0281 22.6639 46.5271 22.2112 46.6428 21.6097C46.7585 21.0083 46.4633 20.4026 45.9181 20.1234C38.5075 16.3267 31.7989 16.844 26.5176 21.6196L20.9447 26.6592C20.3787 27.171 20.3368 28.0465 20.8517 28.61C21.3552 29.1612 21.3292 30.0221 20.7531 30.5431C20.1887 31.0534 19.3137 31.0113 18.8027 30.4491C18.2919 29.8873 17.423 29.8445 16.8597 30.3532L14.4728 32.5088C12.7787 34.0406 12.649 36.6497 14.1886 38.3401L17.895 42.4095C19.4275 44.0922 22.0469 44.2164 23.7331 42.6917L26.1193 40.5367C26.6851 40.0256 26.7282 39.1509 26.2145 38.5868C25.7036 38.0259 25.7472 37.1627 26.3096 36.6541C26.8746 36.1433 27.7507 36.1851 28.2629 36.7473C28.774 37.3085 29.6426 37.3504 30.2057 36.8415L37.3558 30.376C37.9212 29.8646 37.9637 28.9902 37.4503 28.4265Z" fill="#E1CFAA"/>
</svg>
