<svg width="81" height="82" viewBox="0 0 81 82" fill="none" xmlns="http://www.w3.org/2000/svg">
<rect x="1.64648" y="2.16168" width="77.7221" height="77.7221" stroke="#E1CFAA" stroke-width="2"/>
<circle cx="40.2382" cy="41.292" r="38.5917" stroke="#E1CFAA" stroke-width="2"/>
<circle r="6.10365" transform="matrix(-1 0 0 1 73.2303 8.26533)" stroke="#E1CFAA" stroke-width="2"/>
<circle r="6.10365" transform="matrix(-1 0 0 1 7.74987 8.26533)" stroke="#E1CFAA" stroke-width="2"/>
<circle r="6.10365" transform="matrix(-1 0 0 1 73.2303 73.78)" stroke="#E1CFAA" stroke-width="2"/>
<circle r="6.10365" transform="matrix(-1 0 0 1 7.74987 73.78)" stroke="#E1CFAA" stroke-width="2"/>
<path d="M1.08398 1.59918L79.8297 80.4122" stroke="#E1CFAA" stroke-width="2"/>
<path d="M79.832 1.59918L1.08628 80.4122" stroke="#E1CFAA" stroke-width="2"/>
<path d="M49.1378 45.4727C54.5111 37.8852 52.714 27.3787 45.1265 22.0068C37.539 16.6348 27.0325 18.4306 21.6606 26.0194C16.2886 33.6069 18.0844 44.1121 25.6732 49.484C31.0888 53.3182 38.2488 53.6134 43.961 50.2401L56.3723 62.577C57.7124 63.9877 59.9421 64.0442 61.3528 62.7041C62.7635 61.3653 62.82 59.1356 61.4812 57.7249C61.4388 57.68 61.3977 57.6389 61.3528 57.5965L49.1378 45.4727ZM35.3889 46.6228C29.3931 46.6241 24.532 41.7669 24.5282 35.7711C24.5269 29.7753 29.3841 24.9142 35.3812 24.9116C41.3693 24.909 46.2279 29.7586 46.2394 35.7467C46.2497 41.7438 41.395 46.6126 35.3966 46.6228C35.3941 46.6228 35.3928 46.6228 35.3889 46.6228Z" fill="#E1CFAA"/>
</svg>
