<svg width="81" height="82" viewBox="0 0 81 82" fill="none" xmlns="http://www.w3.org/2000/svg">
<rect x="1.64648" y="2.1615" width="77.7221" height="77.7221" stroke="#E1CFAA" stroke-width="2"/>
<circle cx="40.2382" cy="41.2918" r="38.5917" stroke="#E1CFAA" stroke-width="2"/>
<circle r="6.10365" transform="matrix(-1 0 0 1 73.2303 8.26514)" stroke="#E1CFAA" stroke-width="2"/>
<circle r="6.10365" transform="matrix(-1 0 0 1 7.74987 8.26514)" stroke="#E1CFAA" stroke-width="2"/>
<circle r="6.10365" transform="matrix(-1 0 0 1 73.2303 73.7798)" stroke="#E1CFAA" stroke-width="2"/>
<circle r="6.10365" transform="matrix(-1 0 0 1 7.74987 73.7798)" stroke="#E1CFAA" stroke-width="2"/>
<path d="M1.08398 1.599L79.8297 80.412" stroke="#E1CFAA" stroke-width="2"/>
<path d="M79.832 1.599L1.08628 80.412" stroke="#E1CFAA" stroke-width="2"/>
<path d="M62.0318 20.2792C60.2069 18.4544 57.239 18.4849 55.4521 20.3469L45.6711 30.5393L21.8017 22.6401L16.7911 27.6508L36.687 39.9011L26.6197 50.3916L20.1636 49.3316L15.6348 53.8605L25.1261 57.1849L28.4505 66.6763L32.9794 62.1474L31.9195 55.6914L42.41 45.6241L54.6603 65.5199L59.671 60.5092L51.7718 36.6399L61.964 26.8589C63.8261 25.072 63.8566 22.1041 62.0318 20.2792Z" fill="#E1CFAA"/>
</svg>
