<svg width="82" height="82" viewBox="0 0 82 82" fill="none" xmlns="http://www.w3.org/2000/svg">
<rect x="2.19531" y="2.1615" width="77.7221" height="77.7221" stroke="#E1CFAA" stroke-width="2"/>
<circle cx="40.787" cy="41.2918" r="38.5917" stroke="#E1CFAA" stroke-width="2"/>
<circle r="6.10365" transform="matrix(-1 0 0 1 73.7792 8.26514)" stroke="#E1CFAA" stroke-width="2"/>
<circle r="6.10365" transform="matrix(-1 0 0 1 8.2987 8.26514)" stroke="#E1CFAA" stroke-width="2"/>
<circle r="6.10365" transform="matrix(-1 0 0 1 73.7792 73.7798)" stroke="#E1CFAA" stroke-width="2"/>
<circle r="6.10365" transform="matrix(-1 0 0 1 8.2987 73.7798)" stroke="#E1CFAA" stroke-width="2"/>
<path d="M1.63281 1.599L80.3786 80.412" stroke="#E1CFAA" stroke-width="2"/>
<path d="M80.3809 1.599L1.63511 80.412" stroke="#E1CFAA" stroke-width="2"/>
<path d="M26.8193 39.5273C26.0084 39.5273 25.3496 40.1861 25.3496 40.997C25.3496 41.8079 26.0084 42.4667 26.8193 42.4667C27.6302 42.4667 28.289 41.8079 28.289 40.997C28.289 40.1861 27.6302 39.5273 26.8193 39.5273Z" fill="#E1CFAA"/>
<path d="M44.7779 37.7362C43.6671 36.6252 41.7324 36.6252 40.6216 37.7361C40.2685 38.0877 40.0217 38.5039 39.8825 38.9732V38.9747C39.3801 40.6682 38.2105 42.0949 36.6719 43.002C39.205 44.4344 42.6625 44.0081 44.778 41.8926C45.9272 40.7432 45.9272 38.8856 44.7779 37.7362Z" fill="#E1CFAA"/>
<path d="M29.7588 51.2845C28.9479 51.2845 28.2891 51.9433 28.2891 52.7542C28.2891 53.5651 28.9479 54.2239 29.7588 54.2239C30.5697 54.2239 31.2285 53.5651 31.2285 52.7542C31.2285 51.9433 30.5697 51.2845 29.7588 51.2845Z" fill="#E1CFAA"/>
<path d="M32.6982 30.709C31.8873 30.709 31.2285 31.3678 31.2285 32.1787C31.2285 32.9897 31.8872 33.6484 32.6982 33.6484C33.5091 33.6484 34.1679 32.9897 34.1679 32.1787C34.1679 31.3678 33.5091 30.709 32.6982 30.709Z" fill="#E1CFAA"/>
<path d="M60.0971 39.1789C59.6253 37.0025 58.8119 34.9445 57.7003 33.0209C54.9165 35.4538 51.2389 38.1877 48.3998 38.5405C48.9081 40.6667 48.25 42.6743 46.8557 44.0688C45.0243 45.9016 42.5887 46.9105 39.9967 46.9105C37.4062 46.9105 34.9705 45.9016 33.1378 44.0688C32.5529 43.482 32.0741 43.0522 32.3642 42.16C32.5336 41.6361 32.9842 41.2501 33.5282 41.1625C35.2303 40.8884 36.6182 39.7401 37.0631 38.2375C37.3387 37.3047 37.851 36.4463 38.5442 35.7545C39.9878 34.3101 42.1298 33.8222 44.0652 34.2598C44.3912 31.423 47.2222 27.6488 49.5994 24.9157C41.2998 20.1341 30.3428 21.0889 22.9894 28.4463C17.758 33.6778 15.5492 40.907 16.9297 48.2811C18.5214 56.7805 25.2684 63.7213 33.7219 65.554C35.3408 65.9042 36.9641 66.0793 38.5744 66.0793C42.3443 66.0793 45.6287 65.3643 46.8802 61.5597C47.6537 59.2088 47.0553 56.6685 45.3172 54.9305C44.1678 53.7811 44.1678 51.9234 45.3172 50.7741C46.4281 49.6632 48.3628 49.6632 49.4736 50.7741C51.2103 52.5108 53.7449 53.1106 56.1029 52.337C58.3848 51.5865 60.0225 49.6617 60.3755 47.3152C60.7802 44.6413 60.687 41.9043 60.0971 39.1789ZM32.6987 27.8679C35.1299 27.8679 37.1077 29.8457 37.1077 32.2769C37.1077 34.7082 35.1299 36.6859 32.6987 36.6859C30.2674 36.6859 28.2897 34.7082 28.2897 32.2769C28.2897 29.8458 30.2673 27.8679 32.6987 27.8679ZM22.411 41.095C22.411 38.6638 24.3887 36.686 26.82 36.686C29.2512 36.686 31.229 38.6638 31.229 41.095C31.229 43.5263 29.2512 45.504 26.82 45.504C24.3887 45.504 22.411 43.5263 22.411 41.095ZM29.7593 57.2614C27.328 57.2614 25.3503 55.2837 25.3503 52.8524C25.3503 50.4212 27.328 48.4434 29.7593 48.4434C32.1905 48.4434 34.1683 50.4212 34.1683 52.8524C34.1684 55.2836 32.1905 57.2614 29.7593 57.2614Z" fill="#E1CFAA"/>
<path d="M66.4796 16.0896C66.4323 16.0423 66.3218 15.9317 65.9586 15.9317C64.1319 15.9317 60.8032 18.1482 57.4746 21.0744L61.4329 25.0327C65.4981 20.4054 67.3076 16.9187 66.4796 16.0896Z" fill="#E1CFAA"/>
<path d="M55.3161 23.0709C55.0156 23.3603 54.7095 23.6484 54.4189 23.939C50.0615 28.2978 46.9041 32.8245 46.9141 34.7047C46.9181 35.5105 47.6024 35.7722 48.2006 35.5627C50.5964 35.1616 55.1658 31.5052 58.5753 28.0956C58.8828 27.7883 59.1472 27.4959 59.4388 27.1937L55.3161 23.0709Z" fill="#E1CFAA"/>
</svg>
