<svg width="82" height="82" viewBox="0 0 82 82" fill="none" xmlns="http://www.w3.org/2000/svg">
<rect x="2.19531" y="2.16147" width="77.7221" height="77.7221" stroke="#E1CFAA" stroke-width="2"/>
<circle cx="40.787" cy="41.2918" r="38.5917" stroke="#E1CFAA" stroke-width="2"/>
<circle r="6.10365" transform="matrix(-1 0 0 1 73.7792 8.26511)" stroke="#E1CFAA" stroke-width="2"/>
<circle r="6.10365" transform="matrix(-1 0 0 1 8.2987 8.26511)" stroke="#E1CFAA" stroke-width="2"/>
<circle r="6.10365" transform="matrix(-1 0 0 1 73.7792 73.7798)" stroke="#E1CFAA" stroke-width="2"/>
<circle r="6.10365" transform="matrix(-1 0 0 1 8.2987 73.7798)" stroke="#E1CFAA" stroke-width="2"/>
<path d="M1.63281 1.59897L80.3786 80.412" stroke="#E1CFAA" stroke-width="2"/>
<path d="M80.3809 1.59897L1.63511 80.412" stroke="#E1CFAA" stroke-width="2"/>
<path d="M63.3352 43.8293H58.3454C57.6038 43.8293 56.8754 44.1304 56.3502 44.6556L53.4121 47.5937H63.2355C63.3183 46.709 63.3748 45.7567 63.3748 44.7703C63.3747 44.441 63.3521 44.1399 63.3352 43.8293Z" fill="#E1CFAA"/>
<path d="M32.4434 43.8297L35.5811 47.5942H45.9935L49.1312 43.8297H32.4434Z" fill="#E1CFAA"/>
<path d="M25.2256 44.6556C24.7005 44.1304 23.9721 43.8293 23.2305 43.8293H18.2407C18.2238 44.1399 18.2012 44.441 18.2012 44.7704C18.2012 45.7567 18.2576 46.7091 18.3405 47.5938H28.1639L25.2256 44.6556Z" fill="#E1CFAA"/>
<path d="M50.2681 48.8944C50.1232 48.5425 50.2042 48.1378 50.4714 47.8686L55.0151 43.3248C55.9055 42.4365 57.0856 41.9471 58.3429 41.9471H63.1275C62.6268 39.3308 61.3318 37.5727 59.1014 36.4077C56.5077 35.0506 50.686 34.4182 40.7854 34.4182C30.8848 34.4182 25.0632 35.0506 22.4694 36.4077C20.239 37.5727 18.9441 39.3308 18.4434 41.9471H23.2279C24.4853 41.9471 25.6655 42.4365 26.5557 43.3248L31.0994 47.8686C31.3686 48.1378 31.4495 48.5424 31.3027 48.8944C31.1559 49.2464 30.8135 49.476 30.4333 49.476H18.5715C18.8369 51.2434 19.1493 52.4575 19.1719 52.5422C19.281 52.9544 19.6537 53.2405 20.081 53.2405H28.3289L31.8958 55.023C32.0257 55.0889 32.1706 55.1228 32.3155 55.1228H49.2555C49.4005 55.1228 49.5454 55.0889 49.6772 55.023L53.244 53.2405H61.49C61.9173 53.2405 62.29 52.9544 62.3991 52.5422C62.4217 52.4575 62.7341 51.2434 62.9995 49.476H51.1377C50.7575 49.476 50.4131 49.2464 50.2681 48.8944ZM47.155 49.1372C46.9761 49.3518 46.7107 49.476 46.4322 49.476H35.1388C34.8603 49.476 34.5949 49.3518 34.416 49.1372L29.7105 43.4905C29.4752 43.2101 29.4263 42.8186 29.5806 42.4892C29.7369 42.1579 30.0681 41.9471 30.4333 41.9471H51.1378C51.503 41.9471 51.8342 42.1579 51.9905 42.4892C52.1448 42.8186 52.0959 43.2101 51.8606 43.4905L47.155 49.1372Z" fill="#E1CFAA"/>
<path d="M59.5321 36.8662C58.4611 34.4043 54.8774 26.29 53.6313 25.2303C52.0785 23.9108 47.6307 23.1241 41.7281 23.1241H39.8459C33.9433 23.1241 29.4955 23.9108 27.9427 25.2284C26.6966 26.2882 23.111 34.4024 22.0419 36.8644C21.8368 37.3425 22.0551 37.8959 22.5313 38.1029C23.0056 38.3099 23.5628 38.0934 23.7698 37.6154C25.8948 32.7235 28.4942 27.2876 29.1624 26.6646C29.887 26.0492 32.9532 25.0064 39.8459 25.0064H41.7281C48.6208 25.0064 51.687 26.0492 52.4078 26.6608C53.0798 27.2876 55.6791 32.7216 57.8042 37.6154C57.9585 37.9711 58.3067 38.1819 58.6681 38.1819C58.7924 38.1819 58.9222 38.1575 59.0427 38.1047C59.5188 37.8977 59.7372 37.3424 59.5321 36.8662Z" fill="#E1CFAA"/>
<path d="M30.4363 52.299C29.9488 52.299 29.5629 52.6735 29.514 53.1478L21.9663 52.393V52.299C21.9663 51.7795 21.5446 51.3578 21.0251 51.3578C20.5056 51.3578 20.084 51.7795 20.084 52.299V56.0634C20.084 57.6201 21.3507 58.8868 22.9073 58.8868H28.554C30.1106 58.8868 31.3773 57.6201 31.3773 56.0634V53.2401C31.3773 52.7206 30.9558 52.299 30.4363 52.299Z" fill="#E1CFAA"/>
<path d="M60.5515 51.3578C60.032 51.3578 59.6104 51.7795 59.6104 52.299V52.3931L52.0626 53.1479C52.0137 52.6736 51.6278 52.299 51.1404 52.299C50.6209 52.299 50.1992 52.7207 50.1992 53.2402V56.0635C50.1992 57.6202 51.4659 58.8869 53.0226 58.8869H58.6692C60.2259 58.8869 61.4926 57.6202 61.4926 56.0635V52.299C61.4927 51.7795 61.071 51.3578 60.5515 51.3578Z" fill="#E1CFAA"/>
</svg>
