<svg width="82" height="82" viewBox="0 0 82 82" fill="none" xmlns="http://www.w3.org/2000/svg">
<rect x="2.19531" y="2.16168" width="77.7221" height="77.7221" stroke="#E1CFAA" stroke-width="2"/>
<circle cx="40.787" cy="41.292" r="38.5917" stroke="#E1CFAA" stroke-width="2"/>
<circle r="6.10365" transform="matrix(-1 0 0 1 73.7792 8.26533)" stroke="#E1CFAA" stroke-width="2"/>
<circle r="6.10365" transform="matrix(-1 0 0 1 8.2987 8.26533)" stroke="#E1CFAA" stroke-width="2"/>
<circle r="6.10365" transform="matrix(-1 0 0 1 73.7792 73.78)" stroke="#E1CFAA" stroke-width="2"/>
<circle r="6.10365" transform="matrix(-1 0 0 1 8.2987 73.78)" stroke="#E1CFAA" stroke-width="2"/>
<path d="M1.63281 1.59918L80.3786 80.4122" stroke="#E1CFAA" stroke-width="2"/>
<path d="M80.3809 1.59918L1.63511 80.4122" stroke="#E1CFAA" stroke-width="2"/>
<path d="M28.695 52.219H54.8154C55.4622 52.219 56.0296 51.7913 56.2047 51.1701L61.9881 30.9291C62.1123 30.4928 62.0272 30.024 61.7535 29.6615C61.4794 29.3 61.0532 29.0866 60.5984 29.0866H25.3573L24.3239 24.436C24.177 23.7738 23.5897 23.3035 22.912 23.3035H14.1411C13.3421 23.3035 12.6953 23.9504 12.6953 24.7493C12.6953 25.5486 13.3421 26.195 14.1411 26.195H21.7516L26.9725 49.6886C25.4364 50.3565 24.3577 51.8854 24.3577 53.6648C24.3577 56.0563 26.3035 58.002 28.695 58.002H54.8154C55.6147 58.002 56.2611 57.3556 56.2611 56.5563C56.2611 55.7574 55.6147 55.1105 54.8154 55.1105H28.695C27.8987 55.1105 27.2493 54.4626 27.2493 53.6648C27.2493 52.867 27.8987 52.219 28.695 52.219Z" fill="#E1CFAA"/>
<path d="M27.25 62.3394C27.25 64.7313 29.1957 66.6767 31.5876 66.6767C33.9792 66.6767 35.9249 64.7313 35.9249 62.3394C35.9249 59.9479 33.9792 58.0021 31.5876 58.0021C29.1957 58.0021 27.25 59.9479 27.25 62.3394Z" fill="#E1CFAA"/>
<path d="M47.5879 62.3394C47.5879 64.7313 49.5336 66.6767 51.9252 66.6767C54.3171 66.6767 56.2624 64.7313 56.2624 62.3394C56.2624 59.9479 54.3171 58.0021 51.9252 58.0021C49.5336 58.0021 47.5879 59.9479 47.5879 62.3394Z" fill="#E1CFAA"/>
</svg>
