<svg width="82" height="82" viewBox="0 0 82 82" fill="none" xmlns="http://www.w3.org/2000/svg">
<rect x="2.19531" y="2.16187" width="77.7221" height="77.7221" stroke="#E1CFAA" stroke-width="2"/>
<circle cx="40.787" cy="41.2921" r="38.5917" stroke="#E1CFAA" stroke-width="2"/>
<circle r="6.10365" transform="matrix(-1 0 0 1 73.7792 8.26551)" stroke="#E1CFAA" stroke-width="2"/>
<circle r="6.10365" transform="matrix(-1 0 0 1 8.2987 8.26551)" stroke="#E1CFAA" stroke-width="2"/>
<circle r="6.10365" transform="matrix(-1 0 0 1 73.7792 73.7802)" stroke="#E1CFAA" stroke-width="2"/>
<circle r="6.10365" transform="matrix(-1 0 0 1 8.2987 73.7802)" stroke="#E1CFAA" stroke-width="2"/>
<path d="M1.63281 1.59937L80.3786 80.4124" stroke="#E1CFAA" stroke-width="2"/>
<path d="M80.3809 1.59937L1.63511 80.4124" stroke="#E1CFAA" stroke-width="2"/>
<path d="M39.0014 47.5268C38.4129 47.5006 37.8637 47.1918 37.6003 46.6473L37.1927 45.8032L35.0779 49.9141H26.7872C25.9281 49.9141 25.2316 50.6106 25.2316 51.4697C25.2316 52.3289 25.9281 53.0254 26.7872 53.0254H27.3525C24.1562 55.6034 22.1074 59.5499 22.1074 63.9665C22.1074 64.8256 22.8039 65.5221 23.663 65.5221H48.6566C49.5157 65.5221 50.2122 64.8256 50.2122 63.9665C50.2122 59.5499 48.1634 55.6034 44.9671 53.0254H45.5324C46.3915 53.0254 47.088 52.3289 47.088 51.4697C47.088 50.6106 46.3915 49.9141 45.5324 49.9141H38.577L39.8694 47.4023C39.8694 47.4023 39.243 47.5375 39.0014 47.5268Z" fill="#E1CFAA"/>
<path d="M52.8092 18.8485C53.5724 19.2416 53.8732 20.1791 53.4801 20.9434L39.8685 47.4023L47.0046 46.2004C47.4921 46.1184 47.9121 45.8094 48.1351 45.3686L59.0451 23.785C59.9951 21.9287 60.1651 19.8151 59.5253 17.8312C58.8843 15.8472 57.5092 14.2315 55.6539 13.2826C53.7985 12.3326 51.6839 12.1625 49.7 12.8024C47.7171 13.4433 46.1013 14.8185 45.1483 16.68L34.2341 38.2709C34.0153 38.7034 34.0101 39.2126 34.2216 39.6492L37.1918 45.8032L50.7143 19.5195C51.1073 18.7562 52.0448 18.4555 52.8092 18.8485Z" fill="#E1CFAA"/>
</svg>
