<svg width="82" height="82" viewBox="0 0 82 82" fill="none" xmlns="http://www.w3.org/2000/svg">
<rect x="2.19531" y="2.27332" width="77.7221" height="77.7221" stroke="#E1CFAA" stroke-width="2"/>
<circle cx="40.787" cy="41.4036" r="38.5917" stroke="#E1CFAA" stroke-width="2"/>
<circle r="6.10365" transform="matrix(-1 0 0 1 73.7792 8.37696)" stroke="#E1CFAA" stroke-width="2"/>
<circle r="6.10365" transform="matrix(-1 0 0 1 8.2987 8.37696)" stroke="#E1CFAA" stroke-width="2"/>
<circle r="6.10365" transform="matrix(-1 0 0 1 73.7792 73.8916)" stroke="#E1CFAA" stroke-width="2"/>
<circle r="6.10365" transform="matrix(-1 0 0 1 8.2987 73.8916)" stroke="#E1CFAA" stroke-width="2"/>
<path d="M1.63281 1.71082L80.3786 80.5238" stroke="#E1CFAA" stroke-width="2"/>
<path d="M80.3809 1.71082L1.63511 80.5238" stroke="#E1CFAA" stroke-width="2"/>
<path d="M67.0475 20.6881C66.1243 20.6881 65.3752 21.4366 65.3752 22.3604V24.0328H54.2266V34.0666H67.0475C67.9708 34.0666 68.7199 33.3181 68.7199 32.3943V25.705V22.3604C68.7199 21.4366 67.9708 20.6881 67.0475 20.6881Z" fill="#E1CFAA"/>
<path d="M36.4656 24.0328C31.7077 24.0328 27.4706 26.7871 25.4394 30.6814C24.689 30.5168 24.1248 29.8488 24.1248 29.0496V25.7051C24.1248 24.7812 23.3757 24.0327 22.4525 24.0327C21.5292 24.0327 20.7801 24.7812 20.7801 25.7051V29.0496C20.7801 31.3096 22.2919 33.2027 24.3499 33.8284C24.2769 34.2239 24.2217 34.6244 24.1933 35.0307C19.8906 39.5522 17.4355 45.6682 17.4355 51.9181V59.1511C17.4355 60.0746 18.1843 60.8234 19.1079 60.8234H30.814C31.7376 60.8234 32.4864 60.0747 32.4864 59.1511V54.1342H35.831C38.6019 54.1342 40.8479 51.8881 40.8479 49.1173V47.4449H45.8648C48.6357 47.4449 50.8817 45.1989 50.8817 42.428V24.0328H36.4656ZM37.5032 49.1173C37.5032 50.0394 36.753 50.7896 35.8309 50.7896H32.4863V49.1173C32.4863 48.1952 33.2365 47.4449 34.1586 47.4449H37.5032V49.1173ZM44.1923 39.0834C44.1923 40.0073 43.4432 40.7558 42.52 40.7558H35.8308C33.0643 40.7558 30.8138 38.5053 30.8138 35.7389C30.8138 32.9724 33.0643 30.722 35.8308 30.722H42.52C43.4432 30.722 44.1923 31.4705 44.1923 32.3943V39.0834Z" fill="#E1CFAA"/>
<path d="M35.8305 34.0665C34.9084 34.0665 34.1582 34.8168 34.1582 35.7389C34.1582 36.661 34.9084 37.4112 35.8305 37.4112H40.8475V34.0666H35.8305V34.0665Z" fill="#E1CFAA"/>
<path d="M54.2266 37.4112V40.7558H60.3583C61.2815 40.7558 62.0306 40.0073 62.0306 39.0835V37.4111H54.2266V37.4112Z" fill="#E1CFAA"/>
</svg>
