<svg width="82" height="82" viewBox="0 0 82 82" fill="none" xmlns="http://www.w3.org/2000/svg">
<rect x="2.19531" y="2.16199" width="77.7221" height="77.7221" stroke="#E1CFAA" stroke-width="2"/>
<circle cx="40.787" cy="41.2923" r="38.5917" stroke="#E1CFAA" stroke-width="2"/>
<circle r="6.10365" transform="matrix(-1 0 0 1 73.7792 8.26563)" stroke="#E1CFAA" stroke-width="2"/>
<circle r="6.10365" transform="matrix(-1 0 0 1 8.2987 8.26563)" stroke="#E1CFAA" stroke-width="2"/>
<circle r="6.10365" transform="matrix(-1 0 0 1 73.7792 73.7803)" stroke="#E1CFAA" stroke-width="2"/>
<circle r="6.10365" transform="matrix(-1 0 0 1 8.2987 73.7803)" stroke="#E1CFAA" stroke-width="2"/>
<path d="M1.63281 1.59949L80.3786 80.4125" stroke="#E1CFAA" stroke-width="2"/>
<path d="M80.3809 1.59949L1.63511 80.4125" stroke="#E1CFAA" stroke-width="2"/>
<path d="M31.5221 21.6186L39.0071 17.1211L38.2575 15.8735C37.8438 15.185 36.9493 14.9616 36.2604 15.3756L31.2704 18.3739C30.5818 18.7876 30.3585 19.682 30.7724 20.3709L31.5221 21.6186Z" fill="#E1CFAA"/>
<path d="M61.6334 49.1332C61.2162 48.4463 60.3206 48.227 59.6337 48.6442L51.5117 53.5779C51.8979 54.5045 52.1492 55.499 52.2433 56.5391L61.1444 51.1319C61.8322 50.7147 62.0505 49.8201 61.6334 49.1332Z" fill="#E1CFAA"/>
<path d="M53.7414 61.9336H49.3752V57.4705C49.3752 53.458 46.1108 50.1936 42.0984 50.1936C38.0859 50.1936 34.8215 53.458 34.8215 57.4705V61.9336H30.4554C29.6516 61.9336 29 62.5852 29 63.389C29 64.1927 29.6516 64.8444 30.4554 64.8444H53.7414C54.5451 64.8444 55.1967 64.1927 55.1967 63.389C55.1967 62.5852 54.5451 61.9336 53.7414 61.9336ZM42.0984 58.9258C41.2946 58.9258 40.643 58.2742 40.643 57.4705C40.643 56.6667 41.2946 56.0151 42.0984 56.0151C42.9021 56.0151 43.5537 56.6667 43.5537 57.4705C43.5537 58.2742 42.9021 58.9258 42.0984 58.9258Z" fill="#E1CFAA"/>
<path d="M31.2745 26.86L32.8098 29.4152L35.914 27.5381C39.5937 25.3133 44.3376 26.5531 46.5211 30.1221C48.7683 33.7958 47.5904 38.5882 43.8954 40.801L40.7742 42.6702L41.7686 44.3251C42.1843 45.0168 43.0826 45.2366 43.77 44.8204C43.8159 44.7929 44.303 44.5001 45.0386 44.0581L47.2714 47.7741C47.686 48.4643 48.5815 48.685 49.2685 48.2721L54.2584 45.2738C54.9474 44.8598 55.1703 43.9658 54.7564 43.2767L52.5235 39.5607C53.2685 39.1131 53.7457 38.8264 53.7457 38.8264C54.4346 38.4124 54.6575 37.5183 54.2436 36.8293C54.2089 36.7714 43.74 19.3454 43.7017 19.2899C43.2661 18.6557 42.4121 18.4702 41.7526 18.8665L31.7724 24.863C31.0835 25.277 30.8605 26.1711 31.2745 26.86Z" fill="#E1CFAA"/>
<path d="M31.9106 57.4708C31.9106 54.6227 33.0858 52.0445 34.9762 50.1939H33.3659C30.9585 50.1939 28.9998 48.2353 28.9998 45.8278C28.9998 43.4203 30.9585 41.4617 33.3654 41.4617C33.366 41.4617 36.724 41.4631 36.7238 41.4631C36.9872 41.463 37.2456 41.3916 37.4716 41.2563L42.4011 38.304C44.7062 36.9235 45.4415 33.9334 44.0394 31.6414C42.6569 29.3816 39.688 28.6586 37.4214 30.0291L32.9482 32.7341C25.9182 32.9548 20.2676 38.7436 20.2676 45.8278C20.2676 52.5583 25.3705 58.1185 31.9106 58.8448V57.4708Z" fill="#E1CFAA"/>
</svg>
