<svg width="82" height="82" viewBox="0 0 82 82" fill="none" xmlns="http://www.w3.org/2000/svg">
<rect x="2.19531" y="2.27356" width="77.7221" height="77.7221" stroke="#E1CFAA" stroke-width="2"/>
<circle cx="40.787" cy="41.4038" r="38.5917" stroke="#E1CFAA" stroke-width="2"/>
<circle r="6.10365" transform="matrix(-1 0 0 1 73.7792 8.37721)" stroke="#E1CFAA" stroke-width="2"/>
<circle r="6.10365" transform="matrix(-1 0 0 1 8.2987 8.37721)" stroke="#E1CFAA" stroke-width="2"/>
<circle r="6.10365" transform="matrix(-1 0 0 1 73.7792 73.8919)" stroke="#E1CFAA" stroke-width="2"/>
<circle r="6.10365" transform="matrix(-1 0 0 1 8.2987 73.8919)" stroke="#E1CFAA" stroke-width="2"/>
<path d="M1.63281 1.71106L80.3786 80.5241" stroke="#E1CFAA" stroke-width="2"/>
<path d="M80.3809 1.71106L1.63511 80.5241" stroke="#E1CFAA" stroke-width="2"/>
<path d="M59.0555 61.7128H27.9083L52.9038 52.3579C53.2699 52.221 53.5529 51.9238 53.6721 51.5516L57.7344 38.8687L44.9755 26.1099L32.2927 30.1722C31.9205 30.2914 31.6234 30.5745 31.4863 30.9405L19.7563 62.2826L19.9513 62.0876C19.7207 62.3186 19.5781 62.6374 19.5781 62.9895C19.5781 63.6946 20.1497 64.2662 20.8548 64.2662H59.0555C59.7605 64.2662 60.3322 63.6946 60.3322 62.9895C60.3322 62.2844 59.7605 61.7128 59.0555 61.7128ZM20.8548 61.7128C20.5027 61.7128 20.184 61.8554 19.953 62.0859L35.718 46.3209C34.4148 44.213 34.6567 41.3865 36.5154 39.5276C38.6663 37.3768 42.1659 37.3768 44.3167 39.5276C46.4726 41.6835 46.4728 45.1729 44.3167 47.3289C42.4885 49.1571 39.6672 49.4437 37.5248 48.125L23.937 61.7128H20.8548Z" fill="#E1CFAA"/>
<path d="M62.781 30.8614L52.9821 21.0625C52.7427 20.823 52.418 20.6885 52.0793 20.6885C51.7406 20.6885 51.4159 20.823 51.1766 21.0625L47.3574 24.8816L58.9619 36.4861L62.7811 32.667C63.0205 32.4276 63.1551 32.1029 63.1551 31.7643C63.155 31.4256 63.0205 31.1008 62.781 30.8614Z" fill="#E1CFAA"/>
</svg>
