<svg width="82" height="82" viewBox="0 0 82 82" fill="none" xmlns="http://www.w3.org/2000/svg">
<rect x="2.19531" y="2.1615" width="77.7221" height="77.7221" stroke="#E1CFAA" stroke-width="2"/>
<circle cx="40.787" cy="41.2918" r="38.5917" stroke="#E1CFAA" stroke-width="2"/>
<circle r="6.10365" transform="matrix(-1 0 0 1 73.7792 8.26514)" stroke="#E1CFAA" stroke-width="2"/>
<circle r="6.10365" transform="matrix(-1 0 0 1 8.2987 8.26514)" stroke="#E1CFAA" stroke-width="2"/>
<circle r="6.10365" transform="matrix(-1 0 0 1 73.7792 73.7798)" stroke="#E1CFAA" stroke-width="2"/>
<circle r="6.10365" transform="matrix(-1 0 0 1 8.2987 73.7798)" stroke="#E1CFAA" stroke-width="2"/>
<path d="M1.63281 1.599L80.3786 80.412" stroke="#E1CFAA" stroke-width="2"/>
<path d="M80.3809 1.599L1.63511 80.412" stroke="#E1CFAA" stroke-width="2"/>
<path d="M28.7133 41.975C29.0643 41.3073 29.4977 40.6861 30.0033 40.1262C27.9756 35.198 23.9503 31.3629 18.9297 29.5762C21.8274 32.4026 24.0055 37.0691 24.8151 42.6511C25.985 41.9483 27.375 41.7073 28.7133 41.975Z" fill="#E1CFAA"/>
<path d="M44.4009 41.4083C45.4495 40.9363 46.6192 40.8027 47.7472 41.0261C48.4007 38.9803 49.365 37.0471 50.6062 35.2946C50.7268 32.2996 51.3029 22.0581 53.6229 17.4846C46.8456 19.2274 41.5781 27.6801 41.0488 38.2385C42.4202 38.9892 43.5748 40.081 44.4009 41.4083Z" fill="#E1CFAA"/>
<path d="M31.5045 38.7949C33.6721 37.2377 36.4225 36.7315 39.0023 37.415C38.2501 27.2426 33.0791 19.1809 26.4766 17.4843C28.7955 22.0565 29.3727 32.295 29.4938 35.2987C30.276 36.396 30.9495 37.5669 31.5045 38.7949Z" fill="#E1CFAA"/>
<path d="M62.5092 50.4707C62.1477 50.4262 61.8433 50.1792 61.7255 49.8345C61.366 48.7564 60.4773 47.939 59.3729 47.6705C58.2686 47.4021 57.1038 47.7203 56.2895 48.5132C56.0788 48.7162 55.7865 48.8108 55.4968 48.77C55.2072 48.7291 54.9524 48.5572 54.8061 48.3038C54.2236 47.2669 53.1265 46.6254 51.9372 46.6263C51.8254 46.6299 51.714 46.6411 51.6038 46.6602L51.4985 46.6751C50.9978 46.7427 50.5318 46.4068 50.4375 45.9104C50.1987 44.6514 49.3406 43.5979 48.1559 43.1094C46.9713 42.6208 45.6201 42.7631 44.5632 43.4877C44.3336 43.6452 44.0464 43.694 43.7776 43.6213C43.5087 43.5488 43.2852 43.3619 43.1661 43.1102C41.9615 40.5501 39.3561 38.9454 36.5279 39.0218C33.6996 39.0981 31.1844 40.8408 30.1197 43.4621C29.929 43.9304 29.405 44.1676 28.9274 44.0017C28.5306 43.8565 28.1121 43.7794 27.6895 43.7737C26.1407 43.7712 24.7465 44.7122 24.1696 46.1496C23.9901 46.5907 23.5123 46.8312 23.051 46.7128C22.3965 46.5287 21.6941 46.641 21.1298 47.0202C20.5654 47.3994 20.1959 48.0072 20.119 48.6828C20.0519 49.1849 19.6022 49.5457 19.0975 49.5022C18.9517 49.4902 18.805 49.4791 18.6559 49.4791C15.7687 49.4823 13.429 51.8218 13.4258 54.7089V59.9388H66.6758V55.1844C66.6737 52.7874 64.8876 50.7669 62.5092 50.4707ZM25.7683 49.7148C25.6641 50.2293 25.1626 50.5622 24.648 50.4581C24.5536 50.4392 24.4574 50.4298 24.3611 50.4299C23.5737 50.4307 22.9356 51.0689 22.9348 51.8562C22.9347 51.9525 22.9442 52.0487 22.963 52.1431C23.0304 52.476 22.915 52.8196 22.6604 53.0444C22.4058 53.2692 22.0505 53.341 21.7285 53.233C21.4065 53.1248 21.1667 52.8531 21.0993 52.5202C20.8775 51.4259 21.2188 50.2932 22.0084 49.5036C22.798 48.714 23.9307 48.3727 25.025 48.5945C25.2722 48.6444 25.4895 48.7904 25.6289 49.0006C25.7683 49.2107 25.8185 49.4677 25.7683 49.7148ZM33.5835 45.0416C33.4702 45.362 33.1946 45.5974 32.8606 45.6595C32.5265 45.7215 32.1848 45.6006 31.964 45.3424C31.7433 45.0842 31.677 44.7277 31.7903 44.4074C32.3567 42.8067 33.6647 41.5804 35.2986 41.1184C36.9325 40.6564 38.6891 41.016 40.0098 42.0831C40.418 42.4134 40.4813 43.0121 40.1509 43.4203C39.8206 43.8285 39.222 43.8918 38.8138 43.5614C38.2232 43.0805 37.4841 42.8195 36.7226 42.8227C35.3124 42.8242 34.0554 43.7126 33.5835 45.0416ZM44.5077 55.5006C44.3314 55.9934 43.7899 56.2511 43.2963 56.077C42.8027 55.9029 42.5426 55.3626 42.7145 54.8682C43.1402 53.6589 42.8341 52.3125 41.9275 51.4059C41.0209 50.4993 39.6746 50.1934 38.4652 50.6189C38.1445 50.7337 37.7868 50.668 37.5278 50.4468C37.2687 50.2256 37.1477 49.8827 37.2107 49.5479C37.2738 49.2131 37.5111 48.9376 37.8329 48.8258C39.7327 48.1561 41.8483 48.6365 43.2726 50.0609C44.6969 51.4852 45.1772 53.6007 44.5077 55.5006ZM53.3633 52.3317C52.8382 52.3317 52.4124 51.906 52.4124 51.3808C52.4122 51.041 52.2308 50.7272 51.9366 50.5574C51.6423 50.3875 51.2799 50.3874 50.9855 50.5572C50.5306 50.8195 49.9494 50.6635 49.6868 50.2086C49.4243 49.7539 49.58 49.1725 50.0346 48.9097C50.9174 48.4006 52.0048 48.4008 52.8874 48.9105C53.7699 49.4201 54.3138 50.3616 54.3141 51.3808C54.3142 51.906 53.8884 52.3317 53.3633 52.3317ZM63.8231 56.1352C63.2979 56.1352 62.8722 55.7095 62.8722 55.1843C62.8719 54.8445 62.6906 54.5307 62.3963 54.3609C62.1021 54.1911 61.7397 54.191 61.4453 54.3607C60.9904 54.623 60.4091 54.467 60.1466 54.0122C59.8841 53.5575 60.0398 52.976 60.4944 52.7133C61.3772 52.2042 62.4646 52.2044 63.3471 52.714C64.2297 53.2236 64.7736 54.1652 64.7739 55.1843C64.774 55.7095 64.3483 56.1352 63.8231 56.1352Z" fill="#E1CFAA"/>
<path d="M52.0829 44.7261C53.1278 44.7593 54.1384 45.1067 54.9826 45.7233C55.3517 38.835 57.7543 32.8975 61.1937 29.5521C55.611 31.5336 51.2891 36.031 49.5312 41.6882C50.7184 42.3626 51.6238 43.4406 52.0829 44.7261Z" fill="#E1CFAA"/>
</svg>
