<svg width="40" height="41" viewBox="0 0 40 41" fill="none" xmlns="http://www.w3.org/2000/svg">
<circle cx="20" cy="20.5469" r="19.5" stroke="#092640"/>
<path d="M24.1665 12.2134H15.8332C13.532 12.2134 11.6665 14.0789 11.6665 16.38V24.7134C11.6665 27.0146 13.532 28.88 15.8332 28.88H24.1665C26.4677 28.88 28.3332 27.0146 28.3332 24.7134V16.38C28.3332 14.0789 26.4677 12.2134 24.1665 12.2134Z" stroke="#092640" stroke-linecap="round" stroke-linejoin="round"/>
<path d="M23.3333 20.0216C23.4361 20.7152 23.3176 21.4235 22.9947 22.0458C22.6718 22.6681 22.1609 23.1728 21.5346 23.488C20.9083 23.8032 20.1986 23.913 19.5064 23.8016C18.8142 23.6902 18.1747 23.3634 17.679 22.8676C17.1832 22.3718 16.8564 21.7324 16.745 21.0401C16.6336 20.3479 16.7433 19.6382 17.0585 19.0119C17.3737 18.3857 17.8784 17.8748 18.5007 17.5518C19.1231 17.2289 19.8314 17.1105 20.5249 17.2133C21.2324 17.3182 21.8873 17.6479 22.393 18.1536C22.8987 18.6593 23.2283 19.3142 23.3333 20.0216Z" stroke="#092640" stroke-linecap="round" stroke-linejoin="round"/>
<path d="M24.5835 15.9634H24.5918" stroke="#092640" stroke-linecap="round" stroke-linejoin="round"/>
</svg>
