<svg width="41" height="41" viewBox="0 0 41 41" fill="none" xmlns="http://www.w3.org/2000/svg">
<path d="M29.4168 13.8888C28.6188 14.4516 27.7353 14.8822 26.8002 15.1638C26.2983 14.5867 25.6313 14.1777 24.8894 13.992C24.1474 13.8064 23.3664 13.8531 22.6519 14.1258C21.9374 14.3985 21.3239 14.8841 20.8943 15.5168C20.4648 16.1496 20.2399 16.899 20.2502 17.6638V18.4971C18.7857 18.5351 17.3346 18.2103 16.026 17.5516C14.7174 16.893 13.5921 15.9209 12.7502 14.7221C12.7502 14.7221 9.41683 22.2221 16.9168 25.5554C15.2006 26.7204 13.1561 27.3045 11.0835 27.2221C18.5835 31.3888 27.7502 27.2221 27.7502 17.6388C27.7494 17.4066 27.7271 17.1751 27.6835 16.9471C28.534 16.1083 29.1342 15.0493 29.4168 13.8888V13.8888Z" stroke="#092640" stroke-linecap="round" stroke-linejoin="round"/>
<circle cx="20.25" cy="20.5469" r="19.5" stroke="#092640"/>
</svg>
