<svg width="41" height="41" viewBox="0 0 41 41" fill="none" xmlns="http://www.w3.org/2000/svg">
<circle cx="20.75" cy="20.3564" r="19.5" stroke="#092640"/>
<path d="M30.4999 24.0677C30.0276 23.5016 29.494 22.9962 28.9779 22.5074C28.7965 22.3356 28.6089 22.1579 28.4282 21.9815C28.4282 21.9815 28.4281 21.9814 28.4281 21.9814C28.1851 21.7443 28.0661 21.5761 28.0537 21.4518C28.0414 21.3297 28.1249 21.1485 28.3169 20.8806C28.604 20.4777 28.91 20.0741 29.206 19.6838C29.4692 19.3369 29.7412 18.9781 30.0019 18.6173L30.0605 18.5363C30.5692 17.8322 31.0952 17.1041 31.3771 16.2168C31.4576 15.9625 31.5411 15.586 31.3395 15.2555C31.1378 14.925 30.7639 14.827 30.5003 14.7821C30.3716 14.7601 30.2494 14.7583 30.1358 14.7583L26.8359 14.7553C26.2654 14.7458 25.8696 15.0162 25.6539 15.5593C25.4813 15.993 25.2774 16.4956 25.0412 16.9724C24.5893 17.8929 24.0151 18.953 23.1828 19.8364L23.1458 19.8757C23.0891 19.9362 22.9966 20.0351 22.949 20.0578C22.8588 20.0011 22.7548 19.6771 22.7596 19.5073C22.7597 19.5031 22.7597 19.4989 22.7597 19.4948L22.7568 15.6818C22.7568 15.6624 22.7554 15.6431 22.7529 15.6238C22.6788 15.0799 22.5346 14.5345 21.6736 14.3646C21.646 14.3592 21.6179 14.3564 21.5898 14.3564H18.1572C17.5114 14.3564 17.1698 14.6522 16.896 14.9728C16.8167 15.0663 16.6061 15.3145 16.7134 15.6179C16.822 15.9249 17.1455 15.9862 17.2517 16.0063C17.6258 16.0773 17.8192 16.2887 17.8791 16.6929C17.9975 17.4783 18.012 18.3184 17.9248 19.3356C17.9005 19.6086 17.8553 19.8162 17.7824 19.9888C17.7622 20.0366 17.7444 20.0662 17.7321 20.0837C17.7123 20.0757 17.6815 20.0604 17.639 20.0313C17.3761 19.8514 17.178 19.5718 16.9864 19.3015C16.2212 18.2211 15.5776 17.0279 15.0185 15.6531C14.7882 15.0897 14.3553 14.7751 13.8004 14.7669C12.7432 14.7493 11.7654 14.7498 10.8121 14.7683C10.3625 14.7761 10.0472 14.9176 9.87487 15.189C9.7023 15.4609 9.70862 15.8076 9.8937 16.2196C11.2168 19.1617 12.4181 21.302 13.7889 23.1594C14.7541 24.467 15.7256 25.3747 16.8465 26.016C18.0241 26.6897 19.3521 27.0199 20.8929 27.0198C21.0681 27.0198 21.2463 27.0155 21.427 27.0069C22.3776 26.9636 22.7643 26.5855 22.8065 25.6597C22.8302 25.1704 22.8846 24.774 23.0736 24.4296C23.1264 24.3332 23.186 24.2686 23.233 24.2568C23.283 24.2443 23.3716 24.2749 23.4701 24.3389C23.6502 24.4559 23.8053 24.6145 23.9329 24.7537C24.0622 24.8952 24.1928 25.0414 24.3192 25.1828C24.5882 25.4838 24.8664 25.7951 25.1579 26.0919C25.8171 26.7639 26.577 27.0721 27.4175 27.0075L30.4374 27.0089C30.4375 27.0089 30.4375 27.0089 30.4376 27.0089C30.4472 27.0089 30.4568 27.0086 30.4663 27.008C30.8147 26.9848 31.1158 26.7919 31.2927 26.4788C31.5056 26.1017 31.5024 25.624 31.2839 25.2005C31.0559 24.7602 30.7601 24.3813 30.4999 24.0677ZM30.5394 26.0534C30.4978 26.1272 30.4464 26.1406 30.4199 26.1439L27.4006 26.1425C27.4005 26.1425 27.4004 26.1425 27.4003 26.1425C27.3884 26.1425 27.3765 26.1429 27.3646 26.1439C26.7698 26.1935 26.2642 25.9844 25.7753 25.486C25.498 25.2035 25.2266 24.9 24.9642 24.6064C24.8363 24.4633 24.7041 24.3153 24.5713 24.17C24.4066 23.99 24.203 23.7833 23.9413 23.6134C23.5496 23.3591 23.225 23.3668 23.0217 23.418C22.8205 23.4687 22.5346 23.6133 22.3151 24.0139C22.0308 24.5321 21.9681 25.0912 21.9425 25.6193C21.9278 25.9424 21.8731 26.0277 21.8503 26.0494C21.8204 26.0778 21.7205 26.1277 21.3871 26.143C19.785 26.2183 18.4404 25.9314 17.2761 25.2652C16.2632 24.6857 15.3763 23.8533 14.485 22.6458C13.1522 20.8399 11.9795 18.7487 10.6828 15.8651C10.6358 15.7606 10.6213 15.6954 10.6171 15.6605C10.6502 15.6497 10.7148 15.6354 10.8281 15.6333C11.7717 15.615 12.7393 15.6145 13.787 15.632C13.9304 15.6341 14.0938 15.6772 14.2174 15.9798C14.8016 17.4162 15.4764 18.6663 16.2805 19.8016C16.4941 20.1029 16.7598 20.478 17.1504 20.7452C17.5081 20.9902 17.7984 20.9785 17.979 20.9256C18.1597 20.8726 18.4104 20.7254 18.5793 20.3256C18.6883 20.0678 18.7541 19.7776 18.7868 19.4109C18.8799 18.3229 18.8634 17.4184 18.7348 16.5652C18.6442 15.9539 18.3285 15.5123 17.8313 15.2868C17.9196 15.2408 18.0191 15.2216 18.1573 15.2216H21.545C21.7356 15.2644 21.7734 15.3146 21.7863 15.3318C21.8412 15.4048 21.8726 15.5774 21.8918 15.7124L21.8947 19.4901C21.887 19.8523 22.063 20.6555 22.6623 20.8757C22.6672 20.8776 22.6722 20.8793 22.6771 20.8809C23.2227 21.0592 23.5836 20.674 23.7774 20.4671L23.8119 20.4304C24.7236 19.4627 25.3375 18.3321 25.8171 17.3552C26.0671 16.8507 26.2788 16.3289 26.4578 15.879C26.5474 15.6534 26.6289 15.6163 26.8234 15.6204C26.8261 15.6205 26.8287 15.6205 26.8314 15.6205L30.1355 15.6234C30.2124 15.6234 30.2926 15.6243 30.3548 15.635C30.5122 15.6618 30.5771 15.6944 30.5985 15.7079C30.6007 15.733 30.6002 15.8051 30.5526 15.9556C30.3129 16.71 29.8497 17.3511 29.3594 18.0297L29.3008 18.1109C29.0461 18.4634 28.777 18.8181 28.5169 19.1612C28.2171 19.5565 27.9071 19.9652 27.6133 20.3777C26.985 21.2543 27.0402 21.836 27.8243 22.6008C28.0096 22.7817 28.1995 22.9616 28.3832 23.1356C28.9041 23.629 29.3961 24.0949 29.8352 24.6211C30.065 24.8982 30.3256 25.231 30.5155 25.5978C30.6146 25.7898 30.5903 25.9633 30.5394 26.0534Z" fill="#092640"/>
</svg>
