<svg width="342" height="54" viewBox="0 0 342 54" fill="none" xmlns="http://www.w3.org/2000/svg">
<path d="M28.1677 16.29C28.0939 17.5172 27.8073 18.608 27.3078 19.5625C26.8139 20.5169 26.1611 21.2508 25.3494 21.7641C24.5433 22.2775 23.6691 22.5221 22.7268 22.498C21.4326 22.4579 20.4136 21.8684 19.67 20.7295C18.9264 19.5905 18.5205 18.0466 18.4524 16.0975C18.4013 14.7982 18.5006 13.3825 18.7504 11.8506C19.0058 10.3186 19.4174 8.98719 19.985 7.85627C20.5584 6.71733 21.231 5.86714 22.003 5.30569C22.7807 4.73622 23.6294 4.46352 24.549 4.48758C25.9 4.51966 26.9672 5.09314 27.7505 6.20802C28.5396 7.32289 28.9681 8.85885 29.0363 10.8159L26.1327 10.8039C26.1441 9.73712 26.0078 8.97515 25.724 8.51797C25.4402 8.0608 24.9917 7.81616 24.3787 7.78408C22.846 7.71189 21.9122 9.39624 21.5773 12.8371C21.424 14.3931 21.3474 15.504 21.3474 16.1697C21.319 18.1428 21.8356 19.1574 22.8971 19.2136C23.584 19.2457 24.1317 19.009 24.5404 18.5037C24.9492 17.9904 25.2103 17.2686 25.3238 16.3382L28.1677 16.29Z" fill="#244774"/>
<path d="M36.4226 18.985H32.4633L31.3649 22.2574H28.1548L34.7197 4.74023H37.4614L39.7519 22.2574H36.7207L36.4226 18.985ZM33.5532 15.7246H36.1246L35.5797 9.68499L33.5532 15.7246Z" fill="#244774"/>
<path d="M50.9955 22.2574H48.1005L48.9945 14.9425H44.7457L43.8431 22.2574H40.931L43.0768 4.74023H45.9973L45.1373 11.6942H49.3947L50.2462 4.74023H53.1497L50.9955 22.2574Z" fill="#244774"/>
<path d="M58.2542 15.3275H56.8322L55.9722 22.2574H53.0602L55.2059 4.74023H58.1265L57.292 11.5137H58.3223L61.4643 4.74023H65.1426L60.7405 13.0176L63.2864 22.2574H59.9571L58.2542 15.3275Z" fill="#244774"/>
<path d="M75.4922 8.00064H71.8819L70.1364 22.2574H67.2158L68.9698 8.00064H65.4192L65.8279 4.74023H75.8924L75.4922 8.00064Z" fill="#244774"/>
<path d="M78.9533 16.278H73.9721L74.3553 13.1379H79.3364L78.9533 16.278Z" fill="#244774"/>
<path d="M90.878 22.2574H87.966L89.7115 8.00064H85.4115L83.6575 22.2574H80.7455L82.8912 4.74023H93.0323L90.878 22.2574Z" fill="#244774"/>
<path d="M101.313 14.8343H96.7573L96.2379 19.009H101.628L101.228 22.2574H92.9257L95.0714 4.74023H103.39L102.99 8.00064H97.5918L97.132 11.6942H101.696L101.313 14.8343Z" fill="#244774"/>
<path d="M114.029 8.00064H110.419L108.674 22.2574H105.753L107.507 8.00064H103.956L104.365 4.74023H114.43L114.029 8.00064Z" fill="#244774"/>
<path d="M122.131 14.8343H117.576L117.056 19.009H122.446L122.046 22.2574H113.744L115.89 4.74023H124.209L123.808 8.00064H118.41L117.95 11.6942H122.514L122.131 14.8343Z" fill="#244774"/>
<path d="M127.116 16.3141L126.384 22.2574H123.472L125.618 4.74023L130.071 4.75226C131.45 4.75226 132.534 5.29366 133.323 6.37645C134.118 7.45924 134.467 8.86286 134.371 10.5873C134.303 11.7664 134.036 12.789 133.57 13.6552C133.105 14.5215 132.489 15.1832 131.723 15.6403C130.962 16.0975 130.108 16.3261 129.16 16.3261L127.116 16.3141ZM127.516 13.0537L129.27 13.0777C130.008 13.0537 130.573 12.7168 130.965 12.0671C131.357 11.4094 131.513 10.6034 131.433 9.64889C131.388 9.15963 131.254 8.77464 131.033 8.49391C130.817 8.20517 130.531 8.04475 130.173 8.01267L128.138 8.00064L127.516 13.0537Z" fill="#244774"/>
<path d="M144.644 8.00064H139.433L139.092 10.7678L140.437 10.7798C141.3 10.8119 142.067 11.0605 142.736 11.5257C143.412 11.9909 143.92 12.6406 144.261 13.4748C144.607 14.3089 144.749 15.2674 144.686 16.3502C144.595 18.1388 144.045 19.5705 143.034 20.6453C142.03 21.72 140.781 22.2574 139.288 22.2574H134.75L136.895 4.74023H145.044L144.644 8.00064ZM138.692 14.0162L138.079 19.009L139.416 19.0211C140.023 19.0211 140.545 18.7764 140.982 18.2872C141.425 17.7899 141.689 17.1362 141.774 16.3261C141.848 15.6524 141.752 15.111 141.485 14.7019C141.218 14.2849 140.829 14.0603 140.318 14.0282L138.692 14.0162Z" fill="#244774"/>
<path d="M151.264 12.3078L151.238 12.4642L154.184 4.74023H157.369L151.638 18.6481C151.111 20.0036 150.532 20.9902 149.901 21.6077C149.277 22.2253 148.562 22.5422 147.756 22.5582L146.776 22.5341L146.947 19.2136L147.492 19.2858C147.912 19.3018 148.264 19.1895 148.548 18.9489C148.831 18.7002 149.09 18.2751 149.322 17.6736L149.561 17.06L146.776 4.74023L149.689 4.7282L151.264 12.3078Z" fill="#244774"/>
<path d="M160.03 16.3141L159.297 22.2574H156.385L158.531 4.74023L162.984 4.75226C164.364 4.75226 165.448 5.29366 166.237 6.37645C167.032 7.45924 167.381 8.86286 167.284 10.5873C167.216 11.7664 166.949 12.789 166.484 13.6552C166.018 14.5215 165.402 15.1832 164.636 15.6403C163.875 16.0975 163.021 16.3261 162.073 16.3261L160.03 16.3141ZM160.43 13.0537L162.184 13.0777C162.922 13.0537 163.487 12.7168 163.878 12.0671C164.27 11.4094 164.426 10.6034 164.347 9.64889C164.301 9.15963 164.168 8.77464 163.946 8.49391C163.731 8.20517 163.444 8.04475 163.086 8.01267L161.051 8.00064L160.43 13.0537Z" fill="#244774"/>
<path d="M177.54 8.00064H172.312L170.558 22.2574H167.646L169.792 4.74023H177.94L177.54 8.00064Z" fill="#244774"/>
<path d="M187.166 16.29C187.092 17.5172 186.805 18.608 186.306 19.5625C185.812 20.5169 185.159 21.2508 184.347 21.7641C183.541 22.2775 182.667 22.5221 181.725 22.498C180.431 22.4579 179.412 21.8684 178.668 20.7295C177.924 19.5905 177.519 18.0466 177.45 16.0975C177.399 14.7982 177.499 13.3825 177.748 11.8506C178.004 10.3186 178.415 8.98719 178.983 7.85627C179.556 6.71733 180.229 5.86714 181.001 5.30569C181.779 4.73622 182.627 4.46352 183.547 4.48758C184.898 4.51966 185.965 5.09314 186.749 6.20802C187.538 7.32289 187.966 8.85885 188.034 10.8159L185.131 10.8039C185.142 9.73712 185.006 8.97515 184.722 8.51797C184.438 8.0608 183.99 7.81616 183.377 7.78408C181.844 7.71189 180.91 9.39624 180.575 12.8371C180.422 14.3931 180.345 15.504 180.345 16.1697C180.317 18.1428 180.834 19.1574 181.895 19.2136C182.582 19.2457 183.13 19.009 183.538 18.5037C183.947 17.9904 184.208 17.2686 184.322 16.3382L187.166 16.29Z" fill="#244774"/>
<path d="M193.318 15.3275H191.896L191.036 22.2574H188.124L190.269 4.74023H193.19L192.355 11.5137H193.386L196.528 4.74023H200.206L195.804 13.0176L198.35 22.2574H195.021L193.318 15.3275Z" fill="#244774"/>
<path d="M208.478 4.74023H211.467L209.321 22.2574H206.4L207.737 11.4535L202.177 22.2574H199.18L201.334 4.74023H204.255L202.918 15.5561L208.478 4.74023Z" fill="#244774"/>
<path d="M220.454 4.74023H223.442L221.297 22.2574H218.376L219.713 11.4535L214.153 22.2574H211.156L213.31 4.74023H216.23L214.894 15.5561L220.454 4.74023ZM221.918 0C221.884 1.14696 221.564 2.06132 220.956 2.74308C220.354 3.42484 219.608 3.74967 218.717 3.71759C217.871 3.70155 217.181 3.36067 216.648 2.69495C216.12 2.02121 215.85 1.1229 215.839 0L217.729 0.0240621C217.718 1.01863 218.047 1.53195 218.717 1.56403C219.074 1.57206 219.364 1.43971 219.585 1.16701C219.812 0.886286 219.957 0.505304 220.02 0.0240621L221.918 0Z" fill="#244774"/>
<path d="M236.913 4.74023H239.901L237.755 22.2574H234.835L236.172 11.4535L230.612 22.2574H227.614L229.769 4.74023H232.689L231.352 15.5561L236.913 4.74023Z" fill="#244774"/>
<path d="M249.825 22.2574H246.93L247.824 14.9425H243.575L242.673 22.2574H239.761L241.906 4.74023H244.827L243.967 11.6942H248.224L249.076 4.74023H251.979L249.825 22.2574Z" fill="#244774"/>
<path d="M262.295 16.29C262.221 17.5172 261.934 18.608 261.435 19.5625C260.941 20.5169 260.288 21.2508 259.476 21.7641C258.67 22.2775 257.796 22.5221 256.854 22.498C255.56 22.4579 254.541 21.8684 253.797 20.7295C253.053 19.5905 252.647 18.0466 252.579 16.0975C252.528 14.7982 252.628 13.3825 252.877 11.8506C253.133 10.3186 253.544 8.98719 254.112 7.85627C254.685 6.71733 255.358 5.86714 256.13 5.30569C256.908 4.73622 257.756 4.46352 258.676 4.48758C260.027 4.51966 261.094 5.09314 261.878 6.20802C262.667 7.32289 263.095 8.85885 263.163 10.8159L260.26 10.8039C260.271 9.73712 260.135 8.97515 259.851 8.51797C259.567 8.0608 259.119 7.81616 258.506 7.78408C256.973 7.71189 256.039 9.39624 255.704 12.8371C255.551 14.3931 255.474 15.504 255.474 16.1697C255.446 18.1428 255.963 19.1574 257.024 19.2136C257.711 19.2457 258.259 19.009 258.667 18.5037C259.076 17.9904 259.337 17.2686 259.451 16.3382L262.295 16.29Z" fill="#244774"/>
<path d="M274.219 8.00064H270.609L268.864 22.2574H265.943L267.697 8.00064H264.147L264.555 4.74023H274.62L274.219 8.00064Z" fill="#244774"/>
<path d="M283.062 4.74023H286.051L283.905 22.2574H280.984L282.321 11.4535L276.761 22.2574H273.764L275.918 4.74023H278.839L277.502 15.5561L283.062 4.74023Z" fill="#244774"/>
<path d="M296.86 8.00064H293.25L291.504 22.2574H288.584L290.338 8.00064H286.787L287.196 4.74023H297.26L296.86 8.00064Z" fill="#244774"/>
<path d="M302.407 12.3078L302.382 12.4642L305.328 4.74023H308.512L302.782 18.6481C302.254 20.0036 301.675 20.9902 301.045 21.6077C300.42 22.2253 299.705 22.5422 298.899 22.5582L297.92 22.5341L298.09 19.2136L298.635 19.2858C299.055 19.3018 299.407 19.1895 299.691 18.9489C299.975 18.7002 300.233 18.2751 300.466 17.6736L300.704 17.06L297.92 4.74023L300.832 4.7282L302.407 12.3078Z" fill="#244774"/>
<path d="M318.887 8.00064H315.277L313.532 22.2574H310.611L312.365 8.00064H308.814L309.223 4.74023H319.288L318.887 8.00064Z" fill="#244774"/>
<path d="M10.2378 48.9281H7.34278L8.23685 41.6133H3.98797L3.08541 48.9281H0.17334L2.31907 31.411H5.23963L4.37963 38.3649H8.63703L9.48851 31.411H12.392L10.2378 48.9281Z" fill="#244774"/>
<path d="M20.7066 41.505H16.1511L15.6317 45.6798H21.0216L20.6214 48.9281H12.3195L14.4652 31.411H22.7842L22.384 34.6714H16.9856L16.5258 38.3649H21.0897L20.7066 41.505Z" fill="#244774"/>
<path d="M27.565 38.4371C28.0816 38.421 28.5045 38.2245 28.8337 37.8476C29.1687 37.4626 29.3702 36.9051 29.4383 36.1752C29.4894 35.6459 29.3957 35.2208 29.1573 34.9C28.9189 34.5791 28.5755 34.4107 28.127 34.3946C27.6729 34.3786 27.2841 34.535 26.9605 34.8639C26.6426 35.1927 26.4468 35.6339 26.373 36.1873L23.4609 36.2113C23.5007 35.2168 23.7305 34.3385 24.1506 33.5765C24.5763 32.8146 25.1639 32.221 25.9132 31.7959C26.6625 31.3628 27.4515 31.1543 28.2803 31.1703C29.5689 31.2024 30.5935 31.6476 31.3541 32.5058C32.1204 33.356 32.4667 34.543 32.3929 36.067C32.3134 37.7513 31.55 39.0667 30.1025 40.0131C30.6474 40.3981 31.0447 40.9355 31.2945 41.6253C31.5443 42.3071 31.6493 43.073 31.6096 43.9232C31.5244 45.7439 30.8886 47.1275 29.7022 48.0739C28.7656 48.8199 27.6757 49.1808 26.4326 49.1567L26.0579 49.1327C24.8715 49.0124 23.9321 48.495 23.2395 47.5807C22.547 46.6663 22.2064 45.4913 22.2178 44.0556H25.1128C25.1128 44.609 25.2405 45.0541 25.4959 45.391C25.7514 45.7199 26.1147 45.8923 26.5858 45.9084C27.1364 45.9244 27.6133 45.7399 28.0163 45.3549C28.425 44.9699 28.6634 44.4606 28.7316 43.827C28.8962 42.3672 28.4761 41.6133 27.4714 41.5652L25.7684 41.5531L26.1516 38.4251L27.565 38.4371Z" fill="#244774"/>
<path d="M40.2306 45.6557H36.2712L35.1728 48.9281H31.9628L38.5276 31.411H41.2694L43.5599 48.9281H40.5286L40.2306 45.6557ZM37.3611 42.3953H39.9326L39.3876 36.3557L37.3611 42.3953Z" fill="#244774"/>
<path d="M44.739 48.9281L46.8847 31.411L50.827 31.423C52.3824 31.431 53.5433 31.8481 54.3096 32.6742C55.0759 33.5003 55.425 34.6593 55.3569 36.1512C55.2718 37.9959 54.5565 39.3033 53.2112 40.0733C53.6937 40.3139 54.0683 40.751 54.3351 41.3847C54.6076 42.0103 54.724 42.7642 54.6842 43.6465C54.6048 45.3389 54.1308 46.6422 53.2623 47.5566C52.3994 48.471 51.2159 48.9281 49.7116 48.9281H44.739ZM48.5706 41.4809L48.0512 45.6798L49.7968 45.6918C50.3417 45.6918 50.7958 45.5033 51.1591 45.1263C51.5224 44.7413 51.7381 44.232 51.8062 43.5984C51.9652 42.2589 51.6019 41.5571 50.7164 41.493L48.5706 41.4809ZM48.9027 38.7138L50.2736 38.7258C51.5395 38.6857 52.249 38 52.4023 36.6685C52.5385 35.3531 52.056 34.6914 50.9548 34.6834L49.4051 34.6714L48.9027 38.7138Z" fill="#244774"/>
<path d="M65.0423 31.411H68.031L65.8853 48.9281H62.9647L64.3015 38.1243L58.7414 48.9281H55.7442L57.8984 31.411H60.819L59.4822 42.2269L65.0423 31.411Z" fill="#244774"/>
<path d="M78.2784 42.9608C78.2046 44.1879 77.9179 45.2787 77.4184 46.2332C76.9245 47.1877 76.2717 47.9215 75.46 48.4349C74.6539 48.9482 73.7797 49.1928 72.8374 49.1688C71.5432 49.1287 70.5242 48.5391 69.7806 47.4002C69.037 46.2613 68.6311 44.7173 68.563 42.7683C68.5119 41.4689 68.6113 40.0532 68.861 38.5213C69.1165 36.9893 69.528 35.6579 70.0957 34.527C70.669 33.3881 71.3417 32.5379 72.1137 31.9764C72.8913 31.4069 73.74 31.1342 74.6596 31.1583C76.0106 31.1904 77.0778 31.7639 77.8611 32.8787C78.6502 33.9936 79.0788 35.5296 79.1469 37.4866L76.2433 37.4746C76.2547 36.4078 76.1185 35.6459 75.8346 35.1887C75.5508 34.7315 75.1023 34.4869 74.4893 34.4548C72.9566 34.3826 72.0228 36.067 71.6879 39.5078C71.5347 41.0639 71.458 42.1747 71.458 42.8404C71.4297 44.8135 71.9462 45.8281 73.0077 45.8843C73.6946 45.9164 74.2424 45.6798 74.6511 45.1745C75.0598 44.6611 75.3209 43.9393 75.4344 43.0089L78.2784 42.9608Z" fill="#244774"/>
<path d="M88.3809 31.411H91.3696L89.2239 48.9281H86.3033L87.6402 38.1243L82.08 48.9281H79.0828L81.237 31.411H84.1576L82.8208 42.2269L88.3809 31.411Z" fill="#244774"/>
<path d="M97.1553 31.411L98.3388 43.5623L102.494 31.411H106.377L104.231 48.9281H101.302L101.83 44.6331L103.09 36.7166L98.7475 48.9281H96.8147L95.4097 36.2595L94.6264 45.0421L94.141 48.9281H91.229L93.3747 31.411H97.1553Z" fill="#244774"/>
<path d="M111.439 49.1688C110.15 49.1287 109.117 48.5271 108.339 47.3641C107.562 46.2011 107.122 44.6451 107.019 42.6961C106.963 41.7336 107.017 40.6027 107.181 39.3033C107.346 37.9959 107.638 36.7928 108.058 35.694C108.478 34.5952 109.003 33.6808 109.633 32.9509C110.689 31.7238 111.904 31.1302 113.278 31.1703C114.124 31.1944 114.862 31.4711 115.492 32.0005C116.127 32.5218 116.635 33.2758 117.016 34.2623C117.396 35.2489 117.618 36.3718 117.68 37.631C117.725 38.5213 117.686 39.5359 117.561 40.6749C117.442 41.8058 117.217 42.8886 116.888 43.9232C116.565 44.9499 116.144 45.8562 115.628 46.6423C115.111 47.4283 114.501 48.0539 113.797 48.5191C113.099 48.9763 112.313 49.1928 111.439 49.1688ZM114.759 37.5949C114.703 35.5897 114.152 34.547 113.108 34.4668C112.301 34.4107 111.634 34.8639 111.107 35.8263C110.579 36.7808 110.23 38.1925 110.059 40.0613C109.951 41.2163 109.912 42.1106 109.94 42.7442C109.997 44.7814 110.553 45.8281 111.609 45.8843C112.301 45.9324 112.897 45.5835 113.397 44.8376C113.897 44.0837 114.257 42.9928 114.478 41.5652C114.7 40.1294 114.793 38.806 114.759 37.5949Z" fill="#244774"/>
<path d="M127.391 31.411H130.38L128.234 48.9281H125.313L126.65 38.1243L121.09 48.9281H118.093L120.247 31.411H123.168L121.831 42.2269L127.391 31.411Z" fill="#244774"/>
<path d="M137.532 42.9968C137.481 44.9138 138.051 45.9003 139.243 45.9565C140.412 46.0206 141.253 45.0782 141.763 43.1292L142.07 41.7817L138.656 41.7937L139.064 38.5333H142.317C142.351 38.1002 142.365 37.647 142.36 37.1738C142.314 35.4012 141.798 34.4829 140.81 34.4187C140.078 34.3786 139.504 34.6313 139.09 35.1767C138.675 35.7141 138.414 36.48 138.306 37.4746L135.411 37.4866C135.531 36.2434 135.843 35.1406 136.348 34.1781C136.859 33.2076 137.52 32.4577 138.332 31.9283C139.149 31.3989 140.032 31.1463 140.98 31.1703C141.809 31.1944 142.53 31.4711 143.143 32.0005C143.762 32.5218 144.247 33.2758 144.599 34.2623C144.951 35.2489 145.152 36.3758 145.203 37.643C145.255 38.8702 145.155 40.2538 144.905 41.7937C144.661 43.3257 144.27 44.6491 143.73 45.764C143.191 46.8708 142.527 47.725 141.738 48.3266C140.955 48.9201 140.069 49.2049 139.081 49.1808C137.73 49.1487 136.657 48.5752 135.863 47.4604C135.068 46.3455 134.659 44.8576 134.637 42.9968H137.532Z" fill="#244774"/>
<path d="M150.921 41.9983H149.499L148.639 48.9281H145.727L147.873 31.411H150.793L149.959 38.1844H150.989L154.131 31.411H157.809L153.407 39.6883L155.953 48.9281H152.624L150.921 41.9983Z" fill="#244774"/>
<path d="M167.069 42.9608C166.995 44.1879 166.709 45.2787 166.209 46.2332C165.715 47.1877 165.062 47.9215 164.251 48.4349C163.445 48.9482 162.57 49.1928 161.628 49.1688C160.334 49.1287 159.315 48.5391 158.571 47.4002C157.828 46.2613 157.422 44.7173 157.354 42.7683C157.303 41.4689 157.402 40.0532 157.652 38.5213C157.907 36.9893 158.319 35.6579 158.886 34.527C159.46 33.3881 160.132 32.5379 160.904 31.9764C161.682 31.4069 162.531 31.1342 163.45 31.1583C164.801 31.1904 165.868 31.7639 166.652 32.8787C167.441 33.9936 167.869 35.5296 167.938 37.4866L165.034 37.4746C165.045 36.4078 164.909 35.6459 164.625 35.1887C164.341 34.7315 163.893 34.4869 163.28 34.4548C161.747 34.3826 160.814 36.067 160.479 39.5078C160.325 41.0639 160.249 42.1747 160.249 42.8404C160.22 44.8135 160.737 45.8281 161.798 45.8843C162.485 45.9164 163.033 45.6798 163.442 45.1745C163.85 44.6611 164.112 43.9393 164.225 43.0089L167.069 42.9608Z" fill="#244774"/>
<path d="M178.159 48.9281H175.247L176.993 34.6714H172.693L170.939 48.9281H168.027L170.173 31.411H180.314L178.159 48.9281Z" fill="#244774"/>
<path d="M188.594 41.505H184.039L183.519 45.6798H188.909L188.509 48.9281H180.207L182.353 31.411H190.672L190.271 34.6714H184.873L184.413 38.3649H188.977L188.594 41.505Z" fill="#244774"/>
<path d="M193.579 42.9848L192.847 48.9281H189.935L192.081 31.411L196.534 31.423C197.913 31.423 198.997 31.9644 199.787 33.0472C200.581 34.13 200.93 35.5336 200.834 37.258C200.766 38.4371 200.499 39.4597 200.033 40.326C199.568 41.1922 198.952 41.8539 198.186 42.3111C197.425 42.7683 196.571 42.9968 195.623 42.9968L193.579 42.9848ZM193.979 39.7244L195.734 39.7485C196.471 39.7244 197.036 39.3875 197.428 38.7379C197.82 38.0802 197.976 37.2741 197.896 36.3196C197.851 35.8304 197.717 35.4454 197.496 35.1646C197.28 34.8759 196.994 34.7155 196.636 34.6834L194.601 34.6714L193.979 39.7244Z" fill="#244774"/>
<path d="M212.418 34.6714H208.808L207.062 48.9281H204.142L205.896 34.6714H202.345L202.754 31.411H212.818L212.418 34.6714Z" fill="#244774"/>
<path d="M221.26 31.411H224.249L222.103 48.9281H219.183L220.52 38.1243L214.96 48.9281H211.962L214.117 31.411H217.037L215.7 42.2269L221.26 31.411Z" fill="#244774"/>
<path d="M229.626 38.4371C230.143 38.421 230.566 38.2245 230.895 37.8476C231.23 37.4626 231.431 36.9051 231.499 36.1752C231.55 35.6459 231.457 35.2208 231.218 34.9C230.98 34.5791 230.636 34.4107 230.188 34.3946C229.734 34.3786 229.345 34.535 229.021 34.8639C228.704 35.1927 228.508 35.6339 228.434 36.1873L225.522 36.2113C225.562 35.2168 225.792 34.3385 226.212 33.5765C226.637 32.8146 227.225 32.221 227.974 31.7959C228.723 31.3628 229.513 31.1543 230.341 31.1703C231.63 31.2024 232.654 31.6476 233.415 32.5058C234.181 33.356 234.528 34.543 234.454 36.067C234.374 37.7513 233.611 39.0667 232.163 40.0131C232.708 40.3981 233.106 40.9355 233.356 41.6253C233.605 42.3071 233.71 43.073 233.671 43.9232C233.585 45.7439 232.95 47.1275 231.763 48.0739C230.827 48.8199 229.737 49.1808 228.494 49.1567L228.119 49.1327C226.933 49.0124 225.993 48.495 225.301 47.5807C224.608 46.6663 224.267 45.4913 224.279 44.0556H227.174C227.174 44.609 227.302 45.0541 227.557 45.391C227.812 45.7199 228.176 45.8923 228.647 45.9084C229.197 45.9244 229.674 45.7399 230.077 45.3549C230.486 44.9699 230.724 44.4606 230.793 43.827C230.957 42.3672 230.537 41.6133 229.532 41.5652L227.829 41.5531L228.213 38.4251L229.626 38.4371Z" fill="#244774"/>
<path d="M239.337 37.4385L240.682 37.4505C241.545 37.4826 242.311 37.7313 242.981 38.1965C243.657 38.6617 244.165 39.3113 244.505 40.1455C244.852 40.9796 244.994 41.9381 244.931 43.0209C244.84 44.8095 244.29 46.2412 243.279 47.316C242.275 48.3908 241.026 48.9281 239.533 48.9281H235.003L237.149 31.411H240.078L239.337 37.4385ZM238.937 40.6869L238.324 45.6798L239.661 45.6918C240.268 45.6918 240.79 45.4472 241.227 44.9579C241.67 44.4606 241.934 43.8069 242.019 42.9968C242.093 42.3231 241.996 41.7817 241.73 41.3727C241.463 40.9556 241.074 40.731 240.563 40.6989L238.937 40.6869ZM247.997 48.9281H245.084L247.239 31.411H250.142L247.997 48.9281Z" fill="#244774"/>
<path d="M263.629 31.411H266.618L264.472 48.9281H261.552L262.889 38.1243L257.328 48.9281H254.331L256.485 31.411H259.406L258.069 42.2269L263.629 31.411Z" fill="#244774"/>
<path d="M276.078 49.1688C274.789 49.1287 273.756 48.5271 272.978 47.3641C272.201 46.2011 271.761 44.6451 271.658 42.6961C271.602 41.7336 271.656 40.6027 271.82 39.3033C271.985 37.9959 272.277 36.7928 272.697 35.694C273.117 34.5952 273.642 33.6808 274.272 32.9509C275.328 31.7238 276.543 31.1302 277.917 31.1703C278.763 31.1944 279.501 31.4711 280.131 32.0005C280.766 32.5218 281.274 33.2758 281.655 34.2623C282.035 35.2489 282.256 36.3718 282.319 37.631C282.364 38.5213 282.325 39.5359 282.2 40.6749C282.08 41.8058 281.856 42.8886 281.527 43.9232C281.203 44.9499 280.783 45.8562 280.267 46.6423C279.75 47.4283 279.14 48.0539 278.436 48.5191C277.738 48.9763 276.952 49.1928 276.078 49.1688ZM279.398 37.5949C279.342 35.5897 278.791 34.547 277.746 34.4668C276.94 34.4107 276.273 34.8639 275.745 35.8263C275.218 36.7808 274.868 38.1925 274.698 40.0613C274.59 41.2163 274.551 42.1106 274.579 42.7442C274.636 44.7814 275.192 45.8281 276.248 45.8843C276.94 45.9324 277.536 45.5835 278.036 44.8376C278.536 44.0837 278.896 42.9928 279.117 41.5652C279.339 40.1294 279.432 38.806 279.398 37.5949Z" fill="#244774"/>
<path d="M284.852 31.411H287.755L286.001 45.6798H290.301L292.055 31.411H294.984L293.222 45.7159H295.07L293.997 53.151H291.238L291.757 48.9281H282.706L284.852 31.411Z" fill="#244774"/>
<path d="M304.61 41.505H300.055L299.535 45.6798H304.925L304.525 48.9281H296.223L298.369 31.411H306.688L306.288 34.6714H300.889L300.429 38.3649H304.993L304.61 41.505Z" fill="#244774"/>
<path d="M316.016 48.9281H313.121L314.015 41.6133H309.766L308.863 48.9281H305.951L308.097 31.411H311.017L310.157 38.3649H314.415L315.266 31.411H318.17L316.016 48.9281Z" fill="#244774"/>
<path d="M323.274 41.9983H321.852L320.992 48.9281H318.08L320.226 31.411H323.147L322.312 38.1844H323.342L326.484 31.411H330.163L325.761 39.6883L328.306 48.9281H324.977L323.274 41.9983Z" fill="#244774"/>
<path d="M338.435 31.411H341.423L339.278 48.9281H336.357L337.694 38.1243L332.134 48.9281H329.137L331.291 31.411H334.211L332.875 42.2269L338.435 31.411Z" fill="#244774"/>
<path d="M128.275 28.9449C128.882 28.2631 129.203 27.3487 129.237 26.2018L127.338 26.2258C127.276 26.7071 127.131 27.0881 126.904 27.3688C126.682 27.6415 126.393 27.7738 126.035 27.7658C125.365 27.7337 125.036 27.2204 125.048 26.2258L123.157 26.2018C123.169 27.3247 123.438 28.223 123.966 28.8967C124.5 29.5625 125.189 29.9033 126.035 29.9194C126.926 29.9515 127.673 29.6266 128.275 28.9449Z" fill="#244774"/>
</svg>
