<svg width="1000" height="41" viewBox="0 0 1000 41" fill="none" xmlns="http://www.w3.org/2000/svg">
<path d="M15.5392 25.2222C15.4249 27.1222 14.9811 28.8111 14.2076 30.289C13.443 31.7668 12.4323 32.9031 11.1754 33.6979C9.92737 34.4927 8.57386 34.8714 7.11487 34.8342C5.11097 34.7721 3.53333 33.8593 2.38196 32.0959C1.2306 30.3324 0.60218 27.9418 0.496711 24.9241C0.417609 22.9123 0.571418 20.7204 0.958137 18.3485C1.35364 15.9765 1.99085 13.915 2.86976 12.164C3.75745 10.4006 4.79896 9.0842 5.99427 8.2149C7.19837 7.33318 8.51234 6.91095 9.93616 6.9482C12.028 6.99788 13.6803 7.88581 14.8932 9.61199C16.1149 11.3382 16.7785 13.7163 16.8839 16.7465L12.3883 16.7278C12.4059 15.0762 12.195 13.8964 11.7555 13.1885C11.316 12.4807 10.6217 12.1019 9.67249 12.0522C7.29945 11.9405 5.85364 14.5484 5.33509 19.876C5.09778 22.2852 4.97913 24.0051 4.97913 25.0359C4.93519 28.0909 5.73499 29.6618 7.37855 29.7488C8.44202 29.7984 9.29017 29.4321 9.92298 28.6497C10.5558 27.8549 10.9601 26.7372 11.1359 25.2967L15.5392 25.2222Z" fill="#244774"/>
<path d="M28.3204 29.3948H22.1901L20.4894 34.4616H15.5192L25.6837 7.33939H29.9288L33.4752 34.4616H28.7818L28.3204 29.3948ZM23.8776 24.3467H27.859L27.0152 14.9955L23.8776 24.3467Z" fill="#244774"/>
<path d="M50.8839 34.4616H46.4015L47.7857 23.1358H41.2071L39.8097 34.4616H35.3009L38.6231 7.33939H43.1451L41.8136 18.1063H48.4054L49.7237 7.33939H54.2193L50.8839 34.4616Z" fill="#244774"/>
<path d="M62.1226 23.7319H59.921L58.5894 34.4616H54.0806L57.4029 7.33939H61.9249L60.6329 17.8269H62.2281L67.0928 7.33939H72.7882L65.9722 20.1554L69.9141 34.4616H64.7593L62.1226 23.7319Z" fill="#244774"/>
<path d="M88.8126 12.3876H83.2227L80.5201 34.4616H75.9981L78.7139 12.3876H73.2164L73.8492 7.33939H89.4322L88.8126 12.3876Z" fill="#244774"/>
<path d="M94.1714 25.2035H86.459L87.0523 20.3417H94.7647L94.1714 25.2035Z" fill="#244774"/>
<path d="M112.635 34.4616H108.126L110.829 12.3876H104.171L101.455 34.4616H96.9463L100.269 7.33939H115.97L112.635 34.4616Z" fill="#244774"/>
<path d="M128.791 22.9682H121.738L120.934 29.4321H129.279L128.659 34.4616H115.805L119.127 7.33939H132.008L131.388 12.3876H123.03L122.318 18.1063H129.384L128.791 22.9682Z" fill="#244774"/>
<path d="M148.48 12.3876H142.891L140.188 34.4616H135.666L138.382 12.3876H132.884L133.517 7.33939H149.1L148.48 12.3876Z" fill="#244774"/>
<path d="M161.024 22.9682H153.971L153.167 29.4321H161.512L160.893 34.4616H148.039L151.361 7.33939H164.241L163.622 12.3876H155.263L154.551 18.1063H161.618L161.024 22.9682Z" fill="#244774"/>
<path d="M168.743 25.2594L167.609 34.4616H163.101L166.423 7.33939L173.318 7.35802C175.454 7.35802 177.132 8.19627 178.354 9.87278C179.584 11.5493 180.125 13.7226 179.976 16.3925C179.87 18.2181 179.457 19.8015 178.736 21.1427C178.016 22.4839 177.062 23.5084 175.875 24.2163C174.698 24.9241 173.375 25.2781 171.907 25.2781L168.743 25.2594ZM169.363 20.2113L172.079 20.2485C173.221 20.2113 174.096 19.6897 174.702 18.6838C175.309 17.6655 175.55 16.4174 175.427 14.9396C175.357 14.182 175.15 13.5859 174.808 13.1513C174.474 12.7042 174.03 12.4559 173.476 12.4062L170.325 12.3876L169.363 20.2113Z" fill="#244774"/>
<path d="M195.881 12.3876H187.813L187.286 16.672L189.369 16.6906C190.704 16.7403 191.891 17.1252 192.928 17.8455C193.974 18.5658 194.761 19.5717 195.288 20.8632C195.824 22.1548 196.044 23.6388 195.947 25.3153C195.807 28.0847 194.954 30.3014 193.39 31.9655C191.834 33.6296 189.9 34.4616 187.589 34.4616H180.562L183.884 7.33939H196.501L195.881 12.3876ZM186.666 21.7015L185.717 29.4321L187.787 29.4507C188.727 29.4507 189.536 29.0719 190.212 28.3144C190.898 27.5444 191.307 26.5323 191.438 25.2781C191.553 24.2349 191.403 23.3966 190.99 22.7633C190.577 22.1175 189.975 21.7698 189.184 21.7201L186.666 21.7015Z" fill="#244774"/>
<path d="M206.131 19.0563L206.092 19.2985L210.653 7.33939H215.584L206.711 28.8732C205.894 30.972 204.997 32.4995 204.022 33.4557C203.055 34.4119 201.948 34.9025 200.7 34.9273L199.183 34.89L199.447 29.7488L200.291 29.8605C200.941 29.8854 201.486 29.7115 201.926 29.3389C202.365 28.954 202.765 28.2958 203.125 27.3644L203.495 26.4144L199.183 7.33939L203.692 7.32076L206.131 19.0563Z" fill="#244774"/>
<path d="M219.703 25.2594L218.57 34.4616H214.061L217.383 7.33939L224.278 7.35802C226.414 7.35802 228.093 8.19627 229.314 9.87278C230.545 11.5493 231.085 13.7226 230.936 16.3925C230.83 18.2181 230.417 19.8015 229.697 21.1427C228.976 22.4839 228.022 23.5084 226.836 24.2163C225.658 24.9241 224.335 25.2781 222.868 25.2781L219.703 25.2594ZM220.323 20.2113L223.039 20.2485C224.182 20.2113 225.056 19.6897 225.662 18.6838C226.269 17.6655 226.511 16.4174 226.388 14.9396C226.317 14.182 226.111 13.5859 225.768 13.1513C225.434 12.7042 224.99 12.4559 224.436 12.4062L221.286 12.3876L220.323 20.2113Z" fill="#244774"/>
<path d="M246.815 12.3876H238.721L236.005 34.4616H231.496L234.818 7.33939H247.435L246.815 12.3876Z" fill="#244774"/>
<path d="M261.719 25.2222C261.605 27.1222 261.161 28.8111 260.388 30.289C259.623 31.7668 258.612 32.9031 257.355 33.6979C256.107 34.4927 254.754 34.8714 253.295 34.8342C251.291 34.7721 249.713 33.8593 248.562 32.0959C247.41 30.3324 246.782 27.9418 246.677 24.9241C246.597 22.9123 246.751 20.7204 247.138 18.3485C247.534 15.9765 248.171 13.915 249.05 12.164C249.937 10.4006 250.979 9.0842 252.174 8.2149C253.378 7.33318 254.692 6.91095 256.116 6.9482C258.208 6.99788 259.86 7.88581 261.073 9.61199C262.295 11.3382 262.958 13.7163 263.064 16.7465L258.568 16.7278C258.586 15.0762 258.375 13.8964 257.935 13.1885C257.496 12.4807 256.802 12.1019 255.852 12.0522C253.479 11.9405 252.034 14.5484 251.515 19.876C251.278 22.2852 251.159 24.0051 251.159 25.0359C251.115 28.0909 251.915 29.6618 253.558 29.7488C254.622 29.7984 255.47 29.4321 256.103 28.6497C256.736 27.8549 257.14 26.7372 257.316 25.2967L261.719 25.2222Z" fill="#244774"/>
<path d="M271.244 23.7319H269.042L267.711 34.4616H263.202L266.524 7.33939H271.046L269.754 17.8269H271.349L276.214 7.33939H281.909L275.094 20.1554L279.035 34.4616H273.881L271.244 23.7319Z" fill="#244774"/>
<path d="M294.717 7.33939H299.345L296.022 34.4616H291.5L293.57 17.7338L284.961 34.4616H280.321L283.656 7.33939H288.178L286.108 24.0859L294.717 7.33939Z" fill="#244774"/>
<path d="M313.26 7.33939H317.887L314.565 34.4616H310.043L312.113 17.7338L303.504 34.4616H298.863L302.198 7.33939H306.72L304.651 24.0859L313.26 7.33939ZM315.527 0C315.474 1.77586 314.978 3.19158 314.037 4.24716C313.106 5.30274 311.95 5.80569 310.57 5.75602C309.26 5.73118 308.193 5.20339 307.366 4.17265C306.549 3.12949 306.132 1.7386 306.114 0L309.041 0.0372558C309.023 1.57716 309.533 2.37195 310.57 2.42163C311.124 2.43405 311.572 2.22914 311.915 1.80691C312.266 1.37225 312.49 0.782372 312.587 0.0372558L315.527 0Z" fill="#244774"/>
<path d="M338.743 7.33939H343.37L340.048 34.4616H335.526L337.596 17.7338L328.987 34.4616H324.346L327.682 7.33939H332.204L330.134 24.0859L338.743 7.33939Z" fill="#244774"/>
<path d="M358.736 34.4616H354.253L355.637 23.1358H349.059L347.661 34.4616H343.153L346.475 7.33939H350.997L349.665 18.1063H356.257L357.575 7.33939H362.071L358.736 34.4616Z" fill="#244774"/>
<path d="M378.043 25.2222C377.928 27.1222 377.485 28.8111 376.711 30.289C375.946 31.7668 374.936 32.9031 373.679 33.6979C372.431 34.4927 371.077 34.8714 369.618 34.8342C367.614 34.7721 366.037 33.8593 364.885 32.0959C363.734 30.3324 363.106 27.9418 363 24.9241C362.921 22.9123 363.075 20.7204 363.462 18.3485C363.857 15.9765 364.494 13.915 365.373 12.164C366.261 10.4006 367.302 9.0842 368.498 8.2149C369.702 7.33318 371.016 6.91095 372.44 6.9482C374.531 6.99788 376.184 7.88581 377.397 9.61199C378.618 11.3382 379.282 13.7163 379.387 16.7465L374.892 16.7278C374.909 15.0762 374.698 13.8964 374.259 13.1885C373.82 12.4807 373.125 12.1019 372.176 12.0522C369.803 11.9405 368.357 14.5484 367.839 19.876C367.601 22.2852 367.483 24.0051 367.483 25.0359C367.439 28.0909 368.238 29.6618 369.882 29.7488C370.945 29.7984 371.794 29.4321 372.426 28.6497C373.059 27.8549 373.464 26.7372 373.639 25.2967L378.043 25.2222Z" fill="#244774"/>
<path d="M396.506 12.3876H390.916L388.214 34.4616H383.692L386.407 12.3876H380.91L381.543 7.33939H397.126L396.506 12.3876Z" fill="#244774"/>
<path d="M410.197 7.33939H414.824L411.502 34.4616H406.98L409.05 17.7338L400.441 34.4616H395.8L399.136 7.33939H403.658L401.588 24.0859L410.197 7.33939Z" fill="#244774"/>
<path d="M431.561 12.3876H425.971L423.268 34.4616H418.746L421.462 12.3876H415.964L416.597 7.33939H432.18L431.561 12.3876Z" fill="#244774"/>
<path d="M440.15 19.0563L440.11 19.2985L444.671 7.33939H449.602L440.73 28.8732C439.912 30.972 439.016 32.4995 438.04 33.4557C437.073 34.4119 435.966 34.9025 434.718 34.9273L433.202 34.89L433.465 29.7488L434.309 29.8605C434.96 29.8854 435.504 29.7115 435.944 29.3389C436.383 28.954 436.783 28.2958 437.144 27.3644L437.513 26.4144L433.202 7.33939L437.711 7.32076L440.15 19.0563Z" fill="#244774"/>
<path d="M465.666 12.3876H460.076L457.374 34.4616H452.852L455.567 12.3876H450.07L450.703 7.33939H466.286L465.666 12.3876Z" fill="#244774"/>
<path d="M486.957 34.4616H482.475L483.859 23.1358H477.28L475.883 34.4616H471.374L474.696 7.33939H479.218L477.887 18.1063H484.479L485.797 7.33939H490.293L486.957 34.4616Z" fill="#244774"/>
<path d="M503.166 22.9682H496.113L495.309 29.4321H503.654L503.034 34.4616H490.18L493.502 7.33939H506.383L505.763 12.3876H497.405L496.693 18.1063H503.759L503.166 22.9682Z" fill="#244774"/>
<path d="M513.785 18.2181C514.585 18.1932 515.24 17.889 515.75 17.3053C516.268 16.7092 516.58 15.8461 516.686 14.716C516.765 13.8964 516.62 13.2382 516.25 12.7415C515.881 12.2447 515.35 11.9839 514.655 11.9591C513.952 11.9343 513.35 12.1764 512.849 12.6856C512.357 13.1948 512.054 13.8778 511.939 14.7347L507.431 14.7719C507.492 13.232 507.848 11.8722 508.499 10.6924C509.158 9.51265 510.067 8.59367 511.228 7.93548C512.388 7.26488 513.609 6.942 514.893 6.96683C516.888 7.01651 518.474 7.70574 519.652 9.03453C520.838 10.3509 521.375 12.1889 521.26 14.5484C521.137 17.1563 519.955 19.1929 517.714 20.6583C518.558 21.2544 519.173 22.0865 519.56 23.1545C519.946 24.2101 520.109 25.396 520.047 26.7124C519.916 29.5314 518.931 31.6736 517.094 33.139C515.644 34.294 513.957 34.8528 512.032 34.8155L511.452 34.7783C509.615 34.592 508.16 33.791 507.088 32.3753C506.016 30.9596 505.488 29.1402 505.506 26.9173H509.988C509.988 27.7742 510.186 28.4634 510.582 28.985C510.977 29.4942 511.54 29.7612 512.269 29.786C513.122 29.8108 513.86 29.5252 514.484 28.9291C515.117 28.333 515.486 27.5444 515.591 26.5634C515.846 24.3032 515.196 23.1358 513.64 23.0613L511.003 23.0427L511.597 18.1995L513.785 18.2181Z" fill="#244774"/>
<path d="M533.396 29.3948H527.265L525.564 34.4616H520.594L530.759 7.33939H535.004L538.55 34.4616H533.857L533.396 29.3948ZM528.953 24.3467H532.934L532.09 14.9955L528.953 24.3467Z" fill="#244774"/>
<path d="M540.376 34.4616L543.698 7.33939L549.802 7.35802C552.21 7.37044 554.008 8.0162 555.194 9.29532C556.381 10.5744 556.921 12.3689 556.816 14.6788C556.684 17.5351 555.577 19.5593 553.494 20.7515C554.241 21.124 554.821 21.8008 555.234 22.7819C555.656 23.7506 555.836 24.9179 555.774 26.284C555.651 28.9043 554.917 30.9223 553.573 32.338C552.237 33.7537 550.404 34.4616 548.075 34.4616H540.376ZM546.309 22.9309L545.504 29.4321L548.207 29.4507C549.051 29.4507 549.754 29.1589 550.316 28.5752C550.879 27.9791 551.213 27.1905 551.318 26.2094C551.564 24.1355 551.002 23.0489 549.631 22.9496L546.309 22.9309ZM546.823 18.6465L548.945 18.6652C550.905 18.6031 552.004 17.5413 552.241 15.4798C552.452 13.4431 551.705 12.4186 550 12.4062L547.601 12.3876L546.823 18.6465Z" fill="#244774"/>
<path d="M571.812 7.33939H576.439L573.117 34.4616H568.595L570.665 17.7338L562.056 34.4616H557.415L560.751 7.33939H565.273L563.203 24.0859L571.812 7.33939Z" fill="#244774"/>
<path d="M592.306 25.2222C592.191 27.1222 591.747 28.8111 590.974 30.289C590.209 31.7668 589.199 32.9031 587.942 33.6979C586.694 34.4927 585.34 34.8714 583.881 34.8342C581.877 34.7721 580.3 33.8593 579.148 32.0959C577.997 30.3324 577.369 27.9418 577.263 24.9241C577.184 22.9123 577.338 20.7204 577.725 18.3485C578.12 15.9765 578.757 13.915 579.636 12.164C580.524 10.4006 581.565 9.0842 582.761 8.2149C583.965 7.33318 585.279 6.91095 586.703 6.9482C588.794 6.99788 590.447 7.88581 591.66 9.61199C592.881 11.3382 593.545 13.7163 593.65 16.7465L589.155 16.7278C589.172 15.0762 588.961 13.8964 588.522 13.1885C588.082 12.4807 587.388 12.1019 586.439 12.0522C584.066 11.9405 582.62 14.5484 582.102 19.876C581.864 22.2852 581.746 24.0051 581.746 25.0359C581.702 28.0909 582.501 29.6618 584.145 29.7488C585.208 29.7984 586.057 29.4321 586.689 28.6497C587.322 27.8549 587.727 26.7372 587.902 25.2967L592.306 25.2222Z" fill="#244774"/>
<path d="M607.948 7.33939H612.575L609.253 34.4616H604.731L606.801 17.7338L598.192 34.4616H593.551L596.887 7.33939H601.409L599.339 24.0859L607.948 7.33939Z" fill="#244774"/>
<path d="M621.533 7.33939L623.366 26.1536L629.799 7.33939H635.811L632.489 34.4616H627.953L628.771 27.8114L630.722 15.5543L623.998 34.4616H621.006L618.83 14.8464L617.618 28.4448L616.866 34.4616H612.357L615.68 7.33939H621.533Z" fill="#244774"/>
<path d="M643.648 34.8342C641.653 34.7721 640.054 33.8407 638.849 32.04C637.645 30.2393 636.964 27.8301 636.806 24.8124C636.718 23.3221 636.802 21.5711 637.057 19.5593C637.311 17.5351 637.764 15.6723 638.414 13.9709C639.065 12.2696 639.878 10.8539 640.853 9.72376C642.488 7.82372 644.369 6.90474 646.496 6.96683C647.806 7.00409 648.948 7.43253 649.924 8.25216C650.908 9.05937 651.695 10.2267 652.284 11.7542C652.872 13.2817 653.215 15.0203 653.312 16.97C653.382 18.3485 653.321 19.9194 653.127 21.6829C652.943 23.4339 652.596 25.1104 652.086 26.7124C651.585 28.302 650.934 29.7053 650.135 30.9223C649.335 32.1393 648.39 33.108 647.3 33.8283C646.219 34.5361 645.002 34.8714 643.648 34.8342ZM648.79 16.9141C648.702 13.8095 647.849 12.1951 646.232 12.0709C644.984 11.9839 643.952 12.6856 643.134 14.1758C642.317 15.6536 641.776 17.8393 641.513 20.7328C641.346 22.5211 641.284 23.9058 641.328 24.8869C641.416 28.0412 642.277 29.6618 643.912 29.7488C644.984 29.8233 645.907 29.2831 646.681 28.1281C647.454 26.9608 648.012 25.2718 648.355 23.0613C648.698 20.8384 648.843 18.7893 648.79 16.9141Z" fill="#244774"/>
<path d="M668.348 7.33939H672.975L669.653 34.4616H665.131L667.201 17.7338L658.592 34.4616H653.951L657.286 7.33939H661.808L659.739 24.0859L668.348 7.33939ZM670.615 0C670.562 1.77586 670.066 3.19158 669.125 4.24716C668.194 5.30274 667.038 5.80569 665.658 5.75602C664.349 5.73118 663.281 5.20339 662.454 4.17265C661.637 3.12949 661.22 1.7386 661.202 0L664.129 0.0372558C664.111 1.57716 664.621 2.37195 665.658 2.42163C666.212 2.43405 666.66 2.22914 667.003 1.80691C667.354 1.37225 667.578 0.782372 667.675 0.0372558L670.615 0Z" fill="#244774"/>
<path d="M684.049 25.2781C683.97 28.2461 684.853 29.7736 686.699 29.8605C688.509 29.9599 689.81 28.5007 690.601 25.483L691.076 23.3966L685.789 23.4153L686.422 18.3671H691.458C691.511 17.6965 691.533 16.9949 691.524 16.2622C691.453 13.5176 690.654 12.0957 689.124 11.9964C687.991 11.9343 687.103 12.3255 686.461 13.1699C685.82 14.002 685.415 15.1879 685.248 16.7278L680.766 16.7465C680.951 14.8216 681.434 13.114 682.216 11.6238C683.007 10.1212 684.031 8.96002 685.288 8.14039C686.554 7.32076 687.92 6.92958 689.388 6.96683C690.671 7.00409 691.787 7.43253 692.737 8.25216C693.695 9.05937 694.446 10.2267 694.991 11.7542C695.536 13.2817 695.848 15.0265 695.927 16.9886C696.006 18.8887 695.852 21.0309 695.466 23.4153C695.088 25.7872 694.481 27.8363 693.646 29.5625C692.811 31.2762 691.783 32.5988 690.561 33.5302C689.348 34.4492 687.977 34.89 686.448 34.8528C684.356 34.8031 682.695 33.9152 681.465 32.189C680.234 30.4628 679.601 28.1592 679.566 25.2781H684.049Z" fill="#244774"/>
<path d="M704.78 23.7319H702.578L701.246 34.4616H696.738L700.06 7.33939H704.582L703.29 17.8269H704.885L709.75 7.33939H715.445L708.629 20.1554L712.571 34.4616H707.416L704.78 23.7319Z" fill="#244774"/>
<path d="M729.782 25.2222C729.668 27.1222 729.224 28.8111 728.45 30.289C727.686 31.7668 726.675 32.9031 725.418 33.6979C724.17 34.4927 722.817 34.8714 721.358 34.8342C719.354 34.7721 717.776 33.8593 716.625 32.0959C715.473 30.3324 714.845 27.9418 714.74 24.9241C714.66 22.9123 714.814 20.7204 715.201 18.3485C715.596 15.9765 716.234 13.915 717.113 12.164C718 10.4006 719.042 9.0842 720.237 8.2149C721.441 7.33318 722.755 6.91095 724.179 6.9482C726.271 6.99788 727.923 7.88581 729.136 9.61199C730.358 11.3382 731.021 13.7163 731.127 16.7465L726.631 16.7278C726.649 15.0762 726.438 13.8964 725.998 13.1885C725.559 12.4807 724.865 12.1019 723.915 12.0522C721.542 11.9405 720.096 14.5484 719.578 19.876C719.341 22.2852 719.222 24.0051 719.222 25.0359C719.178 28.0909 719.978 29.6618 721.621 29.7488C722.685 29.7984 723.533 29.4321 724.166 28.6497C724.799 27.8549 725.203 26.7372 725.379 25.2967L729.782 25.2222Z" fill="#244774"/>
<path d="M746.953 34.4616H742.445L745.147 12.3876H738.49L735.774 34.4616H731.265L734.587 7.33939H750.289L746.953 34.4616Z" fill="#244774"/>
<path d="M763.11 22.9682H756.056L755.252 29.4321H763.597L762.978 34.4616H750.124L753.446 7.33939H766.326L765.707 12.3876H757.348L756.636 18.1063H763.703L763.11 22.9682Z" fill="#244774"/>
<path d="M770.828 25.2594L769.695 34.4616H765.186L768.508 7.33939L775.403 7.35802C777.539 7.35802 779.217 8.19627 780.439 9.87278C781.67 11.5493 782.21 13.7226 782.061 16.3925C781.955 18.2181 781.542 19.8015 780.821 21.1427C780.101 22.4839 779.147 23.5084 777.961 24.2163C776.783 24.9241 775.46 25.2781 773.992 25.2781L770.828 25.2594ZM771.448 20.2113L774.164 20.2485C775.306 20.2113 776.181 19.6897 776.787 18.6838C777.394 17.6655 777.635 16.4174 777.512 14.9396C777.442 14.182 777.236 13.5859 776.893 13.1513C776.559 12.7042 776.115 12.4559 775.561 12.4062L772.41 12.3876L771.448 20.2113Z" fill="#244774"/>
<path d="M799.997 12.3876H794.407L791.704 34.4616H787.182L789.898 12.3876H784.401L785.033 7.33939H800.616L799.997 12.3876Z" fill="#244774"/>
<path d="M813.688 7.33939H818.315L814.993 34.4616H810.471L812.541 17.7338L803.932 34.4616H799.291L802.627 7.33939H807.149L805.079 24.0859L813.688 7.33939Z" fill="#244774"/>
<path d="M826.64 18.2181C827.44 18.1932 828.095 17.889 828.605 17.3053C829.123 16.7092 829.435 15.8461 829.541 14.716C829.62 13.8964 829.475 13.2382 829.106 12.7415C828.736 12.2447 828.205 11.9839 827.51 11.9591C826.807 11.9343 826.205 12.1764 825.704 12.6856C825.212 13.1948 824.909 13.8778 824.795 14.7347L820.286 14.7719C820.347 13.232 820.703 11.8722 821.354 10.6924C822.013 9.51265 822.922 8.59367 824.083 7.93548C825.243 7.26488 826.464 6.942 827.748 6.96683C829.743 7.01651 831.329 7.70574 832.507 9.03453C833.693 10.3509 834.23 12.1889 834.115 14.5484C833.992 17.1563 832.81 19.1929 830.569 20.6583C831.413 21.2544 832.028 22.0865 832.415 23.1545C832.801 24.2101 832.964 25.396 832.902 26.7124C832.771 29.5314 831.786 31.6736 829.949 33.139C828.499 34.294 826.812 34.8528 824.887 34.8155L824.307 34.7783C822.47 34.592 821.015 33.791 819.943 32.3753C818.871 30.9596 818.343 29.1402 818.361 26.9173H822.843C822.843 27.7742 823.041 28.4634 823.437 28.985C823.832 29.4942 824.395 29.7612 825.124 29.786C825.977 29.8108 826.715 29.5252 827.339 28.9291C827.972 28.333 828.341 27.5444 828.446 26.5634C828.701 24.3032 828.051 23.1358 826.495 23.0613L823.859 23.0427L824.452 18.1995L826.64 18.2181Z" fill="#244774"/>
<path d="M841.676 16.672L843.759 16.6906C845.095 16.7403 846.281 17.1252 847.318 17.8455C848.364 18.5658 849.151 19.5717 849.678 20.8632C850.214 22.1548 850.434 23.6388 850.338 25.3153C850.197 28.0847 849.344 30.3014 847.78 31.9655C846.224 33.6296 844.291 34.4616 841.979 34.4616H834.965L838.288 7.33939H842.823L841.676 16.672ZM841.056 21.7015L840.107 29.4321L842.177 29.4507C843.117 29.4507 843.926 29.0719 844.603 28.3144C845.288 27.5444 845.697 26.5323 845.829 25.2781C845.943 24.2349 845.794 23.3966 845.38 22.7633C844.967 22.1175 844.365 21.7698 843.574 21.7201L841.056 21.7015ZM855.084 34.4616H850.575L853.91 7.33939H858.406L855.084 34.4616Z" fill="#244774"/>
<path d="M879.288 7.33939H883.916L880.593 34.4616H876.071L878.141 17.7338L869.532 34.4616H864.892L868.227 7.33939H872.749L870.679 24.0859L879.288 7.33939Z" fill="#244774"/>
<path d="M898.562 34.8342C896.567 34.7721 894.967 33.8407 893.763 32.04C892.559 30.2393 891.878 27.8301 891.72 24.8124C891.632 23.3221 891.715 21.5711 891.97 19.5593C892.225 17.5351 892.678 15.6723 893.328 13.9709C893.979 12.2696 894.792 10.8539 895.767 9.72376C897.402 7.82372 899.283 6.90474 901.41 6.96683C902.719 7.00409 903.862 7.43253 904.837 8.25216C905.822 9.05937 906.608 10.2267 907.197 11.7542C907.786 13.2817 908.129 15.0203 908.226 16.97C908.296 18.3485 908.234 19.9194 908.041 21.6829C907.857 23.4339 907.509 25.1104 907 26.7124C906.499 28.302 905.848 29.7053 905.048 30.9223C904.249 32.1393 903.304 33.108 902.214 33.8283C901.133 34.5361 899.916 34.8714 898.562 34.8342ZM903.704 16.9141C903.616 13.8095 902.763 12.1951 901.146 12.0709C899.898 11.9839 898.865 12.6856 898.048 14.1758C897.231 15.6536 896.69 17.8393 896.426 20.7328C896.259 22.5211 896.198 23.9058 896.242 24.8869C896.33 28.0412 897.191 29.6618 898.826 29.7488C899.898 29.8233 900.821 29.2831 901.594 28.1281C902.368 26.9608 902.926 25.2718 903.269 23.0613C903.611 20.8384 903.756 18.7893 903.704 16.9141Z" fill="#244774"/>
<path d="M912.147 7.33939H916.643L913.927 29.4321H920.585L923.301 7.33939H927.836L925.107 29.488H927.968L926.307 41H922.035L922.839 34.4616H908.825L912.147 7.33939Z" fill="#244774"/>
<path d="M942.74 22.9682H935.687L934.882 29.4321H943.228L942.608 34.4616H929.754L933.076 7.33939H945.957L945.337 12.3876H936.979L936.267 18.1063H943.333L942.74 22.9682Z" fill="#244774"/>
<path d="M960.399 34.4616H955.917L957.301 23.1358H950.722L949.325 34.4616H944.816L948.138 7.33939H952.66L951.329 18.1063H957.92L959.239 7.33939H963.734L960.399 34.4616Z" fill="#244774"/>
<path d="M971.638 23.7319H969.436L968.104 34.4616H963.596L966.918 7.33939H971.44L970.148 17.8269H971.743L976.608 7.33939H982.303L975.487 20.1554L979.429 34.4616H974.274L971.638 23.7319Z" fill="#244774"/>
<path d="M995.111 7.33939H999.738L996.416 34.4616H991.894L993.964 17.7338L985.355 34.4616H980.714L984.05 7.33939H988.572L986.502 24.0859L995.111 7.33939Z" fill="#244774"/>
</svg>
