<svg width="21" height="25" viewBox="0 0 21 25" fill="none" xmlns="http://www.w3.org/2000/svg">
<path d="M19.75 10.5654C19.75 17.5654 10.75 23.5654 10.75 23.5654C10.75 23.5654 1.75 17.5654 1.75 10.5654C1.75 8.17848 2.69821 5.8893 4.38604 4.20147C6.07387 2.51364 8.36305 1.56543 10.75 1.56543C13.1369 1.56543 15.4261 2.51364 17.114 4.20147C18.8018 5.8893 19.75 8.17848 19.75 10.5654Z" stroke="#CDAC69" stroke-width="2" stroke-linecap="round" stroke-linejoin="round"/>
<path d="M10.75 13.5654C12.4069 13.5654 13.75 12.2223 13.75 10.5654C13.75 8.90858 12.4069 7.56543 10.75 7.56543C9.09315 7.56543 7.75 8.90858 7.75 10.5654C7.75 12.2223 9.09315 13.5654 10.75 13.5654Z" stroke="#CDAC69" stroke-width="2" stroke-linecap="round" stroke-linejoin="round"/>
</svg>
