<svg width="22" height="22" viewBox="0 0 22 22" fill="none" xmlns="http://www.w3.org/2000/svg">
<path d="M20.6727 15.8308V18.65C20.6738 18.9117 20.6202 19.1707 20.5153 19.4105C20.4105 19.6503 20.2567 19.8656 20.0638 20.0425C19.871 20.2194 19.6433 20.3541 19.3954 20.438C19.1475 20.5218 18.8848 20.553 18.6241 20.5294C15.7324 20.2152 12.9548 19.2271 10.5143 17.6445C8.24377 16.2017 6.31876 14.2767 4.87597 12.0061C3.28782 9.55459 2.29948 6.76342 1.99103 3.85874C1.96754 3.59888 1.99843 3.33697 2.08171 3.0897C2.16499 2.84242 2.29885 2.6152 2.47476 2.42249C2.65067 2.22979 2.86478 2.07582 3.10346 1.97039C3.34214 1.86497 3.60015 1.8104 3.86107 1.81015H6.68024C7.13629 1.80566 7.57842 1.96716 7.92421 2.26454C8.27 2.56191 8.49585 2.97489 8.55968 3.42647C8.67867 4.32867 8.89934 5.21451 9.21749 6.06709C9.34392 6.40344 9.37128 6.76898 9.29634 7.12041C9.22139 7.47183 9.04727 7.7944 8.79461 8.0499L7.60117 9.24335C8.93891 11.596 10.8869 13.5439 13.2395 14.8817L14.4329 13.6882C14.6884 13.4356 15.011 13.2615 15.3624 13.1865C15.7139 13.1116 16.0794 13.1389 16.4158 13.2654C17.2683 13.5835 18.1542 13.8042 19.0564 13.9232C19.5129 13.9876 19.9298 14.2175 20.2278 14.5692C20.5258 14.9209 20.6841 15.3699 20.6727 15.8308Z" stroke="#CDAC69" stroke-width="2" stroke-linecap="round" stroke-linejoin="round"/>
</svg>
