<svg width="92" height="92" viewBox="0 0 92 92" fill="none" xmlns="http://www.w3.org/2000/svg">
<path d="M91.1774 31.1062L47.194 0.772833C46.9407 0.595261 46.6389 0.5 46.3295 0.5C46.0202 0.5 45.7183 0.595261 45.465 0.772833L1.4816 31.1062C1.2172 31.2908 1.01849 31.5548 0.91433 31.8599C0.810166 32.1651 0.805962 32.4955 0.90233 32.8032C0.998698 33.1109 1.19062 33.3799 1.45024 33.5711C1.70986 33.7623 2.02366 33.8658 2.3461 33.8666H6.89611V35.3832C6.89971 36.5889 7.38024 37.7441 8.23275 38.5966C9.08526 39.4491 10.2405 39.9296 11.4461 39.9332V41.4499C11.4509 42.3881 11.7447 43.3021 12.2875 44.0673C12.8303 44.8326 13.5956 45.4121 14.4795 45.7269V67.5063C13.5956 67.8211 12.8303 68.4006 12.2875 69.1659C11.7447 69.9312 11.4509 70.8451 11.4461 71.7833V73.3C10.2405 73.3036 9.08526 73.7841 8.23275 74.6366C7.38024 75.4891 6.89971 76.6443 6.89611 77.85V79.6396C6.01228 79.9545 5.2469 80.5339 4.70415 81.2992C4.16139 82.0645 3.8676 82.9784 3.86277 83.9167V89.9833C3.86277 90.3856 4.02256 90.7714 4.30699 91.0558C4.59142 91.3402 4.97719 91.5 5.37944 91.5H87.2796C87.6818 91.5 88.0676 91.3402 88.352 91.0558C88.6365 90.7714 88.7962 90.3856 88.7962 89.9833V83.9167C88.7914 82.9784 88.4976 82.0645 87.9549 81.2992C87.4121 80.5339 86.6467 79.9545 85.7629 79.6396V77.85C85.7593 76.6443 85.2788 75.4891 84.4263 74.6366C83.5738 73.7841 82.4185 73.3036 81.2129 73.3V71.7833C81.2081 70.8451 80.9143 69.9312 80.3715 69.1659C79.8288 68.4006 79.0634 67.8211 78.1796 67.5063V45.7269C79.0634 45.4121 79.8288 44.8326 80.3715 44.0673C80.9143 43.3021 81.2081 42.3881 81.2129 41.4499V39.9332C82.4185 39.9296 83.5738 39.4491 84.4263 38.5966C85.2788 37.7441 85.7593 36.5889 85.7629 35.3832V33.8666H90.3129C90.6354 33.8658 90.9492 33.7623 91.2088 33.5711C91.4684 33.3799 91.6603 33.1109 91.7567 32.8032C91.8531 32.4955 91.8489 32.1651 91.7447 31.8599C91.6405 31.5548 91.4418 31.2908 91.1774 31.1062ZM14.4795 71.7833C14.4795 71.3811 14.6392 70.9953 14.9237 70.7109C15.2081 70.4264 15.5939 70.2666 15.9961 70.2666H25.0961C25.4984 70.2666 25.8842 70.4264 26.1686 70.7109C26.453 70.9953 26.6128 71.3811 26.6128 71.7833V73.3H14.4795V71.7833ZM66.0462 45.7269V67.5063C65.1624 67.8211 64.397 68.4006 63.8542 69.1659C63.3115 69.9312 63.0177 70.8451 63.0129 71.7833V73.3H29.6461V71.7833C29.6413 70.8451 29.3475 69.9312 28.8048 69.1659C28.262 68.4006 27.4966 67.8211 26.6128 67.5063V45.7269C27.4966 45.4121 28.262 44.8326 28.8048 44.0673C29.3475 43.3021 29.6413 42.3881 29.6461 41.4499V39.9332H63.0129V41.4499C63.0177 42.3881 63.3115 43.3021 63.8542 44.0673C64.397 44.8326 65.1624 45.4121 66.0462 45.7269ZM76.6629 70.2666C77.0651 70.2666 77.4509 70.4264 77.7353 70.7109C78.0198 70.9953 78.1796 71.3811 78.1796 71.7833V73.3H66.0462V71.7833C66.0462 71.3811 66.206 70.9953 66.4904 70.7109C66.7749 70.4264 67.1606 70.2666 67.5629 70.2666H76.6629ZM69.0796 67.2333V45.9999H75.1462V67.2333H69.0796ZM26.6128 41.4499C26.6128 41.8522 26.453 42.2379 26.1686 42.5224C25.8842 42.8068 25.4984 42.9666 25.0961 42.9666H15.9961C15.5939 42.9666 15.2081 42.8068 14.9237 42.5224C14.6392 42.2379 14.4795 41.8522 14.4795 41.4499V39.9332H26.6128V41.4499ZM23.5795 45.9999V67.2333H17.5128V45.9999H23.5795ZM85.7629 83.9167V88.4667H6.89611V83.9167C6.89611 83.5144 7.0559 83.1286 7.34033 82.8442C7.62476 82.5598 8.01053 82.4 8.41278 82.4H84.2462C84.6485 82.4 85.0343 82.5598 85.3187 82.8442C85.6031 83.1286 85.7629 83.5144 85.7629 83.9167ZM81.2129 76.3333C81.6152 76.3333 82.0009 76.4931 82.2854 76.7775C82.5698 77.062 82.7296 77.4477 82.7296 77.85V79.3666H9.92945V77.85C9.92945 77.4477 10.0892 77.062 10.3737 76.7775C10.6581 76.4931 11.0439 76.3333 11.4461 76.3333H81.2129ZM78.1796 41.4499C78.1796 41.8522 78.0198 42.2379 77.7353 42.5224C77.4509 42.8068 77.0651 42.9666 76.6629 42.9666H67.5629C67.1606 42.9666 66.7749 42.8068 66.4904 42.5224C66.206 42.2379 66.0462 41.8522 66.0462 41.4499V39.9332H78.1796V41.4499ZM82.7296 35.3832C82.7296 35.7855 82.5698 36.1712 82.2854 36.4557C82.0009 36.7401 81.6152 36.8999 81.2129 36.8999H11.4461C11.0439 36.8999 10.6581 36.7401 10.3737 36.4557C10.0892 36.1712 9.92945 35.7855 9.92945 35.3832V33.8666H82.7296V35.3832ZM7.21461 30.8332L46.3295 3.85167L85.4444 30.8332H7.21461Z" fill="#CDAC69"/>
<path d="M46.3293 17.1831C46.0293 17.1831 45.7361 17.0942 45.4867 16.9275C45.2373 16.7609 45.0429 16.524 44.9281 16.2469C44.8133 15.9697 44.7833 15.6648 44.8418 15.3706C44.9003 15.0764 45.0447 14.8061 45.2569 14.594C45.469 14.3819 45.7392 14.2375 46.0334 14.1789C46.3276 14.1204 46.6326 14.1505 46.9097 14.2653C47.1868 14.38 47.4237 14.5744 47.5904 14.8239C47.757 15.0733 47.846 15.3665 47.846 15.6665H50.8793C50.8754 14.7288 50.5819 13.8152 50.0389 13.0507C49.496 12.2862 48.7301 11.7081 47.846 11.3955V9.59979H44.8126V11.3955C43.8015 11.7517 42.949 12.4542 42.4062 13.3786C41.8634 14.3031 41.6653 15.3898 41.847 16.4463C42.0286 17.5028 42.5783 18.461 43.3987 19.151C44.2191 19.8411 45.2573 20.2185 46.3293 20.2165C46.6293 20.2165 46.9225 20.3054 47.1719 20.4721C47.4213 20.6387 47.6157 20.8756 47.7305 21.1527C47.8453 21.4299 47.8754 21.7348 47.8168 22.029C47.7583 22.3232 47.6139 22.5935 47.4018 22.8056C47.1896 23.0177 46.9194 23.1622 46.6252 23.2207C46.331 23.2792 46.026 23.2492 45.7489 23.1344C45.4718 23.0196 45.2349 22.8252 45.0682 22.5758C44.9016 22.3263 44.8126 22.0331 44.8126 21.7331H41.7793C41.7832 22.6708 42.0767 23.5844 42.6197 24.3489C43.1626 25.1135 43.9286 25.6915 44.8126 26.0041V27.7998H47.846V26.0041C48.8571 25.6479 49.7096 24.9454 50.2524 24.021C50.7952 23.0965 50.9933 22.0098 50.8117 20.9533C50.63 19.8968 50.0803 18.9387 49.2599 18.2486C48.4395 17.5585 47.4013 17.1811 46.3293 17.1831Z" fill="#CDAC69"/>
<path d="M57.5439 47.6395L46.9272 43.0895C46.7383 43.0091 46.535 42.9677 46.3297 42.9677C46.1243 42.9677 45.9211 43.0091 45.7321 43.0895L35.1154 47.6395C34.8427 47.7564 34.6102 47.9508 34.4468 48.1985C34.2835 48.4463 34.1964 48.7365 34.1963 49.0333V54.3644C34.1927 55.7593 34.4657 57.1411 34.9997 58.4297C35.5336 59.7184 36.3179 60.8884 37.307 61.8719L45.2574 69.8223C45.5418 70.1066 45.9275 70.2663 46.3297 70.2663C46.7318 70.2663 47.1175 70.1066 47.402 69.8223L55.3523 61.8719C56.3415 60.8884 57.1257 59.7184 57.6597 58.4297C58.1936 57.1411 58.4667 55.7593 58.463 54.3644V49.0333C58.463 48.7365 58.3759 48.4463 58.2125 48.1985C58.0492 47.9508 57.8167 47.7564 57.5439 47.6395ZM55.4297 54.3644C55.4321 55.3608 55.237 56.3478 54.8556 57.2683C54.4742 58.1888 53.9141 59.0246 53.2078 59.7273L46.3297 66.6054L39.4516 59.7273C38.7452 59.0246 38.1852 58.1888 37.8038 57.2683C37.4224 56.3478 37.2273 55.3608 37.2297 54.3644V50.0328L46.3297 46.1334L55.4297 50.0328V54.3644Z" fill="#CDAC69"/>
<path d="M44.3682 54.0278L42.2236 56.1724L45.257 59.2057C45.5414 59.49 45.9271 59.6498 46.3293 59.6498C46.7314 59.6498 47.1171 59.49 47.4015 59.2057L53.4682 53.139L51.3236 50.9944L46.3293 55.9888L44.3682 54.0278Z" fill="#CDAC69"/>
</svg>
