<svg width="23" height="23" viewBox="0 0 23 23" fill="none" xmlns="http://www.w3.org/2000/svg">
<path d="M11.4834 15.165C13.6925 15.165 15.4834 13.3742 15.4834 11.165C15.4834 8.9559 13.6925 7.16504 11.4834 7.16504C9.27426 7.16504 7.4834 8.9559 7.4834 11.165C7.4834 13.3742 9.27426 15.165 11.4834 15.165Z" stroke="#CDAC69" stroke-width="2" stroke-linecap="round" stroke-linejoin="round"/>
<path d="M15.4834 7.16491V12.1649C15.4834 12.9606 15.7995 13.7236 16.3621 14.2862C16.9247 14.8488 17.6878 15.1649 18.4834 15.1649C19.2791 15.1649 20.0421 14.8488 20.6047 14.2862C21.1673 13.7236 21.4834 12.9606 21.4834 12.1649V11.1649C21.4833 8.90794 20.7196 6.71738 19.3167 4.94944C17.9137 3.18149 15.954 1.94013 13.756 1.4272C11.5581 0.914276 9.25134 1.15995 7.21076 2.12427C5.17017 3.0886 3.51581 4.71486 2.51667 6.73863C1.51753 8.7624 1.23237 11.0646 1.70758 13.271C2.18278 15.4774 3.39038 17.4581 5.13404 18.8912C6.87769 20.3242 9.05484 21.1253 11.3115 21.1641C13.5681 21.2029 15.7715 20.4771 17.5634 19.1049" stroke="#CDAC69" stroke-width="2" stroke-linecap="round" stroke-linejoin="round"/>
</svg>
