<svg width="24" height="23" viewBox="0 0 24 23" fill="none" xmlns="http://www.w3.org/2000/svg">
<path d="M11.2929 0.628519C11.6597 -0.11465 12.7195 -0.114648 13.0863 0.62852L15.9277 6.38493C16.0733 6.67977 16.3545 6.88423 16.6798 6.93179L23.0356 7.86078C23.8555 7.98062 24.1823 8.98846 23.5887 9.56662L18.9913 14.0445C18.7554 14.2742 18.6477 14.6054 18.7034 14.9299L19.7882 21.2548C19.9283 22.0717 19.0707 22.6947 18.3371 22.3089L12.6551 19.3207C12.3637 19.1675 12.0155 19.1675 11.7241 19.3207L6.04208 22.3089C5.30845 22.6947 4.4509 22.0717 4.59102 21.2548L5.67581 14.9299C5.73147 14.6054 5.62381 14.2742 5.38793 14.0445L0.790522 9.56662C0.196929 8.98846 0.523713 7.98062 1.34363 7.86078L7.69939 6.93179C8.02475 6.88423 8.30593 6.67977 8.45147 6.38493L11.2929 0.628519Z" fill="#DEEBF8"/>
</svg>
