<svg width="25" height="23" viewBox="0 0 25 23" fill="none" xmlns="http://www.w3.org/2000/svg">
<path d="M11.4921 0.628519C11.8589 -0.11465 12.9187 -0.114648 13.2855 0.62852L16.1269 6.38493C16.2725 6.67977 16.5537 6.88423 16.879 6.93179L23.2348 7.86078C24.0547 7.98062 24.3815 8.98846 23.7879 9.56662L19.1905 14.0445C18.9546 14.2742 18.8469 14.6054 18.9026 14.9299L19.9874 21.2548C20.1275 22.0717 19.27 22.6947 18.5363 22.3089L12.8543 19.3207C12.5629 19.1675 12.2147 19.1675 11.9234 19.3207L6.2413 22.3089C5.50767 22.6947 4.65012 22.0717 4.79024 21.2548L5.87503 14.9299C5.93069 14.6054 5.82302 14.2742 5.58715 14.0445L0.989741 9.56662C0.396148 8.98846 0.722931 7.98062 1.54285 7.86078L7.89861 6.93179C8.22397 6.88423 8.50515 6.67977 8.65069 6.38493L11.4921 0.628519Z" fill="#ECF015"/>
</svg>
