<svg width="54" height="68" viewBox="0 0 54 68" fill="none" xmlns="http://www.w3.org/2000/svg">
<g opacity="0.3">
<path d="M46.7788 8.87691H40.7221V6.16736C40.7221 5.29071 39.7658 4.89228 38.8892 4.89228H34.1873C33.0716 1.70451 30.2823 0.110629 27.0945 0.110629C23.9419 -0.00789429 21.0743 1.92524 20.0018 4.89228H15.3795C14.5029 4.89228 13.6262 5.29071 13.6262 6.16736V8.87691H7.56934C3.98009 8.9152 1.04371 11.7466 0.875 15.3321V60.9967C0.875 64.5033 4.06277 67.0535 7.56934 67.0535H46.7788C50.2854 67.0535 53.4732 64.5033 53.4732 60.9967V15.3322C53.3045 11.7466 50.3681 8.9152 46.7788 8.87691ZM16.8138 8.08005H21.1971C21.9622 7.98669 22.5768 7.4046 22.7113 6.64557C23.1833 4.59025 24.9864 3.11489 27.0945 3.05937C29.1831 3.12267 30.9591 4.60261 31.398 6.64557C31.5409 7.43084 32.1961 8.02041 32.9919 8.08005H37.5345V14.4556H16.8138V8.08005ZM50.2854 60.9969C50.2854 62.7502 48.5321 63.8658 46.7788 63.8658H7.56934C5.81606 63.8658 4.06277 62.7502 4.06277 60.9969V15.3322C4.22537 13.5072 5.73735 12.0982 7.56934 12.0648H13.6261V16.1292C13.7103 17.0222 14.4836 17.6902 15.3794 17.6435H38.889C39.8012 17.6934 40.5989 17.0346 40.722 16.1292V12.0647H46.7787C48.6105 12.0982 50.1226 13.5071 50.2853 15.3321V60.9969H50.2854Z" fill="white"/>
<path d="M21.0375 35.7338C20.4397 35.1037 19.4473 35.0681 18.806 35.6542L13.7056 40.5155L11.5539 38.284C10.9561 37.6538 9.96365 37.6185 9.32237 38.2044C8.70504 38.8511 8.70504 39.8687 9.32237 40.5155L12.5898 43.8627C12.8726 44.1793 13.2811 44.3544 13.7054 44.3409C14.1258 44.3349 14.5269 44.163 14.8211 43.8627L21.0372 37.9653C21.6535 37.4 21.6947 36.4421 21.1292 35.826C21.1002 35.7938 21.0696 35.7631 21.0375 35.7338Z" fill="white"/>
<path d="M43.9098 39.1611H25.5802C24.6999 39.1611 23.9863 39.8746 23.9863 40.7549C23.9863 41.6353 24.6999 42.3488 25.5802 42.3488H43.9098C44.7901 42.3488 45.5037 41.6353 45.5037 40.7549C45.5037 39.8746 44.7901 39.1611 43.9098 39.1611Z" fill="white"/>
<path d="M21.0375 22.9825C20.4397 22.3523 19.4473 22.3168 18.806 22.9029L13.7056 27.7641L11.5539 25.5326C10.9561 24.9025 9.96365 24.8669 9.32237 25.453C8.70504 26.0998 8.70504 27.1174 9.32237 27.7641L12.5898 31.1113C12.8726 31.428 13.2811 31.6031 13.7054 31.5895C14.1258 31.5836 14.5269 31.4117 14.8211 31.1113L21.0372 25.214C21.6535 24.6487 21.6947 23.6907 21.1292 23.0746C21.1002 23.0424 21.0696 23.0118 21.0375 22.9825Z" fill="white"/>
<path d="M43.9098 26.4097H25.5802C24.6999 26.4097 23.9863 27.1233 23.9863 28.0036C23.9863 28.8839 24.6999 29.5975 25.5802 29.5975H43.9098C44.7901 29.5975 45.5037 28.8839 45.5037 28.0036C45.5037 27.1233 44.7901 26.4097 43.9098 26.4097Z" fill="white"/>
<path d="M21.0375 48.4851C20.4397 47.855 19.4473 47.8196 18.806 48.4055L13.7056 53.2668L11.5539 51.0353C10.9561 50.4051 9.96365 50.3697 9.32237 50.9557C8.70504 51.6024 8.70504 52.62 9.32237 53.2668L12.5898 56.614C12.8726 56.9306 13.2811 57.1057 13.7054 57.0922C14.1258 57.0862 14.5269 56.9143 14.8211 56.614L21.0372 50.7166C21.6535 50.1513 21.6947 49.1934 21.1292 48.5773C21.1002 48.5452 21.0696 48.5146 21.0375 48.4851Z" fill="white"/>
<path d="M43.9098 51.9118H25.5802C24.6999 51.9118 23.9863 52.6254 23.9863 53.5057C23.9863 54.386 24.6999 55.0996 25.5802 55.0996H43.9098C44.7901 55.0996 45.5037 54.386 45.5037 53.5057C45.5037 52.6254 44.7901 51.9118 43.9098 51.9118Z" fill="white"/>
</g>
</svg>
