<svg width="59" height="67" viewBox="0 0 59 67" fill="none" xmlns="http://www.w3.org/2000/svg">
<g opacity="0.3">
<path d="M48.2625 50.0365L37.1864 45.5052C35.9642 45.0053 35.1739 43.8285 35.1739 42.507V41.7318C38.496 39.4365 41.0332 36.1975 42.4713 32.4511H42.7315C45.7081 32.4511 48.1297 30.0294 48.1297 27.0528V18.4156C48.1297 8.29496 39.8963 0.0615234 29.7756 0.0615234H11.4215V1.14118C11.4215 2.25754 11.5662 3.33827 11.8134 4.38014H7.98715L8.19661 5.63793C8.717 8.75813 10.0817 11.5382 12.024 13.7807C11.6321 15.2879 11.4215 16.8415 11.4215 18.4156V27.0528C11.4215 30.0294 13.8432 32.4511 16.8198 32.4511H17.08C18.5181 36.1986 21.0553 39.4365 24.3774 41.7318V42.507C24.3774 43.8285 23.5871 45.0042 22.3649 45.5041L11.2887 50.0354C4.81081 52.687 0.625 58.922 0.625 65.9203V67H58.9263V65.9203C58.9263 58.922 54.7404 52.687 48.2625 50.0365ZM42.4583 54.4782L33.5209 57.8294L35.8368 61.3027L30.5281 64.8407H29.9354L30.7484 63.1489C30.9816 62.6652 35.962 52.2876 37.6215 48.0165L40.7266 49.2872L42.4583 54.4782ZM17.0929 54.4782L18.8236 49.2872L21.9298 48.0165C23.586 52.2703 28.5697 62.6641 28.8018 63.1489L29.6148 64.8407H29.0231L23.7155 61.3027L26.0314 57.8294L17.0929 54.4782ZM25.4527 50.8052H34.0996C32.6972 53.9708 30.8769 57.8478 29.7756 60.1712C28.6755 57.8467 26.8552 53.9686 25.4527 50.8052ZM43.1784 30.2465C43.5876 28.6464 43.8111 26.9805 43.8111 25.2725V24.0125C45.0646 24.4595 45.9704 25.6471 45.9704 27.0528C45.9704 28.6853 44.7515 30.0262 43.1784 30.2465ZM12.5044 6.53944C14.6238 11.6063 19.6301 15.1767 25.457 15.1767H33.0146V13.0174H25.457C19.2717 13.0174 14.1768 8.26581 13.6294 2.22083H29.7756C38.7054 2.22083 45.9704 9.48581 45.9704 18.4156V22.7623C45.314 22.2657 44.5518 21.9094 43.7118 21.7539C43.2486 19.2448 41.0537 17.336 38.4129 17.336H24.5566C17.9081 17.336 12.2269 12.8673 10.5934 6.53944H12.5044ZM13.8421 15.5632C14.4446 16.0728 15.0697 16.5565 15.7401 16.9754V21.7636C14.938 21.9277 14.2114 22.284 13.5808 22.7612V18.4156C13.5808 17.4537 13.6748 16.5014 13.8421 15.5632ZM13.5808 27.0528C13.5808 25.6471 14.4867 24.4595 15.7401 24.0125V25.2725C15.7401 26.9805 15.9636 28.6464 16.3728 30.2465C14.7998 30.0262 13.5808 28.6853 13.5808 27.0528ZM17.8994 25.2725V18.1144C19.9432 19.0051 22.1965 19.4953 24.5566 19.4953H38.4129C40.1986 19.4953 41.6518 20.9485 41.6518 22.7342V25.2725C41.6518 32.8549 36.8949 39.5747 29.7756 42.1054C22.6564 39.5747 17.8994 32.856 17.8994 25.2725ZM26.4978 43.0274C27.4306 43.5132 28.4109 43.9311 29.4334 44.2712L29.7756 44.3856L30.1168 44.2722C31.1392 43.9311 32.1196 43.5143 33.0524 43.0285C33.2165 44.7451 34.172 46.2685 35.6435 47.1441C35.4784 47.576 35.2732 48.0802 35.0346 48.647H24.5156C24.2759 48.0802 24.0707 47.5749 23.9056 47.1441C25.3782 46.2674 26.3337 44.744 26.4978 43.0274ZM12.106 52.036L16.1882 50.3658L14.3873 55.7695L22.7244 58.8961L20.7217 61.9008L25.1299 64.8407H13.5808V58.3628H11.4215V64.8407H2.82209C3.2248 59.1671 6.77902 54.2148 12.106 52.036ZM48.1297 64.8407V58.3628H45.9704V64.8407H34.4214L38.8307 61.9008L36.8279 58.8961L45.165 55.7695L43.3641 50.3658L47.4463 52.036C52.7733 54.2158 56.3275 59.1671 56.7302 64.8407H48.1297Z" fill="white"/>
<path d="M36.254 24.894C36.8502 24.894 37.3336 24.4106 37.3336 23.8144C37.3336 23.2181 36.8502 22.7347 36.254 22.7347C35.6577 22.7347 35.1743 23.2181 35.1743 23.8144C35.1743 24.4106 35.6577 24.894 36.254 24.894Z" fill="white"/>
<path d="M23.2979 24.894C23.8942 24.894 24.3776 24.4106 24.3776 23.8144C24.3776 23.2181 23.8942 22.7347 23.2979 22.7347C22.7016 22.7347 22.2183 23.2181 22.2183 23.8144C22.2183 24.4106 22.7016 24.894 23.2979 24.894Z" fill="white"/>
<path d="M34.0943 33.5308H31.9349C31.9349 34.7217 30.9665 35.6902 29.7756 35.6902C28.5848 35.6902 27.6163 34.7217 27.6163 33.5308H25.457C25.457 35.9126 27.3939 37.8495 29.7756 37.8495C32.1574 37.8495 34.0943 35.9126 34.0943 33.5308Z" fill="white"/>
</g>
</svg>
