<svg width="124" height="126" viewBox="0 0 124 126" fill="none" xmlns="http://www.w3.org/2000/svg">
<rect x="1.38525" y="2.1133" width="121.01" height="121.01" stroke="#FDE2B2" stroke-width="2"/>
<circle cx="61.4748" cy="63.034" r="60.0895" stroke="#FDE2B2" stroke-width="2"/>
<circle r="9.96084" transform="matrix(-1 0 0 1 112.382 12.0741)" stroke="#FDE2B2" stroke-width="2"/>
<circle r="9.96084" transform="matrix(-1 0 0 1 11.3463 12.0741)" stroke="#FDE2B2" stroke-width="2"/>
<circle r="9.96084" transform="matrix(-1 0 0 1 112.382 113.163)" stroke="#FDE2B2" stroke-width="2"/>
<circle r="9.96084" transform="matrix(-1 0 0 1 11.3463 113.163)" stroke="#FDE2B2" stroke-width="2"/>
<path d="M1.06006 1.78882L122.564 123.396" stroke="#FDE2B2" stroke-width="2"/>
<path d="M122.564 1.78882L1.06019 123.396" stroke="#FDE2B2" stroke-width="2"/>
<path d="M61.6302 47.6785C61.1347 48.1898 47.9183 58.8084 47.436 59.1115L52.4161 65.2836L66.6403 53.8522L61.6302 47.6785Z" fill="#FDE2B2"/>
<path d="M94.7069 88.445L69.6269 57.5333L55.3916 68.9726L80.4226 99.9996C83.6051 103.948 89.3873 104.58 93.3496 101.377C97.3114 98.1727 97.9043 92.386 94.7069 88.445Z" fill="#FDE2B2"/>
<path d="M58.3785 41.2265L55.4294 37.589C60.8239 33.5689 64.5227 32.5064 72.6261 32.2158C73.6792 32.1781 74.5807 31.4498 74.8389 30.4284C75.0971 29.407 74.65 28.3377 73.7413 27.8043C61.39 20.5515 49.818 20.7769 40.2762 28.4562L30.2076 36.5601C29.1848 37.3831 29.0263 38.8825 29.8549 39.9012C30.6651 40.8975 30.5354 42.3734 29.4945 43.2111C28.4749 44.0318 26.9764 43.873 26.1544 42.8569C25.3327 41.8416 23.8447 41.6823 22.827 42.5003L18.5148 45.9662C15.454 48.4294 14.9736 52.8972 17.4504 55.9525L23.4133 63.3073C25.879 66.3485 30.3649 66.8208 33.4115 64.3689L37.7224 60.9039C38.7447 60.0822 38.905 58.5843 38.0785 57.5647C37.2566 56.551 37.4168 55.0729 38.4329 54.2551C39.4538 53.4336 40.9542 53.592 41.7783 54.6082C42.6005 55.6224 44.088 55.7803 45.1053 54.962L58.0235 44.5652C59.0451 43.7428 59.2046 42.2454 58.3785 41.2265Z" fill="#FDE2B2"/>
</svg>
