<svg width="31" height="35" viewBox="0 0 31 35" fill="none" xmlns="http://www.w3.org/2000/svg">
<path d="M27.1815 4.23941C26.9766 4.03033 26.6408 4.02682 26.4319 4.232C26.2228 4.43692 26.2194 4.77257 26.4245 4.98166C28.4114 7.00863 29.5057 9.68845 29.5057 12.5274V17.617C29.5057 23.5611 24.6698 28.397 18.7256 28.397H12.505C12.3645 28.397 12.2296 28.4529 12.1301 28.5523L7.94564 32.7368V27.9851C7.94564 27.7745 7.82079 27.5837 7.62778 27.4994C3.6984 25.7824 1.15949 21.9033 1.15949 17.617V12.5274C1.15949 6.58325 5.99536 1.74732 11.9395 1.74732H18.7257C20.8442 1.74732 22.8944 2.36135 24.6547 3.52275C24.8991 3.6841 25.228 3.61659 25.3892 3.37226C25.5505 3.12779 25.4831 2.79902 25.2387 2.63775C23.3044 1.36161 21.0523 0.687012 18.7256 0.687012H11.9395C5.41076 0.687012 0.0991211 5.99865 0.0991211 12.5274V17.617C0.0991211 22.208 2.75124 26.3738 6.88527 28.3265V34.0168C6.88527 34.4781 7.46286 34.719 7.79038 34.3917L12.7246 29.4574H18.7257C25.2544 29.4574 30.5661 24.1458 30.5661 17.617V12.5274C30.566 9.40921 29.364 6.46575 27.1815 4.23941Z" fill="#6C1CD2"/>
<path d="M23.8358 21.7363L23.3273 18.982C23.2879 18.7687 23.1225 18.6009 22.9099 18.5584L18.9111 17.7587C18.7374 17.724 18.5577 17.7783 18.4323 17.9037L16.7905 19.5456C14.0232 18.3104 12.4941 16.7781 11.1472 13.8923L12.784 12.2555C12.9092 12.1302 12.9637 11.9505 12.929 11.7767L12.1293 7.77787C12.0867 7.56515 11.919 7.39984 11.7056 7.3605L8.95143 6.85213C8.88067 6.83891 8.80794 6.84056 8.73778 6.8565C8.01703 7.02022 7.35935 7.38344 6.83591 7.90695C5.92974 8.81318 5.58358 10.1373 5.83512 11.7358C5.94965 12.4636 6.11985 13.2176 6.34104 13.9769C6.42303 14.2581 6.71775 14.4192 6.99838 14.3377C7.27954 14.2557 7.44102 13.9615 7.35915 13.6803C7.15046 12.9641 6.99018 12.2544 6.88266 11.5709C6.68323 10.3032 6.91976 9.32267 7.58583 8.6566C7.94297 8.2994 8.38554 8.04455 8.87115 7.91541L11.1601 8.33801L11.8338 11.7064L10.1373 13.4028C9.98198 13.5582 9.93853 13.7932 10.0281 13.9938C11.5703 17.4476 13.3795 19.2554 16.7033 20.6638C16.9024 20.748 17.1324 20.7032 17.2851 20.5505L18.9815 18.854L22.3498 19.5277L22.7725 21.8167C22.6433 22.3022 22.3884 22.7448 22.0314 23.102C21.3651 23.7679 20.3844 24.0045 19.1168 23.805C16.5825 23.4062 13.0671 22.1759 10.8015 19.9192L10.7689 19.8866C9.72667 18.8403 8.79769 17.397 8.08255 15.7129C7.96803 15.4434 7.65685 15.3178 7.38732 15.4322C7.1178 15.5466 6.9921 15.8579 7.10656 16.1274C7.8742 17.9348 8.88087 19.4935 10.0197 20.6371L10.0525 20.6697C12.4985 23.1061 16.2535 24.4279 18.9519 24.8524C19.2906 24.9057 19.6168 24.9322 19.9295 24.9322C21.0927 24.9322 22.0665 24.5658 22.7809 23.8516C23.3043 23.3281 23.6676 22.6704 23.8313 21.9498C23.8473 21.8798 23.8489 21.8071 23.8358 21.7363Z" fill="#6C1CD2"/>
<path d="M16.4638 10.3007C16.1709 10.3007 15.9336 10.538 15.9336 10.8308C15.9336 11.1237 16.1709 11.361 16.4638 11.361C17.7306 11.361 18.7611 12.3916 18.7611 13.6584C18.7611 13.9473 19.0024 14.1886 19.2913 14.1886C19.5802 14.1886 19.8215 13.9473 19.8215 13.6584C19.8215 11.807 18.3152 10.3007 16.4638 10.3007Z" fill="#6C1CD2"/>
<path d="M16.4634 8.03882C16.2555 8.03882 16.0456 8.05032 15.8397 8.073C15.5487 8.10514 15.3388 8.36713 15.3709 8.65814C15.403 8.94909 15.6648 9.15824 15.956 9.12696C16.1235 9.10845 16.2941 9.09906 16.4634 9.09906C18.9774 9.09906 21.0228 11.1444 21.0228 13.6585C21.0228 13.8277 21.0134 13.9984 20.9949 14.1658C20.9629 14.4569 21.1727 14.7189 21.4637 14.751C21.7509 14.782 22.0171 14.5699 22.0489 14.2822C22.0716 14.0763 22.0831 13.8664 22.0831 13.6585C22.0832 10.5598 19.5622 8.03882 16.4634 8.03882Z" fill="#6C1CD2"/>
<path d="M16.4638 5.77698C16.2625 5.77698 16.0589 5.78471 15.8582 5.79986C15.5663 5.82201 15.3475 6.07659 15.3697 6.36859C15.3919 6.6606 15.6453 6.87887 15.9385 6.85712C16.1124 6.84389 16.2892 6.83728 16.4639 6.83728C20.2252 6.83728 23.2853 9.89738 23.2853 13.6587C23.2853 14.191 23.2239 14.7207 23.1028 15.2334C23.0372 15.5111 23.211 15.7975 23.487 15.8687C23.7706 15.9418 24.0674 15.762 24.1346 15.4772C24.2746 14.8847 24.3456 14.273 24.3456 13.6587C24.3456 9.31278 20.8098 5.77698 16.4638 5.77698Z" fill="#6C1CD2"/>
</svg>
