<svg width="34" height="34" viewBox="0 0 34 34" fill="none" xmlns="http://www.w3.org/2000/svg">
<path d="M28.2743 5.52114C25.157 2.40382 21.0123 0.687012 16.6038 0.687012C12.1952 0.687012 8.05057 2.40382 4.93325 5.52114C1.81593 8.63846 0.0991211 12.7831 0.0991211 17.1917C0.0991211 20.5172 1.07986 23.7114 2.93831 26.4486L0.140899 32.9759C-0.0423936 33.4035 0.41632 33.8471 0.838156 33.6461L7.08176 30.673C9.87672 32.652 13.1622 33.6964 16.6038 33.6964C21.0123 33.6964 25.157 31.9796 28.2743 28.8622C31.3917 25.745 33.1085 21.6002 33.1085 17.1917C33.1085 12.7831 31.3917 8.63846 28.2743 5.52114ZM16.6038 32.6627C13.2801 32.6627 10.1122 31.6239 7.44241 29.6586C7.29051 29.5467 7.08408 29.5271 6.91381 29.6082L1.6307 32.1239L4.00106 26.5933C4.07172 26.4284 4.05186 26.2386 3.94845 26.092C2.10644 23.4776 1.13279 20.4 1.13279 17.1917C1.13279 8.66096 8.07307 1.72068 16.6038 1.72068C25.1345 1.72068 32.0748 8.66096 32.0748 17.1917C32.0748 25.7224 25.1345 32.6627 16.6038 32.6627Z" fill="#1BA92A"/>
<path d="M25.6973 6.88057C25.4834 6.69161 25.1567 6.71211 24.9678 6.92609C24.7789 7.14007 24.7993 7.46668 25.0132 7.65558C27.749 10.0701 29.3181 13.5459 29.3181 17.1917C29.3181 24.2025 23.6143 29.9062 16.6036 29.9062C9.59279 29.9062 3.88914 24.2025 3.88914 17.1917C3.88914 10.1809 9.59279 4.47727 16.6036 4.47727C18.839 4.47727 21.0372 5.06538 22.9605 6.17796C23.2076 6.32096 23.5238 6.23644 23.6667 5.98932C23.8096 5.7422 23.7252 5.4261 23.4782 5.2831C21.3976 4.07974 19.0204 3.4436 16.6036 3.4436C9.0228 3.4436 2.85547 9.61094 2.85547 17.1917C2.85547 24.7725 9.0228 30.9399 16.6036 30.9399C24.1844 30.9399 30.3517 24.7725 30.3517 17.1917C30.3517 13.2494 28.6552 9.49121 25.6973 6.88057Z" fill="#1BA92A"/>
<path d="M25.3814 22.7955L24.8857 20.1104C24.8473 19.9025 24.6861 19.7389 24.4788 19.6974L20.5806 18.9178C20.4111 18.8842 20.2359 18.9371 20.1137 19.0593L18.5132 20.6599C15.8154 19.4557 14.3247 17.9619 13.0116 15.1486L14.6074 13.5529C14.7295 13.4307 14.7826 13.2556 14.7487 13.0861L13.9691 9.18775C13.9276 8.98041 13.764 8.81923 13.5561 8.7808L10.8711 8.28508C10.8021 8.27232 10.7312 8.2738 10.6627 8.28934C9.96014 8.44904 9.31897 8.80318 8.80881 9.3134C7.92536 10.1969 7.58792 11.4876 7.8331 13.0461C8.05649 14.4664 8.50708 16.0111 9.10177 17.3958C9.21446 17.6581 9.51845 17.7795 9.78065 17.6667C10.0429 17.554 10.1642 17.2502 10.0516 16.9878C9.48982 15.6801 9.06463 14.2231 8.8542 12.8854C8.65982 11.6495 8.89043 10.6936 9.53972 10.0443C9.8878 9.69617 10.3192 9.44776 10.7928 9.32178L13.0243 9.73376L13.681 13.0175L12.0272 14.6714C11.8758 14.8228 11.8334 15.0519 11.9208 15.2475C13.4243 18.6145 15.188 20.3768 18.4283 21.75C18.6224 21.8321 18.8465 21.7884 18.9955 21.6396L20.6492 19.9857L23.933 20.6425L24.345 22.874C24.2191 23.3474 23.9706 23.7788 23.6225 24.1271C22.9732 24.7763 22.0171 25.007 20.7813 24.8125C18.3107 24.4238 14.8837 23.2244 12.6749 21.0244L12.6432 20.9926C12.0433 20.3904 11.4848 19.6598 10.983 18.8212C10.8366 18.5763 10.5192 18.4964 10.2742 18.643C10.0292 18.7895 9.94944 19.1069 10.096 19.3519C10.6408 20.2627 11.2514 21.0602 11.9127 21.7242L11.9446 21.7561C14.3293 24.1313 17.99 25.4198 20.6206 25.8336C21.6696 25.9987 22.7965 25.9213 23.7207 25.3564C23.9504 25.216 24.163 25.0483 24.3533 24.858C24.8636 24.3476 25.2177 23.7065 25.3773 23.0039C25.3928 22.9354 25.3942 22.8644 25.3814 22.7955Z" fill="#1BA92A"/>
</svg>
